<svg xmlns:xlink="http://www.w3.org/1999/xlink" viewBox="0 0 618 415" xmlns="http://www.w3.org/2000/svg" width="618" height="415"><defs/><g transform="translate(-276.63,-319.00)"><g id="shape1" transform="translate(323.95,320.00)"><path fill-rule="nonzero" d="M18.5,37.0L65.6,37.0L65.6,37.0C75.8,37.0,84.1,28.7,84.1,18.5C84.1,8.3,75.8,.0,65.6,.0L18.5,.0L18.5,.0C8.3,.0,.0,8.3,.0,18.5C.0,28.7,8.3,37.0,18.5,37.0z" stroke="#2dabab" fill="#2dabab" stroke-width="1"/><text xml:space="preserve" style="fill:#ffffff;font-family:微软雅黑;font-size:10.00pt"><tspan x="29.0" y="24.0">开始</tspan></text></g><g id="shape2" transform="translate(366.00,357.00)"><path stroke="#424f88" d="M.0,.0L.0,25.0" fill="none" stroke-width="1"/><path stroke="#424f88" d="M3.0,25.0L.0,31.0L-3.0,25.0L3.0,25.0" stroke-linecap="round" fill="#424f88" stroke-width="1"/></g><g id="shape3" transform="translate(316.00,388.00)"><path fill-rule="nonzero" d="M100.0,44.0L100.0,.0L.0,.0L.0,44.0L100.0,44.0z" stroke="#424f88" fill="#ffffff" stroke-width="3"/><text xml:space="preserve" style="fill:#424f88;font-family:微软雅黑;font-size:10.00pt"><tspan x="9.0" y="27.5">原生Bean实例</tspan></text></g><g id="shape4" transform="translate(371.63,352.00)"><text xml:space="preserve" style="fill:#454545;font-family:微软雅黑;font-size:10.00pt"><tspan x="7.4" y="24.5">通过反射调用构造方法创建Bean实例</tspan></text></g><g id="shape5" transform="translate(316.00,473.00)"><path fill-rule="nonzero" d="M100.0,30.0L100.0,.0L.0,.0L.0,30.0L100.0,30.0z" stroke="#424f88" fill="#ffffff" stroke-width="3"/><text xml:space="preserve" style="fill:#424f88;font-family:微软雅黑;font-size:10.00pt"><tspan x="8.5" y="20.5">BeanWrapper</tspan></text></g><g id="shape6" transform="translate(276.63,437.00)"><text xml:space="preserve" style="fill:#454545;font-family:微软雅黑;font-size:10.00pt"><tspan x="13.2" y="21.0">装饰Bean</tspan></text></g><g id="shape7" transform="translate(481.50,473.00)"><path fill-rule="nonzero" d="M209.0,30.0L209.0,.0L.0,.0L.0,30.0L209.0,30.0z" stroke="#424f88" fill="#ffffff" stroke-width="3"/><text xml:space="preserve" style="fill:#424f88;font-family:微软雅黑;font-size:10.00pt"><tspan x="11.0" y="20.5">使用BeanWrapper设置对象属性</tspan></text></g><g id="shape8" transform="translate(481.50,488.00)"><path stroke="#424f88" d="M.0,.0L-59.0,.0" fill="none" stroke-width="1"/><path stroke="#424f88" d="M-59.0,3.0L-65.0,.0L-59.0,-3.0L-59.0,3.0" stroke-linecap="round" fill="#424f88" stroke-width="1"/></g><g id="shape9" transform="translate(366.00,503.00)"><path stroke="#424f88" d="M.0,.0L.0,25.0" fill="none" stroke-width="1"/><path stroke="#424f88" d="M3.0,25.0L.0,31.0L-3.0,25.0L3.0,25.0" stroke-linecap="round" fill="#424f88" stroke-width="1"/></g><g id="shape10" transform="translate(302.00,534.00)"><path fill-rule="nonzero" d="M128.0,30.0L128.0,.0L.0,.0L.0,30.0L128.0,30.0z" stroke="#424f88" fill="#ffffff" stroke-width="3"/><text xml:space="preserve" style="fill:#424f88;font-family:微软雅黑;font-size:10.00pt"><tspan x="6.0" y="20.5">检查Aware相关接口</tspan></text></g><g id="shape11" transform="translate(430.00,549.00)"><path stroke="#424f88" d="M.0,.0L36.0,.0" fill="none" stroke-width="1"/><path stroke="#424f88" d="M36.0,-3.0L42.0,.0L36.0,3.0L36.0,-3.0" stroke-linecap="round" fill="#424f88" stroke-width="1"/></g><g id="shape12" transform="translate(472.50,534.00)"><path fill-rule="nonzero" d="M189.0,30.0L189.0,.0L.0,.0L.0,30.0L189.0,30.0z" stroke="#424f88" fill="#ffffff" stroke-width="3"/><text xml:space="preserve" style="fill:#424f88;font-family:微软雅黑;font-size:10.00pt"><tspan x="10.0" y="20.5">BeanPostProcessor前置处理</tspan></text></g><g id="shape13" transform="translate(661.50,549.00)"><path stroke="#424f88" d="M.0,.0L37.0,.0" fill="none" stroke-width="1"/><path stroke="#424f88" d="M37.0,-3.0L43.0,.0L37.0,3.0L37.0,-3.0" stroke-linecap="round" fill="#424f88" stroke-width="1"/></g><g id="shape14" transform="translate(704.00,534.00)"><path fill-rule="nonzero" d="M189.0,30.0L189.0,.0L.0,.0L.0,30.0L189.0,30.0z" stroke="#424f88" fill="#ffffff" stroke-width="3"/><text xml:space="preserve" style="fill:#424f88;font-family:微软雅黑;font-size:10.00pt"><tspan x="10.0" y="20.5">lnitializingBean/init-method</tspan></text></g><g id="shape15" transform="translate(798.50,564.00)"><path stroke="#424f88" d="M.0,.0L.0,21.0" fill="none" stroke-width="1"/><path stroke="#424f88" d="M3.0,21.0L.0,27.0L-3.0,21.0L3.0,21.0" stroke-linecap="round" fill="#424f88" stroke-width="1"/></g><g id="shape16" transform="translate(704.00,591.00)"><path fill-rule="nonzero" d="M189.0,30.0L189.0,.0L.0,.0L.0,30.0L189.0,30.0z" stroke="#424f88" fill="#ffffff" stroke-width="3"/><text xml:space="preserve" style="fill:#424f88;font-family:微软雅黑;font-size:10.00pt"><tspan x="10.0" y="20.5">BeanPostProcessor后置处理</tspan></text></g><g id="shape17" transform="translate(704.00,606.00)"><path stroke="#424f88" d="M.0,.0L-23.0,.0" fill="none" stroke-width="1"/><path stroke="#424f88" d="M-23.0,3.0L-29.0,.0L-23.0,-3.0L-23.0,3.0" stroke-linecap="round" fill="#424f88" stroke-width="1"/></g><g id="shape18" transform="translate(459.00,591.00)"><path fill-rule="nonzero" d="M216.0,30.0L216.0,.0L.0,.0L.0,30.0L216.0,30.0z" stroke="#424f88" fill="#ffffff" stroke-width="3"/><text xml:space="preserve" style="fill:#424f88;font-family:微软雅黑;font-size:10.00pt"><tspan x="7.0" y="20.5">DisposableBean/destory-method</tspan></text></g><g id="shape19" transform="translate(459.00,606.00)"><path stroke="#424f88" d="M.0,.0L-54.0,.0" fill="none" stroke-width="1"/><path stroke="#424f88" d="M-54.0,3.0L-60.0,.0L-54.0,-3.0L-54.0,3.0" stroke-linecap="round" fill="#424f88" stroke-width="1"/></g><g id="shape20" transform="translate(326.00,591.00)"><path fill-rule="nonzero" d="M73.0,30.0L73.0,.0L.0,.0L.0,30.0L73.0,30.0z" stroke="#424f88" fill="#ffffff" stroke-width="3"/><text xml:space="preserve" style="fill:#424f88;font-family:微软雅黑;font-size:10.00pt"><tspan x="23.5" y="20.5">使用</tspan></text></g><g id="shape21" transform="translate(362.50,621.00)"><path stroke="#424f88" d="M.0,.0L.0,28.0" fill="none" stroke-width="1"/><path stroke="#424f88" d="M3.0,28.0L.0,34.0L-3.0,28.0L3.0,28.0" stroke-linecap="round" fill="#424f88" stroke-width="1"/></g><g id="shape22" transform="translate(304.50,655.00)"><path fill-rule="nonzero" d="M116.0,30.0L116.0,.0L.0,.0L.0,30.0L116.0,30.0z" stroke="#424f88" fill="#ffffff" stroke-width="3"/><text xml:space="preserve" style="fill:#424f88;font-family:微软雅黑;font-size:10.00pt"><tspan x="6.0" y="20.5">调用回调销毁接口</tspan></text></g><g id="shape23" transform="translate(362.50,685.00)"><path stroke="#424f88" d="M.0,.0L.0,12.0" fill="none" stroke-width="1"/><path stroke="#424f88" d="M3.0,12.0L.0,18.0L-3.0,12.0L3.0,12.0" stroke-linecap="round" fill="#424f88" stroke-width="1"/></g><g id="shape24" transform="translate(322.25,703.00)"><path fill-rule="nonzero" d="M80.5,15.0L80.5,15.0C80.5,6.7,73.8,.0,65.5,.0L15.0,.0C6.7,.0,.0,6.7,.0,15.0L.0,15.0C.0,23.3,6.7,30.0,15.0,30.0L65.5,30.0C73.8,30.0,80.5,23.3,80.5,15.0z" stroke="#2dabab" fill="#2dabab" stroke-width="1"/><text xml:space="preserve" style="fill:#ffffff;font-family:微软雅黑;font-size:10.00pt"><tspan x="27.3" y="20.5">结束</tspan></text></g><g id="shape25" transform="translate(366.00,432.00)"><path stroke="#424f88" d="M.0,.0L.0,35.0" fill="none" stroke-width="1"/><path stroke="#424f88" d="M3.0,35.0L.0,41.0L-3.0,35.0L3.0,35.0" stroke-linecap="round" fill="#424f88" stroke-width="1"/></g><g id="shape26" transform="translate(369.00,454.00)"><path stroke="#424f88" d="M.0,.0L216.0,.0L216.0,13.0" fill="none" stroke-width="1"/><path stroke="#424f88" d="M219.0,13.0L216.0,19.0L213.0,13.0L219.0,13.0" stroke-linecap="round" fill="#424f88" stroke-width="1"/></g></g></svg>