<svg xmlns:xlink="http://www.w3.org/1999/xlink" viewBox="0 0 894 424" xmlns="http://www.w3.org/2000/svg" width="894" height="424"><defs/><g transform="translate(-96.00,-81.50)"><g id="shape1" transform="translate(252.50,83.00)"><path fill-rule="nonzero" d="M107.0,60.0L107.0,.0L.0,.0L.0,60.0L107.0,60.0z" stroke="#424f88" fill="#ffffff" stroke-width="3"/><text xml:space="preserve" style="fill:#424f88;font-family:微软雅黑;font-size:10.00pt"><tspan x="6.0" y="35.5">实例化Bean对象</tspan></text></g><g id="shape2" transform="translate(359.50,113.00)"><path stroke="#424f88" d="M.0,.0L50.0,.0" fill="none" stroke-width="1"/><path stroke="#424f88" d="M50.0,-3.0L56.0,.0L50.0,3.0L50.0,-3.0" stroke-linecap="round" fill="#424f88" stroke-width="1"/></g><g id="shape3" transform="translate(415.00,83.00)"><path fill-rule="nonzero" d="M100.0,60.0L100.0,.0L.0,.0L.0,60.0L100.0,60.0z" stroke="#424f88" fill="#ffffff" stroke-width="3"/><text xml:space="preserve" style="fill:#424f88;font-family:微软雅黑;font-size:10.00pt"><tspan x="9.0" y="35.5">Bean属性注入</tspan></text></g><g id="shape4" transform="translate(515.00,113.00)"><path stroke="#424f88" d="M.0,.0L49.0,.0" fill="none" stroke-width="1"/><path stroke="#424f88" d="M49.0,-3.0L55.0,.0L49.0,3.0L49.0,-3.0" stroke-linecap="round" fill="#424f88" stroke-width="1"/></g><g id="shape5" transform="translate(570.50,83.00)"><path fill-rule="nonzero" d="M160.0,60.0L160.0,.0L.0,.0L.0,60.0L160.0,60.0z" stroke="#424f88" fill="#ffffff" stroke-width="3"/><text xml:space="preserve" style="fill:#424f88;font-family:微软雅黑;font-size:10.00pt"><tspan x="8.0" y="26.0">调用BeanNameAware的</tspan><tspan x="20.5" y="45.0">setBeanName()方法</tspan></text></g><g id="shape6" transform="translate(730.50,113.00)"><path stroke="#424f88" d="M.0,.0L50.0,.0" fill="none" stroke-width="1"/><path stroke="#424f88" d="M50.0,-3.0L56.0,.0L50.0,3.0L50.0,-3.0" stroke-linecap="round" fill="#424f88" stroke-width="1"/></g><g id="shape7" transform="translate(786.00,83.00)"><path fill-rule="nonzero" d="M171.0,60.0L171.0,.0L.0,.0L.0,60.0L171.0,60.0z" stroke="#424f88" fill="#ffffff" stroke-width="3"/><text xml:space="preserve" style="fill:#424f88;font-family:微软雅黑;font-size:10.00pt"><tspan x="9.0" y="26.0">调用BeanFactoryAware的</tspan><tspan x="21.5" y="45.0">setBeanFactory()方法</tspan></text></g><g id="shape8" transform="translate(745.00,183.00)"><path fill-rule="nonzero" d="M212.0,60.0L212.0,.0L.0,.0L.0,60.0L212.0,60.0z" stroke="#424f88" fill="#ffffff" stroke-width="3"/><text xml:space="preserve" style="fill:#424f88;font-family:微软雅黑;font-size:10.00pt"><tspan x="8.5" y="26.0">调用ApplicationContextAware的</tspan><tspan x="21.0" y="45.0">setApplicationContext()方法</tspan></text></g><g id="shape9" transform="translate(524.00,183.00)"><path fill-rule="nonzero" d="M175.0,60.0L175.0,.0L.0,.0L.0,60.0L175.0,60.0z" stroke="#424f88" fill="#ffffff" stroke-width="3"/><text xml:space="preserve" style="fill:#424f88;font-family:微软雅黑;font-size:10.00pt"><tspan x="9.5" y="26.0">调用BeanPostProcessor的</tspan><tspan x="48.5" y="45.0">预初始化方法</tspan></text></g><g id="shape10" transform="translate(524.00,213.00)"><path stroke="#424f88" d="M.0,.0L-53.0,.0" fill="none" stroke-width="1"/><path stroke="#424f88" d="M-53.0,3.0L-59.0,.0L-53.0,-3.0L-53.0,3.0" stroke-linecap="round" fill="#424f88" stroke-width="1"/></g><g id="shape11" transform="translate(312.50,183.00)"><path fill-rule="nonzero" d="M153.0,60.0L153.0,.0L.0,.0L.0,60.0L153.0,60.0z" stroke="#424f88" fill="#ffffff" stroke-width="3"/><text xml:space="preserve" style="fill:#424f88;font-family:微软雅黑;font-size:10.00pt"><tspan x="9.5" y="26.0">调用InitializingBean 的</tspan><tspan x="4.0" y="45.0">afterPropertiesSet()方法</tspan></text></g><g id="shape12" transform="translate(312.50,213.00)"><path stroke="#424f88" d="M.0,.0L-52.0,.0" fill="none" stroke-width="1"/><path stroke="#424f88" d="M-52.0,3.0L-58.0,.0L-52.0,-3.0L-52.0,3.0" stroke-linecap="round" fill="#424f88" stroke-width="1"/></g><g id="shape13" transform="translate(142.00,183.00)"><path fill-rule="nonzero" d="M112.0,60.0L112.0,.0L.0,.0L.0,60.0L112.0,60.0z" stroke="#424f88" fill="#ffffff" stroke-width="3"/><text xml:space="preserve" style="fill:#424f88;font-family:微软雅黑;font-size:10.00pt"><tspan x="6.5" y="35.5">调用init-method</tspan></text></g><g id="shape14" transform="translate(112.50,366.85)"><path fill-rule="nonzero" d="M172.0,60.0L172.0,.0L.0,.0L.0,60.0L172.0,60.0z" stroke="#424f88" fill="#ffffff" stroke-width="3"/><text xml:space="preserve" style="fill:#424f88;font-family:微软雅黑;font-size:10.00pt"><tspan x="8.0" y="26.0">调用BeanPostProcessor的</tspan><tspan x="47.0" y="45.0">后初始化方法</tspan></text></g><g id="shape15" transform="translate(472.50,366.85)"><path fill-rule="nonzero" d="M77.0,60.0L77.0,.0L.0,.0L.0,60.0L77.0,60.0z" stroke="#424f88" fill="#ffffff" stroke-width="3"/><text xml:space="preserve" style="fill:#424f88;font-family:微软雅黑;font-size:10.00pt"><tspan x="10.5" y="35.5">生成Bean</tspan></text></g><g id="shape16" transform="translate(593.00,366.85)"><path fill-rule="nonzero" d="M165.0,60.0L165.0,.0L.0,.0L.0,60.0L165.0,60.0z" stroke="#424f88" fill="#ffffff" stroke-width="3"/><text xml:space="preserve" style="fill:#424f88;font-family:微软雅黑;font-size:10.00pt"><tspan x="15.0" y="26.0">调用DisposableBean的</tspan><tspan x="42.5" y="45.0">destory()方法</tspan></text></g><g id="shape17" transform="translate(813.00,366.85)"><path fill-rule="nonzero" d="M165.0,60.0L165.0,.0L.0,.0L.0,60.0L165.0,60.0z" stroke="#424f88" fill="#ffffff" stroke-width="3"/><text xml:space="preserve" style="fill:#424f88;font-family:微软雅黑;font-size:10.00pt"><tspan x="6.5" y="26.0">调用destory-method属性</tspan><tspan x="37.0" y="45.0">指定的销毁方法</tspan></text></g><g id="shape18" transform="translate(97.50,83.00)"><path fill-rule="nonzero" d="M100.0,60.0L100.0,.0L.0,.0L.0,60.0L100.0,60.0z" stroke="#424f88" fill="#00b050" stroke-width="3"/><text xml:space="preserve" style="fill:#424f88;font-family:微软雅黑;font-size:10.00pt"><tspan x="24.0" y="35.5">容器启动</tspan></text></g><g id="shape19" transform="translate(342.50,285.50)"><path fill-rule="nonzero" d="M.0,46.5C.0,20.8,20.8,.0,46.5,.0C72.2,.0,93.0,20.8,93.0,46.5C93.0,72.2,72.2,93.0,46.5,93.0C20.8,93.0,.0,72.2,.0,46.5z" stroke="#424f88" fill="#ffffff" stroke-width="3"/><text xml:space="preserve" style="fill:#424f88;font-family:微软雅黑;font-size:10.00pt"><tspan x="22.0" y="23.5">scope为</tspan><tspan x="5.5" y="42.5">singleton的缓</tspan><tspan x="14.5" y="61.5">存在spring </tspan><tspan x="24.5" y="80.5">ioc容器</tspan></text></g><g id="shape20" transform="translate(342.50,411.25)"><path fill-rule="nonzero" d="M.0,46.5C.0,20.8,20.8,.0,46.5,.0C72.2,.0,93.0,20.8,93.0,46.5C93.0,72.2,72.2,93.0,46.5,93.0C20.8,93.0,.0,72.2,.0,46.5z" stroke="#424f88" fill="#ffffff" stroke-width="3"/><text xml:space="preserve" style="fill:#424f88;font-family:微软雅黑;font-size:10.00pt"><tspan x="22.0" y="23.5">scope为</tspan><tspan x="9.5" y="42.5">prototype的</tspan><tspan x="7.5" y="61.5">生命周期交给</tspan><tspan x="27.0" y="80.5">客户端</tspan></text></g><g id="shape21" transform="translate(197.00,113.00)"><path stroke="#424f88" d="M.0,.0L28.0,.0L49.0,.0" fill="none" stroke-width="1"/><path stroke="#424f88" d="M49.0,-3.0L55.0,.0L49.0,3.0L49.0,-3.0" stroke-linecap="round" fill="#424f88" stroke-width="1"/></g><g id="shape22" transform="translate(745.00,213.00)"><path stroke="#424f88" d="M.0,.0L-40.0,.0" fill="none" stroke-width="1"/><path stroke="#424f88" d="M-40.0,3.0L-46.0,.0L-40.0,-3.0L-40.0,3.0" stroke-linecap="round" fill="#424f88" stroke-width="1"/></g><g id="shape23" transform="translate(957.00,113.00)"><path stroke="#424f88" d="M.0,.0L28.0,.0L28.0,100.0L6.0,100.0" fill="none" stroke-width="1"/><path stroke="#424f88" d="M6.0,103.0L.0,100.0L6.0,97.0L6.0,103.0" stroke-linecap="round" fill="#424f88" stroke-width="1"/></g><g id="shape24" transform="translate(198.00,243.00)"><path stroke="#424f88" d="M.0,.0L.0,117.0" fill="none" stroke-width="1"/><path stroke="#424f88" d="M3.0,117.0L.0,123.0L-3.0,117.0L3.0,117.0" stroke-linecap="round" fill="#424f88" stroke-width="1"/></g><g id="shape25" transform="translate(549.50,396.85)"><path stroke="#424f88" d="M.0,.0L38.0,.0" fill="none" stroke-width="1"/><path stroke="#424f88" d="M38.0,-3.0L44.0,.0L38.0,3.0L38.0,-3.0" stroke-linecap="round" fill="#424f88" stroke-width="1"/></g><g id="shape26" transform="translate(758.00,396.85)"><path stroke="#424f88" d="M.0,.0L49.0,.0" fill="none" stroke-width="1"/><path stroke="#424f88" d="M49.0,-3.0L55.0,.0L49.0,3.0L49.0,-3.0" stroke-linecap="round" fill="#424f88" stroke-width="1"/></g><g id="shape27" transform="translate(285.00,396.00)"><path stroke="#424f88" d="M.0,.0L29.0,.0L29.0,-64.0L51.0,-64.0" fill="none" stroke-width="1"/><path stroke="#424f88" d="M51.0,-67.0L57.0,-64.0L51.0,-61.0L51.0,-67.0" stroke-linecap="round" fill="#424f88" stroke-width="1"/></g><g id="shape28" transform="translate(285.00,396.00)"><path stroke="#424f88" d="M.0,.0L29.0,.0L29.0,61.0L51.0,61.0" fill="none" stroke-width="1"/><path stroke="#424f88" d="M51.0,58.0L57.0,61.0L51.0,64.0L51.0,58.0" stroke-linecap="round" fill="#424f88" stroke-width="1"/></g><g id="shape29" transform="translate(435.50,332.00)"><path stroke="#424f88" d="M.0,.0L19.0,.0L19.0,64.9L31.0,64.9" fill="none" stroke-width="1"/><path stroke="#424f88" d="M31.0,61.9L37.0,64.9L31.0,67.9L31.0,61.9" stroke-linecap="round" fill="#424f88" stroke-width="1"/></g><g id="shape30" transform="translate(435.50,457.75)"><path stroke="#424f88" d="M.0,.0L19.0,.0L19.0,-60.9L31.0,-60.9" fill="none" stroke-width="1"/><path stroke="#424f88" d="M31.0,-63.9L37.0,-60.9L31.0,-57.9L31.0,-63.9" stroke-linecap="round" fill="#424f88" stroke-width="1"/></g></g></svg>