<svg height="330" xmlns:xlink="http://www.w3.org/1999/xlink" width="601" xmlns="http://www.w3.org/2000/svg" viewBox="0 0 601 330"><defs/><g transform="translate(-168.50,-276.50)"><g transform="translate(347.00,278.00)" id="shape1"><path fill-rule="nonzero" stroke="#424f88" stroke-width="3" fill="#ffffff" d="M22.0,44.0L78.0,44.0L78.0,44.0C90.2,44.0,100.0,34.2,100.0,22.0C100.0,9.8,90.2,.0,78.0,.0L22.0,.0L22.0,.0C9.8,.0,.0,9.8,.0,22.0C.0,34.2,9.8,44.0,22.0,44.0z"/><text xml:space="preserve" style="fill:#424f88;font-family:微软雅黑;font-size:10.00pt"><tspan y="27.5" x="37.0">开始</tspan></text></g><g transform="translate(397.00,322.00)" id="shape2"><path stroke="#424f88" stroke-width="1" d="M.0,.0L.0,21.0" fill="none"/><path stroke="#424f88" stroke-width="1" stroke-linecap="round" fill="#424f88" d="M3.0,21.0L.0,27.0L-3.0,21.0L3.0,21.0"/></g><g transform="translate(325.00,349.00)" id="shape3"><path fill-rule="nonzero" stroke="#424f88" stroke-width="3" fill="#ffffff" d="M144.0,33.0L144.0,7.0C144.0,3.1,140.9,.0,137.0,.0L7.0,.0C3.1,.0,.0,3.1,.0,7.0L.0,33.0C.0,36.9,3.1,40.0,7.0,40.0L137.0,40.0C140.9,40.0,144.0,36.9,144.0,33.0z"/><text xml:space="preserve" style="fill:#424f88;font-family:微软雅黑;font-size:10.00pt"><tspan y="25.5" x="4.0">BeanDefinationReader</tspan></text></g><g transform="translate(325.00,369.00)" id="shape4"><path stroke="#424f88" stroke-width="1" d="M-5.0,.0L-53.0,.0" fill="none"/><path stroke="#424f88" stroke-width="1" stroke-linecap="round" fill="#424f88" d="M-5.0,-5.0L.0,.0L-5.0,5.0L-5.0,-5.0"/><path stroke="#424f88" stroke-width="1" stroke-linecap="round" fill="#424f88" d="M-53.0,3.0L-59.0,.0L-53.0,-3.0L-53.0,3.0"/></g><g transform="translate(170.00,349.00)" id="shape5"><path fill-rule="nonzero" stroke="#424f88" stroke-width="3" fill="#ffffff" d="M96.0,40.0L96.0,.0L.0,.0L.0,40.0L96.0,40.0z"/><text xml:space="preserve" style="fill:#424f88;font-family:微软雅黑;font-size:10.00pt"><tspan y="25.5" x="15.5">配置元信息</tspan></text></g><g transform="translate(272.00,335.00)" id="shape6"><text xml:space="preserve" style="fill:#454545;font-family:微软雅黑;font-size:10.00pt"><tspan y="23.0" x="11.5">加载</tspan></text></g><g transform="translate(397.00,389.00)" id="shape7"><path stroke="#424f88" stroke-width="1" d="M.0,.0L.0,21.0" fill="none"/><path stroke="#424f88" stroke-width="1" stroke-linecap="round" fill="#424f88" d="M3.0,21.0L.0,27.0L-3.0,21.0L3.0,21.0"/></g><g transform="translate(336.00,416.00)" id="shape8"><path fill-rule="nonzero" stroke="#424f88" stroke-width="3" fill="#ffffff" d="M122.0,35.0L122.0,7.0C122.0,3.1,118.9,.0,115.0,.0L7.0,.0C3.1,.0,.0,3.1,.0,7.0L.0,35.0C.0,38.9,3.1,42.0,7.0,42.0L115.0,42.0C118.9,42.0,122.0,38.9,122.0,35.0z"/><text xml:space="preserve" style="fill:#424f88;font-family:微软雅黑;font-size:10.00pt"><tspan y="26.5" x="14.0">BeanDefination</tspan></text></g><g transform="translate(393.60,393.07)" id="shape9"><text xml:space="preserve" style="fill:#454545;font-family:微软雅黑;font-size:10.00pt"><tspan y="14.9" x="24.7">生成</tspan></text></g><g transform="translate(397.00,458.00)" id="shape10"><path stroke="#424f88" stroke-width="1" d="M.0,.0L.0,27.0" fill="none"/><path stroke="#424f88" stroke-width="1" stroke-linecap="round" fill="#424f88" d="M3.0,27.0L.0,33.0L-3.0,27.0L3.0,27.0"/></g><g transform="translate(319.50,491.00)" id="shape11"><path fill-rule="nonzero" stroke="#424f88" stroke-width="3" fill="#ffffff" d="M155.0,36.0L155.0,.0L.0,.0L.0,36.0L155.0,36.0z"/><text xml:space="preserve" style="fill:#424f88;font-family:微软雅黑;font-size:10.00pt"><tspan y="23.5" x="6.0">BeanDefinationRegistry</tspan></text></g><g transform="translate(401.34,463.29)" id="shape12"><text xml:space="preserve" style="fill:#454545;font-family:微软雅黑;font-size:10.00pt"><tspan y="16.7" x="25.3">注册到</tspan></text></g><g transform="translate(612.50,491.00)" id="shape13"><path fill-rule="nonzero" stroke="#424f88" stroke-width="3" fill="#ffffff" d="M155.0,36.0L155.0,.0L.0,.0L.0,36.0L155.0,36.0z"/><text xml:space="preserve" style="fill:#424f88;font-family:微软雅黑;font-size:10.00pt"><tspan y="23.5" x="19.0">BeanPostProcessor</tspan></text></g><g transform="translate(474.50,500.04)" id="shape14"><path stroke="#424f88" stroke-width="1" d="M.0,.0L132.0,.0" fill="none"/><path stroke="#424f88" stroke-width="1" stroke-linecap="round" fill="#424f88" d="M132.0,-3.0L138.0,.0L132.0,3.0L132.0,-3.0"/></g><g transform="translate(483.50,472.00)" id="shape15"><text xml:space="preserve" style="fill:#454545;font-family:微软雅黑;font-size:10.00pt"><tspan y="20.5" x="8.0">修改、替换、增强</tspan></text></g><g transform="translate(612.00,519.00)" id="shape16"><path stroke="#424f88" stroke-width="1" d="M.0,.0L-132.0,.0" fill="none"/><path stroke="#424f88" stroke-width="1" stroke-linecap="round" fill="#424f88" d="M-132.0,3.0L-138.0,.0L-132.0,-3.0L-132.0,3.0"/></g><g transform="translate(397.00,527.00)" id="shape17"><path stroke="#424f88" stroke-width="1" d="M.0,.0L.0,36.0" fill="none"/><path stroke="#424f88" stroke-width="1" stroke-linecap="round" fill="#424f88" d="M3.0,36.0L.0,42.0L-3.0,36.0L3.0,36.0"/></g><g transform="translate(373.00,569.00)" id="shape18"><path fill-rule="nonzero" stroke="#424f88" stroke-width="3" fill="#ffffff" d="M49.5,36.0L49.5,.0L.0,.0L.0,36.0L49.5,36.0z"/><text xml:space="preserve" style="fill:#424f88;font-family:微软雅黑;font-size:10.00pt"><tspan y="23.5" x="11.8">结束</tspan></text></g></g></svg>