<svg xmlns:ev="http://www.w3.org/2001/xml-events" width="1083" xmlns:xlink="http://www.w3.org/1999/xlink" height="539" viewBox="0 0 1083 539" xmlns="http://www.w3.org/2000/svg"><defs/><g transform="translate(5.5,5.5)" id="page1"><rect fill="#ffffff" width="1073" height="529" x="0" y="0"/><g transform="translate(532.20,41.85)" id="shape1"><path fill="#dcf6d3" stroke-width="2.666670083999634" stroke="#595959" d="M501.0,448.0L501.0,.0L.0,.0L.0,448.0L501.0,448.0z" fill-rule="nonzero"/><text style="fill:#595959;font-family:微软雅黑;font-size:20.00pt;font-weight:bold" xml:space="preserve"><tspan x="237.0" y="33.0">堆</tspan></text></g><g transform="translate(41.32,41.85)" id="shape2"><path fill="#ecbec0" stroke-width="2.666670083999634" stroke="#595959" d="M466.9,448.0L466.9,.0L.0,.0L.0,448.0L466.9,448.0z" fill-rule="nonzero"/><text style="fill:#303030;font-family:微软雅黑;font-size:20.00pt;font-weight:bold" xml:space="preserve"><tspan x="219.9" y="33.0">栈</tspan></text></g><g transform="translate(835.89,172.03)" id="shape3"><path fill="#b1ddf0" stroke-width="2.666670083999634" stroke="#595959" d="M98.6,33.8C105.3,33.8,110.6,28.5,110.6,21.8L110.6,12.0C110.6,5.4,105.3,.0,98.6,.0L12.0,.0C5.4,.0,.0,5.4,.0,12.0L.0,21.8C.0,28.5,5.4,33.8,12.0,33.8L98.6,33.8z" fill-rule="nonzero"/><text style="fill:#595959;font-family:微软雅黑;font-size:12.00pt;font-weight:bold" xml:space="preserve"><tspan x="41.3" y="22.9">abc</tspan></text></g><g transform="translate(52.00,200.00)" id="shape4"><path fill="#fddfbb" stroke-width="2.666670083999634" stroke="#595959" d="M444.0,48.9L444.0,.0L.0,.0L.0,48.9L444.0,48.9z" fill-rule="nonzero"/><text style="fill:#595959;font-family:宋体;font-size:12.00pt;font-weight:bold" xml:space="preserve"><tspan x="8.0" y="31.4">String[] array = new String[] { "abc", "xyz" };</tspan></text></g><g transform="translate(632.70,198.03)" id="group5"><g id="shape6"><path fill="#fddfbb" stroke-width="2.666670083999634" stroke="#595959" d="M122.0,33.0L122.0,.0L.0,.0L.0,33.0L122.0,33.0z" fill-rule="nonzero"/><text style="fill:#595959;font-family:宋体;font-size:12.00pt;font-weight:bold" xml:space="preserve"><tspan x="56.5" y="23.5">0</tspan></text></g><g transform="translate(0.00,33.00)" id="shape7"><path fill="#fddfbb" stroke-width="2.666670083999634" stroke="#595959" d="M122.0,33.0L122.0,.0L.0,.0L.0,33.0L122.0,33.0z" fill-rule="nonzero"/><text style="fill:#595959;font-family:宋体;font-size:12.00pt;font-weight:bold" xml:space="preserve"><tspan x="56.5" y="23.5">1</tspan></text></g></g><g transform="translate(625.90,153.00)" id="shape8"><text style="fill:#595959;font-family:微软雅黑;font-size:12.00pt;font-weight:bold" xml:space="preserve"><tspan x="12.8" y="22.5">new String[2]</tspan></text></g><g transform="translate(835.89,283.94)" id="shape9"><path fill="#b1ddf0" stroke-width="2.666670083999634" stroke="#595959" d="M98.6,33.8C105.3,33.8,110.6,28.5,110.6,21.8L110.6,12.0C110.6,5.4,105.3,.0,98.6,.0L12.0,.0C5.4,.0,.0,5.4,.0,12.0L.0,21.8C.0,28.5,5.4,33.8,12.0,33.8L98.6,33.8z" fill-rule="nonzero"/><text style="fill:#595959;font-family:微软雅黑;font-size:12.00pt;font-weight:bold" xml:space="preserve"><tspan x="42.3" y="22.9">xyz</tspan></text></g><g transform="matrix(0.95,-0.30,0.30,0.95,754.7,214.5)" id="shape10"><path fill="none" stroke-width="2.666670083999634" stroke="#595959" d="M.0,.0C44.5,-37.4,120.5,-69.3,141.0,-6.9"/><path fill="#595959" stroke-linecap="round" stroke-width="1" stroke="#595959" d="M143.0,.0L145.4,-9.5C144.2,-8.3,142.7,-7.4,141.0,-6.9C139.3,-6.4,137.6,-6.4,135.9,-6.8L143.0,.0"/></g><g transform="matrix(0.96,0.26,-0.26,0.96,693.7,264.0)" id="shape11"><path fill="none" stroke-width="2.666670083999634" stroke="#595959" d="M.0,.0C60.9,29.8,164.1,116.5,202.5,6.8"/><path fill="#595959" stroke-linecap="round" stroke-width="1" stroke="#595959" d="M204.7,.0L197.4,6.6C199.0,6.2,200.8,6.3,202.5,6.8C204.2,7.4,205.6,8.3,206.7,9.6L204.7,.0"/></g><g transform="matrix(1.00,-0.05,0.05,1.00,173.2,238.9)" id="shape12"><path fill="none" stroke-width="2.666670083999634" stroke="#595959" d="M.0,.0C92.2,107.7,277.0,71.0,453.5,2.6"/><path fill="#595959" stroke-linecap="round" stroke-width="1" stroke="#595959" d="M460.1,.0L450.5,-1.5C451.8,-0.4,452.8,.9,453.5,2.6C454.1,4.3,454.3,6.0,454.0,7.6L460.1,.0"/></g></g></svg>