<svg ed:name="Page-1" id="page300000105" xmlns="http://www.w3.org/2000/svg" xmlns:ed="https://www.edrawsoft.cn//xml/2017/SVGExtensions/" viewBox="0 0 905 1006" ed:hSpacing="30" width="905" xmlns:ev="http://www.w3.org/2001/xml-events" ed:vSpacing="30" xmlns:xlink="http://www.w3.org/1999/xlink" height="1006"><style type="text/css"><![CDATA[
g[ed\:togtopicid],g[ed\:hyperlink],g[ed\:comment],g[ed\:note] {cursor:pointer;}
g[id] {-moz-user-select: none;-ms-user-select: none;user-select: none;}
svg text::selection,svg tspan::selection{background-color: #4285f4;color: #ffffff;fill: #ffffff;}
.st61 {fill:#333333;font-family:Microsoft YaHei;font-size:9pt}
.st60 {fill:#ffffff;font-family:Microsoft YaHei;font-size:13pt;font-weight:bold}
]]></style><defs><linearGradient y2="100%" y1="0%" id="lg1" x2="0%" x1="0%"><stop offset="0" stop-color="#ffffff"/><stop offset="0.25" stop-color="#f0f5f0"/><stop offset="0.75" stop-color="#e1ebe1"/><stop offset="1" stop-color="#c8d7c8"/></linearGradient></defs><rect x="0" width="905" y="0" fill="#ffffff" height="1006"/><path stroke-width="2" ed:parentid="180" id="183" stroke-linecap="round" ed:tosuperid="182" stroke="#4486b1" d="M-13.5,192.6L0,192.6L0,-186.6C0,-189.9,2.7,-192.6,6,-192.6L13.5,-192.6" stroke-linejoin="round" fill="none" transform="matrix(1,0,0,1,149.5,304.25)"/><path stroke-width="2" ed:parentid="182" id="185" stroke-linecap="round" ed:tosuperid="184" stroke="#4486b1" d="M-13.5,33.2L0,33.2L0,-27.2C0,-30.5,2.7,-33.2,6,-33.2L13.5,-33.2" stroke-linejoin="round" fill="none" transform="matrix(1,0,0,1,221.5,78.44)"/><path stroke-width="2" ed:parentid="184" id="187" stroke-linecap="round" ed:tosuperid="186" stroke="#4486b1" d="M-13.5,7.4L0,7.4L0,-1.4C0,-4.7,2.7,-7.4,6,-7.4L13.5,-7.4" stroke-linejoin="round" fill="none" transform="matrix(1,0,0,1,293.5,37.88)"/><path stroke-width="2" ed:parentid="184" id="189" stroke-linecap="round" ed:tosuperid="188" stroke="#4486b1" d="M0,-7.4L0,1.4C0,4.7,2.7,7.4,6,7.4L13.5,7.4" stroke-linejoin="round" fill="none" transform="matrix(1,0,0,1,293.5,52.63)"/><path stroke-width="2" ed:parentid="182" id="191" stroke-linecap="round" ed:tosuperid="190" stroke="#4486b1" d="M0,11.1L0,-5.1C0,-8.4,2.7,-11.1,6,-11.1L13.5,-11.1" stroke-linejoin="round" fill="none" transform="matrix(1,0,0,1,221.5,100.56)"/><path stroke-width="2" ed:parentid="190" id="193" stroke-linecap="round" ed:tosuperid="192" stroke="#4486b1" d="M-13.5,0L0,0C0,0,2.7,0,6,0L13.5,0" stroke-linejoin="round" fill="none" transform="matrix(1,0,0,1,293.5,89.5)"/><path stroke-width="2" ed:parentid="182" id="195" stroke-linecap="round" ed:tosuperid="194" stroke="#4486b1" d="M0,-3.7L0,-2.3C0,1,2.7,3.7,6,3.7L13.5,3.7" stroke-linejoin="round" fill="none" transform="matrix(1,0,0,1,221.5,115.31)"/><path stroke-width="2" ed:parentid="194" id="197" stroke-linecap="round" ed:tosuperid="196" stroke="#4486b1" d="M-13.5,0L0,0C0,0,2.7,0,6,0L13.5,0" stroke-linejoin="round" fill="none" transform="matrix(1,0,0,1,293.5,119)"/><path stroke-width="2" ed:parentid="182" id="199" stroke-linecap="round" ed:tosuperid="198" stroke="#4486b1" d="M0,-18.4L0,12.4C0,15.7,2.7,18.4,6,18.4L13.5,18.4" stroke-linejoin="round" fill="none" transform="matrix(1,0,0,1,221.5,130.06)"/><path stroke-width="2" ed:parentid="198" id="201" stroke-linecap="round" ed:tosuperid="200" stroke="#4486b1" d="M-13.5,0L0,0C0,0,2.7,0,6,0L13.5,0" stroke-linejoin="round" fill="none" transform="matrix(1,0,0,1,293.5,148.5)"/><path stroke-width="2" ed:parentid="182" id="203" stroke-linecap="round" ed:tosuperid="202" stroke="#4486b1" d="M0,-33.2L0,27.2C0,30.5,2.7,33.2,6,33.2L13.5,33.2" stroke-linejoin="round" fill="none" transform="matrix(1,0,0,1,221.5,144.81)"/><path stroke-width="2" ed:parentid="202" id="205" stroke-linecap="round" ed:tosuperid="204" stroke="#4486b1" d="M-13.5,0L0,0C0,0,2.7,0,6,0L13.5,0" stroke-linejoin="round" fill="none" transform="matrix(1,0,0,1,293.5,178)"/><path stroke-width="2" ed:parentid="180" id="207" stroke-linecap="round" ed:tosuperid="206" stroke="#4486b1" d="M0,115.2L0,-109.2C0,-112.5,2.7,-115.2,6,-115.2L13.5,-115.2" stroke-linejoin="round" fill="none" transform="matrix(1,0,0,1,149.5,381.69)"/><path stroke-width="2" ed:parentid="206" id="209" stroke-linecap="round" ed:tosuperid="208" stroke="#4486b1" d="M-13.5,29.5L0,29.5L0,-23.5C0,-26.8,2.7,-29.5,6,-29.5L13.5,-29.5" stroke-linejoin="round" fill="none" transform="matrix(1,0,0,1,221.5,237)"/><path stroke-width="2" ed:parentid="208" id="211" stroke-linecap="round" ed:tosuperid="210" stroke="#4486b1" d="M-13.5,0L0,0C0,0,2.7,0,6,0L13.5,0" stroke-linejoin="round" fill="none" transform="matrix(1,0,0,1,305.5,207.5)"/><path stroke-width="2" ed:parentid="206" id="213" stroke-linecap="round" ed:tosuperid="212" stroke="#4486b1" d="M0,14.8L0,-8.8C0,-12.1,2.7,-14.8,6,-14.8L13.5,-14.8" stroke-linejoin="round" fill="none" transform="matrix(1,0,0,1,221.5,251.75)"/><path stroke-width="2" ed:parentid="212" id="215" stroke-linecap="round" ed:tosuperid="214" stroke="#4486b1" d="M-13.5,0L0,0C0,0,2.7,0,6,0L13.5,0" stroke-linejoin="round" fill="none" transform="matrix(1,0,0,1,301.5,237)"/><path stroke-width="2" ed:parentid="206" id="217" stroke-linecap="round" ed:tosuperid="216" stroke="#4486b1" d="M0,0C0,0,2.7,0,6,0L13.5,0" stroke-linejoin="round" fill="none" transform="matrix(1,0,0,1,221.5,266.5)"/><path stroke-width="2" ed:parentid="216" id="219" stroke-linecap="round" ed:tosuperid="218" stroke="#4486b1" d="M-13.5,0L0,0C0,0,2.7,0,6,0L13.5,0" stroke-linejoin="round" fill="none" transform="matrix(1,0,0,1,310.5,266.5)"/><path stroke-width="2" ed:parentid="206" id="221" stroke-linecap="round" ed:tosuperid="220" stroke="#4486b1" d="M0,-14.8L0,8.8C0,12.1,2.7,14.8,6,14.8L13.5,14.8" stroke-linejoin="round" fill="none" transform="matrix(1,0,0,1,221.5,281.25)"/><path stroke-width="2" ed:parentid="220" id="223" stroke-linecap="round" ed:tosuperid="222" stroke="#4486b1" d="M-13.5,0L0,0C0,0,2.7,0,6,0L13.5,0" stroke-linejoin="round" fill="none" transform="matrix(1,0,0,1,373.5,296)"/><path stroke-width="2" ed:parentid="206" id="225" stroke-linecap="round" ed:tosuperid="224" stroke="#4486b1" d="M0,-29.5L0,23.5C0,26.8,2.7,29.5,6,29.5L13.5,29.5" stroke-linejoin="round" fill="none" transform="matrix(1,0,0,1,221.5,296)"/><path stroke-width="2" ed:parentid="224" id="227" stroke-linecap="round" ed:tosuperid="226" stroke="#4486b1" d="M-13.5,0L0,0C0,0,2.7,0,6,0L13.5,0" stroke-linejoin="round" fill="none" transform="matrix(1,0,0,1,307.5,325.5)"/><path stroke-width="2" ed:parentid="180" id="229" stroke-linecap="round" ed:tosuperid="228" stroke="#4486b1" d="M0,5.6L0,0.4C0,-2.9,2.7,-5.6,6,-5.6L13.5,-5.6" stroke-linejoin="round" fill="none" transform="matrix(1,0,0,1,149.5,491.31)"/><path stroke-width="2" ed:parentid="228" id="231" stroke-linecap="round" ed:tosuperid="230" stroke="#4486b1" d="M-13.5,65.4L0,65.4L0,-59.4C0,-62.7,2.7,-65.4,6,-65.4L13.5,-65.4" stroke-linejoin="round" fill="none" transform="matrix(1,0,0,1,221.5,420.38)"/><path stroke-width="2" ed:parentid="228" id="233" stroke-linecap="round" ed:tosuperid="232" stroke="#4486b1" d="M0,50.6L0,-44.6C0,-47.9,2.7,-50.6,6,-50.6L13.5,-50.6" stroke-linejoin="round" fill="none" transform="matrix(1,0,0,1,221.5,435.13)"/><path stroke-width="2" ed:parentid="228" id="235" stroke-linecap="round" ed:tosuperid="234" stroke="#4486b1" d="M0,35.9L0,-29.9C0,-33.2,2.7,-35.9,6,-35.9L13.5,-35.9" stroke-linejoin="round" fill="none" transform="matrix(1,0,0,1,221.5,449.88)"/><path stroke-width="2" ed:parentid="228" id="237" stroke-linecap="round" ed:tosuperid="236" stroke="#4486b1" d="M0,21.1L0,-15.1C0,-18.4,2.7,-21.1,6,-21.1L13.5,-21.1" stroke-linejoin="round" fill="none" transform="matrix(1,0,0,1,221.5,464.63)"/><path stroke-width="2" ed:parentid="228" id="239" stroke-linecap="round" ed:tosuperid="238" stroke="#4486b1" d="M0,6.4L0,-0.4C0,-3.7,2.7,-6.4,6,-6.4L13.5,-6.4" stroke-linejoin="round" fill="none" transform="matrix(1,0,0,1,221.5,479.38)"/><path stroke-width="2" ed:parentid="228" id="241" stroke-linecap="round" ed:tosuperid="240" stroke="#4486b1" d="M0,-8.4L0,2.4C0,5.7,2.7,8.4,6,8.4L13.5,8.4" stroke-linejoin="round" fill="none" transform="matrix(1,0,0,1,221.5,494.13)"/><path stroke-width="2" ed:parentid="228" id="243" stroke-linecap="round" ed:tosuperid="242" stroke="#4486b1" d="M0,-27.4L0,21.4C0,24.7,2.7,27.4,6,27.4L13.5,27.4" stroke-linejoin="round" fill="none" transform="matrix(1,0,0,1,221.5,513.13)"/><path stroke-width="2" ed:parentid="228" id="245" stroke-linecap="round" ed:tosuperid="244" stroke="#4486b1" d="M0,-46.4L0,40.4C0,43.7,2.7,46.4,6,46.4L13.5,46.4" stroke-linejoin="round" fill="none" transform="matrix(1,0,0,1,221.5,532.13)"/><path stroke-width="2" ed:parentid="228" id="247" stroke-linecap="round" ed:tosuperid="246" stroke="#4486b1" d="M0,-65.4L0,59.4C0,62.7,2.7,65.4,6,65.4L13.5,65.4" stroke-linejoin="round" fill="none" transform="matrix(1,0,0,1,221.5,551.13)"/><path stroke-width="2" ed:parentid="246" id="249" stroke-linecap="round" ed:tosuperid="248" stroke="#4486b1" d="M-13.5,0L0,0C0,0,2.7,0,6,0L13.5,0" stroke-linejoin="round" fill="none" transform="matrix(1,0,0,1,353.5,616.5)"/><path stroke-width="2" ed:parentid="180" id="251" stroke-linecap="round" ed:tosuperid="250" stroke="#4486b1" d="M0,-115.7L0,109.7C0,113,2.7,115.7,6,115.7L13.5,115.7" stroke-linejoin="round" fill="none" transform="matrix(1,0,0,1,149.5,612.56)"/><path stroke-width="2" ed:parentid="250" id="253" stroke-linecap="round" ed:tosuperid="252" stroke="#4486b1" d="M-13.5,36.9L0,36.9L0,-30.9C0,-34.2,2.7,-36.9,6,-36.9L13.5,-36.9" stroke-linejoin="round" fill="none" transform="matrix(1,0,0,1,221.5,691.38)"/><path stroke-width="2" ed:parentid="250" id="255" stroke-linecap="round" ed:tosuperid="254" stroke="#4486b1" d="M0,22.1L0,-16.1C0,-19.4,2.7,-22.1,6,-22.1L13.5,-22.1" stroke-linejoin="round" fill="none" transform="matrix(1,0,0,1,221.5,706.13)"/><path stroke-width="2" ed:parentid="250" id="257" stroke-linecap="round" ed:tosuperid="256" stroke="#4486b1" d="M0,7.4L0,-1.4C0,-4.7,2.7,-7.4,6,-7.4L13.5,-7.4" stroke-linejoin="round" fill="none" transform="matrix(1,0,0,1,221.5,720.88)"/><path stroke-width="2" ed:parentid="250" id="259" stroke-linecap="round" ed:tosuperid="258" stroke="#4486b1" d="M0,-7.4L0,1.4C0,4.7,2.7,7.4,6,7.4L13.5,7.4" stroke-linejoin="round" fill="none" transform="matrix(1,0,0,1,221.5,735.63)"/><path stroke-width="2" ed:parentid="258" id="261" stroke-linecap="round" ed:tosuperid="260" stroke="#4486b1" d="M-13.5,0L0,0C0,0,2.7,0,6,0L13.5,0" stroke-linejoin="round" fill="none" transform="matrix(1,0,0,1,317.5,743)"/><path stroke-width="2" ed:parentid="250" id="263" stroke-linecap="round" ed:tosuperid="262" stroke="#4486b1" d="M0,-22.1L0,16.1C0,19.4,2.7,22.1,6,22.1L13.5,22.1" stroke-linejoin="round" fill="none" transform="matrix(1,0,0,1,221.5,750.38)"/><path stroke-width="2" ed:parentid="262" id="265" stroke-linecap="round" ed:tosuperid="264" stroke="#4486b1" d="M-13.5,0L0,0C0,0,2.7,0,6,0L13.5,0" stroke-linejoin="round" fill="none" transform="matrix(1,0,0,1,317.5,772.5)"/><path stroke-width="2" ed:parentid="250" id="267" stroke-linecap="round" ed:tosuperid="266" stroke="#4486b1" d="M0,-36.9L0,30.9C0,34.2,2.7,36.9,6,36.9L13.5,36.9" stroke-linejoin="round" fill="none" transform="matrix(1,0,0,1,221.5,765.13)"/><path stroke-width="2" ed:parentid="180" id="269" stroke-linecap="round" ed:tosuperid="268" stroke="#4486b1" d="M0,-192.6L0,186.6C0,189.9,2.7,192.6,6,192.6L13.5,192.6" stroke-linejoin="round" fill="none" transform="matrix(1,0,0,1,149.5,689.5)"/><path stroke-width="2" ed:parentid="268" id="271" stroke-linecap="round" ed:tosuperid="270" stroke="#4486b1" d="M-13.5,17.9L0,17.9L0,-11.9C0,-15.2,2.7,-17.9,6,-17.9L13.5,-17.9" stroke-linejoin="round" fill="none" transform="matrix(1,0,0,1,233.5,864.19)"/><path stroke-width="2" ed:parentid="270" id="273" stroke-linecap="round" ed:tosuperid="272" stroke="#4486b1" d="M-13.5,7.4L0,7.4L0,-1.4C0,-4.7,2.7,-7.4,6,-7.4L13.5,-7.4" stroke-linejoin="round" fill="none" transform="matrix(1,0,0,1,331.5,838.88)"/><path stroke-width="2" ed:parentid="270" id="275" stroke-linecap="round" ed:tosuperid="274" stroke="#4486b1" d="M0,-7.4L0,1.4C0,4.7,2.7,7.4,6,7.4L13.5,7.4" stroke-linejoin="round" fill="none" transform="matrix(1,0,0,1,331.5,853.63)"/><path stroke-width="2" ed:parentid="268" id="277" stroke-linecap="round" ed:tosuperid="276" stroke="#4486b1" d="M0,-17.9L0,11.9C0,15.2,2.7,17.9,6,17.9L13.5,17.9" stroke-linejoin="round" fill="none" transform="matrix(1,0,0,1,233.5,900.06)"/><path stroke-width="2" ed:parentid="276" id="279" stroke-linecap="round" ed:tosuperid="278" stroke="#4486b1" d="M-13.5,13.8L0,13.8L0,-7.8C0,-11.1,2.7,-13.8,6,-13.8L13.5,-13.8" stroke-linejoin="round" fill="none" transform="matrix(1,0,0,1,340.5,904.25)"/><path stroke-width="2" ed:parentid="276" id="281" stroke-linecap="round" ed:tosuperid="280" stroke="#4486b1" d="M0,-13.8L0,7.8C0,11.1,2.7,13.8,6,13.8L13.5,13.8" stroke-linejoin="round" fill="none" transform="matrix(1,0,0,1,340.5,931.75)"/><g id="180" ed:height="40" transform="matrix(1,0,0,1,21,476.88)" ed:width="115" ed:topictype="mainidea"><path d="M4,0L111,0C113.7,0,115,1.3,115,4L115,36C115,38.7,113.7,40,111,40L4,40C1.3,40,0,38.7,0,36L0,4C0,1.3,1.3,0,4,0z" stroke="#475d74" stroke-linejoin="round" fill="#72cdf9"/><text class="st60"><tspan x="18" textLength="77" y="24.7" style="white-space:pre">Java 枚举</tspan></text></g><g ed:parentid="180" id="182" ed:height="23" transform="matrix(1,0,0,1,163,100.13)" ed:width="45"><text class="st61"><tspan x="9" textLength="24" y="14.7" style="white-space:pre">简介</tspan></text></g><g ed:parentid="182" id="184" ed:height="23" transform="matrix(1,0,0,1,235,33.75)" ed:width="45"><text class="st61"><tspan x="9" textLength="24" y="14.7" style="white-space:pre">定义</tspan></text></g><g ed:parentid="184" id="186" ed:height="23" transform="matrix(1,0,0,1,307,19)" ed:width="253"><text class="st61"><tspan x="9" textLength="232" y="14.7" style="white-space:pre">被 enum 关键字修饰的类型就是枚举类型。</tspan></text></g><g ed:parentid="184" id="188" ed:height="23" transform="matrix(1,0,0,1,307,48.5)" ed:width="352"><text class="st61"><tspan x="9" textLength="331" y="14.7" style="white-space:pre">如果枚举不添加任何方法，枚举值默认为从0开始的有序数值。</tspan></text></g><g ed:parentid="182" id="190" ed:height="23" transform="matrix(1,0,0,1,235,78)" ed:width="45"><text class="st61"><tspan x="9" textLength="24" y="14.7" style="white-space:pre">示例</tspan></text></g><g ed:parentid="190" id="192" ed:height="23" transform="matrix(1,0,0,1,307,78)" ed:width="218"><text class="st61"><tspan x="9" textLength="197" y="14.7" style="white-space:pre">enum Color { RED, GREEN, BLUE }</tspan></text></g><g ed:parentid="182" id="194" ed:height="23" transform="matrix(1,0,0,1,235,107.5)" ed:width="45"><text class="st61"><tspan x="9" textLength="24" y="14.7" style="white-space:pre">优点</tspan></text></g><g ed:parentid="194" id="196" ed:height="23" transform="matrix(1,0,0,1,307,107.5)" ed:width="225"><text class="st61"><tspan x="9" textLength="204" y="14.7" style="white-space:pre">可以将常量组织起来，统一进行管理。</tspan></text></g><g ed:parentid="182" id="198" ed:height="23" transform="matrix(1,0,0,1,235,137)" ed:width="45"><text class="st61"><tspan x="9" textLength="24" y="14.7" style="white-space:pre">场景</tspan></text></g><g ed:parentid="198" id="200" ed:height="23" transform="matrix(1,0,0,1,307,137)" ed:width="129"><text class="st61"><tspan x="9" textLength="108" y="14.7" style="white-space:pre">错误码、状态机等。</tspan></text></g><g ed:parentid="182" id="202" ed:height="23" transform="matrix(1,0,0,1,235,166.5)" ed:width="45"><text class="st61"><tspan x="9" textLength="24" y="14.7" style="white-space:pre">本质</tspan></text></g><g ed:parentid="202" id="204" ed:height="23" transform="matrix(1,0,0,1,307,166.5)" ed:width="235"><text class="st61"><tspan x="9" textLength="214" y="14.7" style="white-space:pre">枚举的本质是 java.lang.Enum 的子类。</tspan></text></g><g ed:parentid="180" id="206" ed:height="23" transform="matrix(1,0,0,1,163,255)" ed:width="45"><text class="st61"><tspan x="9" textLength="24" y="14.7" style="white-space:pre">方法</tspan></text></g><g ed:parentid="206" id="208" ed:height="23" transform="matrix(1,0,0,1,235,196)" ed:width="57"><text class="st61"><tspan x="9" textLength="36" y="14.7" style="white-space:pre">values</tspan></text></g><g ed:parentid="208" id="210" ed:height="23" transform="matrix(1,0,0,1,319,196)" ed:width="461"><text class="st61"><tspan x="9" textLength="440" y="14.7" style="white-space:pre">返回 enum 实例的数组，而且该数组中的元素严格保持在 enum 中声明时的顺序。</tspan></text></g><g ed:parentid="206" id="212" ed:height="23" transform="matrix(1,0,0,1,235,225.5)" ed:width="53"><text class="st61"><tspan x="9" textLength="32" y="14.7" style="white-space:pre">name</tspan></text></g><g ed:parentid="212" id="214" ed:height="23" transform="matrix(1,0,0,1,315,225.5)" ed:width="93"><text class="st61"><tspan x="9" textLength="72" y="14.7" style="white-space:pre">返回实例名。</tspan></text></g><g ed:parentid="206" id="216" ed:height="23" transform="matrix(1,0,0,1,235,255)" ed:width="62"><text class="st61"><tspan x="9" textLength="41" y="14.7" style="white-space:pre">ordinal</tspan></text></g><g ed:parentid="216" id="218" ed:height="23" transform="matrix(1,0,0,1,324,255)" ed:width="208"><text class="st61"><tspan x="9" textLength="187" y="14.7" style="white-space:pre">返回实例声明时的次序，从0开始。</tspan></text></g><g ed:parentid="206" id="220" ed:height="23" transform="matrix(1,0,0,1,235,284.5)" ed:width="125"><text class="st61"><tspan x="9" textLength="104" y="14.7" style="white-space:pre">getDeclaringClass</tspan></text></g><g ed:parentid="220" id="222" ed:height="23" transform="matrix(1,0,0,1,387,284.5)" ed:width="181"><text class="st61"><tspan x="9" textLength="160" y="14.7" style="white-space:pre">返回实例所属的 enum 类型。</tspan></text></g><g ed:parentid="206" id="224" ed:height="23" transform="matrix(1,0,0,1,235,314)" ed:width="59"><text class="st61"><tspan x="9" textLength="38" y="14.7" style="white-space:pre">equals</tspan></text></g><g ed:parentid="224" id="226" ed:height="23" transform="matrix(1,0,0,1,321,314)" ed:width="153"><text class="st61"><tspan x="9" textLength="132" y="14.7" style="white-space:pre">判断是否为同一个对象。</tspan></text></g><g ed:parentid="180" id="228" ed:height="23" transform="matrix(1,0,0,1,163,474.25)" ed:width="45"><text class="st61"><tspan x="9" textLength="24" y="14.7" style="white-space:pre">特性</tspan></text></g><g ed:parentid="228" id="230" ed:height="23" transform="matrix(1,0,0,1,235,343.5)" ed:width="465"><text class="st61"><tspan x="9" textLength="444" y="14.7" style="white-space:pre">如果枚举中没有定义方法，也可以在最后一个实例后面加逗号、分号或什么都不加。</tspan></text></g><g ed:parentid="228" id="232" ed:height="23" transform="matrix(1,0,0,1,235,373)" ed:width="360"><text class="st61"><tspan x="9" textLength="339" y="14.7" style="white-space:pre">如果枚举中没有定义方法，枚举值默认为从 0 开始的有序数值。</tspan></text></g><g ed:parentid="228" id="234" ed:height="23" transform="matrix(1,0,0,1,235,402.5)" ed:width="329"><text class="st61"><tspan x="9" textLength="308" y="14.7" style="white-space:pre">除了不能继承，基本上可以将 enum 看做一个常规的类。 </tspan></text></g><g ed:parentid="228" id="236" ed:height="23" transform="matrix(1,0,0,1,235,432)" ed:width="215"><text class="st61"><tspan x="9" textLength="194" y="14.7" style="white-space:pre">Java 不允许使用 = 为枚举常量赋值 </tspan></text></g><g ed:parentid="228" id="238" ed:height="23" transform="matrix(1,0,0,1,235,461.5)" ed:width="201"><text class="st61"><tspan x="9" textLength="180" y="14.7" style="white-space:pre">enum 可以通过方法来显示地赋值</tspan></text></g><g ed:parentid="228" id="240" ed:height="23" transform="matrix(1,0,0,1,235,491)" ed:width="333"><text class="st61"><tspan x="9" textLength="312" y="14.7" style="white-space:pre">enum 可以添加普通方法、静态方法、抽象方法、构造方法</tspan></text></g><g ed:parentid="228" id="242" ed:height="40" transform="matrix(1,0,0,1,235,520.5)" ed:width="517"><text class="st61"><tspan x="9" textLength="492" y="14.7" style="white-space:pre">如果要为 enum 定义方法，那么必须在 enum 的最后一个实例尾部添加一个分号。此外，在 </tspan><tspan x="9" textLength="468" y="31.7" style="white-space:pre">enum 中，必须先定义实例，不能将字段或方法定义在实例前面。否则，编译器会报错。</tspan></text></g><g ed:parentid="228" id="244" ed:height="23" transform="matrix(1,0,0,1,235,567)" ed:width="117"><text class="st61"><tspan x="9" textLength="96" y="14.7" style="white-space:pre">枚举可以实现接口</tspan></text></g><g ed:parentid="228" id="246" ed:height="23" transform="matrix(1,0,0,1,235,605)" ed:width="105"><text class="st61"><tspan x="9" textLength="84" y="14.7" style="white-space:pre">枚举不可以继承</tspan></text></g><g ed:parentid="246" id="248" ed:height="40" transform="matrix(1,0,0,1,367,596.5)" ed:width="517"><text class="st61"><tspan x="9" textLength="495" y="14.7" style="white-space:pre">因为 enum 实际上都继承自 java.lang.Enum 类，而 Java 不支持多重继承，所以 enum 不能</tspan><tspan x="9" textLength="252" y="31.7" style="white-space:pre">再继承其他类，当然也不能继承另一个 enum。</tspan></text></g><g ed:parentid="180" id="250" ed:height="23" transform="matrix(1,0,0,1,163,716.75)" ed:width="45"><text class="st61"><tspan x="9" textLength="24" y="14.7" style="white-space:pre">应用</tspan></text></g><g ed:parentid="250" id="252" ed:height="23" transform="matrix(1,0,0,1,235,643)" ed:width="69"><text class="st61"><tspan x="9" textLength="48" y="14.7" style="white-space:pre">组织常量</tspan></text></g><g ed:parentid="250" id="254" ed:height="23" transform="matrix(1,0,0,1,235,672.5)" ed:width="96"><text class="st61"><tspan x="9" textLength="75" y="14.7" style="white-space:pre">switch 状态机</tspan></text></g><g ed:parentid="250" id="256" ed:height="23" transform="matrix(1,0,0,1,235,702)" ed:width="57"><text class="st61"><tspan x="9" textLength="36" y="14.7" style="white-space:pre">错误码</tspan></text></g><g ed:parentid="250" id="258" ed:height="23" transform="matrix(1,0,0,1,235,731.5)" ed:width="69"><text class="st61"><tspan x="9" textLength="48" y="14.7" style="white-space:pre">组织枚举</tspan></text></g><g ed:parentid="258" id="260" ed:height="23" transform="matrix(1,0,0,1,331,731.5)" ed:width="441"><text class="st61"><tspan x="9" textLength="420" y="14.7" style="white-space:pre">可以将类型相近的枚举通过接口或类组织起来，但是一般用接口方式进行组织。</tspan></text></g><g ed:parentid="250" id="262" ed:height="23" transform="matrix(1,0,0,1,235,761)" ed:width="69"><text class="st61"><tspan x="9" textLength="48" y="14.7" style="white-space:pre">策略枚举</tspan></text></g><g ed:parentid="262" id="264" ed:height="23" transform="matrix(1,0,0,1,331,761)" ed:width="333"><text class="st61"><tspan x="9" textLength="312" y="14.7" style="white-space:pre">这种枚举通过枚举嵌套枚举的方式，将枚举常量分类处理。</tspan></text></g><g ed:parentid="250" id="266" ed:height="23" transform="matrix(1,0,0,1,235,790.5)" ed:width="117"><text class="st61"><tspan x="9" textLength="96" y="14.7" style="white-space:pre">枚举实现单例模式</tspan></text></g><g ed:parentid="180" id="268" ed:height="23" transform="matrix(1,0,0,1,163,870.63)" ed:width="57"><text class="st61"><tspan x="9" textLength="36" y="14.7" style="white-space:pre">工具类</tspan></text></g><g ed:parentid="268" id="270" ed:height="23" transform="matrix(1,0,0,1,247,834.75)" ed:width="71"><text class="st61"><tspan x="9" textLength="50" y="14.7" style="white-space:pre">EnumSet</tspan></text></g><g ed:parentid="270" id="272" ed:height="23" transform="matrix(1,0,0,1,345,820)" ed:width="191"><text class="st61"><tspan x="9" textLength="170" y="14.7" style="white-space:pre">是枚举类型的高性能 Set 实现。</tspan></text></g><g ed:parentid="270" id="274" ed:height="23" transform="matrix(1,0,0,1,345,849.5)" ed:width="285"><text class="st61"><tspan x="9" textLength="264" y="14.7" style="white-space:pre">它要求放入它的枚举常量必须属于同一枚举类型。</tspan></text></g><g ed:parentid="268" id="276" ed:height="23" transform="matrix(1,0,0,1,247,906.5)" ed:width="80"><text class="st61"><tspan x="9" textLength="59" y="14.7" style="white-space:pre">EnumMap</tspan></text></g><g ed:parentid="276" id="278" ed:height="23" transform="matrix(1,0,0,1,354,879)" ed:width="248"><text class="st61"><tspan x="9" textLength="227" y="14.7" style="white-space:pre">是专门为枚举类型量身定做的 Map 实现。</tspan></text></g><g ed:parentid="276" id="280" ed:height="74" transform="matrix(1,0,0,1,354,908.5)" ed:width="517"><text class="st61"><tspan x="9" textLength="479" y="14.7" style="white-space:pre">虽然使用其它的 Map 实现（如HashMap）也能完成枚举类型实例到值得映射，但是使用 </tspan><tspan x="9" textLength="495" y="31.7" style="white-space:pre">EnumMap 会更加高效：它只能接收同一枚举类型的实例作为键值，并且由于枚举类型实例的</tspan><tspan x="9" textLength="467" y="48.7" style="white-space:pre">数量相对固定并且有限，所以 EnumMap 使用数组来存放与枚举类型对应的值。这使得 </tspan><tspan x="9" textLength="147" y="65.7" style="white-space:pre">EnumMap 的效率非常高。</tspan></text></g><g ed:togtopicid="180" transform="translate(142,489)"><use xlink:href="#minus"/></g><g ed:togtopicid="182" transform="translate(214,104)"><use xlink:href="#minus"/></g><g ed:togtopicid="184" transform="translate(286,37)"><use xlink:href="#minus"/></g><g ed:togtopicid="190" transform="translate(286,82)"><use xlink:href="#minus"/></g><g ed:togtopicid="194" transform="translate(286,111)"><use xlink:href="#minus"/></g><g ed:togtopicid="198" transform="translate(286,141)"><use xlink:href="#minus"/></g><g ed:togtopicid="202" transform="translate(286,170)"><use xlink:href="#minus"/></g><g ed:togtopicid="206" transform="translate(214,259)"><use xlink:href="#minus"/></g><g ed:togtopicid="208" transform="translate(298,200)"><use xlink:href="#minus"/></g><g ed:togtopicid="212" transform="translate(294,229)"><use xlink:href="#minus"/></g><g ed:togtopicid="216" transform="translate(303,259)"><use xlink:href="#minus"/></g><g ed:togtopicid="220" transform="translate(366,288)"><use xlink:href="#minus"/></g><g ed:togtopicid="224" transform="translate(300,318)"><use xlink:href="#minus"/></g><g ed:togtopicid="228" transform="translate(214,478)"><use xlink:href="#minus"/></g><g ed:togtopicid="246" transform="translate(346,609)"><use xlink:href="#minus"/></g><g ed:togtopicid="250" transform="translate(214,720)"><use xlink:href="#minus"/></g><g ed:togtopicid="258" transform="translate(310,735)"><use xlink:href="#minus"/></g><g ed:togtopicid="262" transform="translate(310,765)"><use xlink:href="#minus"/></g><g ed:togtopicid="268" transform="translate(226,874)"><use xlink:href="#minus"/></g><g ed:togtopicid="270" transform="translate(324,838)"><use xlink:href="#minus"/></g><g ed:togtopicid="276" transform="translate(333,910)"><use xlink:href="#minus"/></g><symbol id="plus"><path d="M11,6C11,8.8,8.8,11,6,11C3.2,11,1,8.8,1,6C1,3.2,3.2,1,6,1C8.8,1,11,3.2,11,6z" fill="url(#lg1)"/><path stroke-width="0.7" stroke="#46a000" d="M11,6C11,8.8,8.8,11,6,11C3.2,11,1,8.8,1,6C1,3.2,3.2,1,6,1C8.8,1,11,3.2,11,6zM3,6L9,6M6,3L6,9" fill="none"/></symbol><symbol id="minus"><path d="M11,6C11,8.8,8.8,11,6,11C3.2,11,1,8.8,1,6C1,3.2,3.2,1,6,1C8.8,1,11,3.2,11,6z" fill="url(#lg1)"/><path stroke-width="0.7" stroke="#46a000" d="M11,6C11,8.8,8.8,11,6,11C3.2,11,1,8.8,1,6C1,3.2,3.2,1,6,1C8.8,1,11,3.2,11,6zM3,6L9,6" fill="none"/></symbol></svg>