<svg xmlns:ev="http://www.w3.org/2001/xml-events" width="1043" xmlns:xlink="http://www.w3.org/1999/xlink" height="720" viewBox="0 0 1043 720" xmlns="http://www.w3.org/2000/svg"><defs/><g transform="translate(5.5,5.5)" id="page2"><rect fill="#ffffff" width="1033" height="710" x="0" y="0"/><path fill="#ffffff" id="shape1" d="M.0,.0L1033.0,.0L1033.0,710.0L.0,710.0L.0,.0z" fill-rule="nonzero"/><g transform="translate(44.00,44.62)" id="shape2"><path fill="#b2d4eb" stroke-width="2.666670083999634" stroke="#595959" d="M255.0,65.5L255.0,.0L.0,.0L.0,65.5L255.0,65.5z" fill-rule="nonzero"/><text style="fill:#595959;font-family:微软雅黑;font-size:18.00pt;font-weight:bold" xml:space="preserve"><tspan x="88.0" y="42.3">Object</tspan></text></g><g transform="translate(44.00,263.45)" id="shape3"><path fill="#b2d4eb" stroke-width="2.666670083999634" stroke="#595959" d="M255.0,65.5L255.0,.0L.0,.0L.0,65.5L255.0,65.5z" fill-rule="nonzero"/><text style="fill:#595959;font-family:微软雅黑;font-size:18.00pt;font-weight:bold" xml:space="preserve"><tspan x="83.5" y="42.3">Integer</tspan></text></g><g transform="translate(716.34,44.62)" id="shape4"><path fill="#dcf6d3" stroke-width="2.666670083999634" stroke="#595959" d="M258.0,65.5L258.0,.0L.0,.0L.0,65.5L258.0,65.5z" fill-rule="nonzero"/><text style="fill:#595959;font-family:微软雅黑;font-size:18.00pt;font-weight:bold" xml:space="preserve"><tspan x="50.5" y="42.3">List&lt;Object></tspan></text></g><g transform="translate(716.34,265.23)" id="shape5"><path fill="#dcf6d3" stroke-width="2.666670083999634" stroke="#595959" d="M258.0,65.5L258.0,.0L.0,.0L.0,65.5L258.0,65.5z" fill-rule="nonzero"/><text style="fill:#595959;font-family:微软雅黑;font-size:18.00pt;font-weight:bold" xml:space="preserve"><tspan x="46.0" y="42.3">List&lt;Integer></tspan></text></g><g transform="matrix(0.00,-1.00,1.00,0.00,171.5,263.5)" id="shape6"><path fill="none" stroke-width="2.666670083999634" stroke="#595959" d="M.0,.0L146.1,.0"/><path fill="#595959" stroke-linecap="round" stroke-width="1" stroke="#595959" d="M153.3,.0L144.8,-4.9C145.6,-3.5,146.1,-1.8,146.1,.0C146.1,1.8,145.6,3.5,144.8,4.9L153.3,.0"/></g><g transform="matrix(0.00,-1.00,1.00,0.00,845.3,265.2)" id="shape7"><path fill="none" stroke-width="2.666670083999634" stroke="#595959" d="M.0,.0L147.9,.0"/><path fill="#595959" stroke-linecap="round" stroke-width="1" stroke="#595959" d="M155.1,.0L146.6,-4.9C147.4,-3.5,147.9,-1.8,147.9,.0C147.9,1.8,147.4,3.5,146.6,4.9L155.1,.0"/></g><path fill="#a34950" transform="translate(819.34,161.70)" id="shape8" stroke-width="2.666670083999634" stroke="#595959" d="M52.0,26.0C52.0,33.2,49.5,39.3,44.4,44.4C39.3,49.5,33.2,52.0,26.0,52.0C18.8,52.0,12.7,49.5,7.6,44.4C2.5,39.3,.0,33.2,.0,26.0C.0,18.8,2.5,12.7,7.6,7.6C12.7,2.5,18.8,.0,26.0,.0C33.2,.0,39.3,2.5,44.4,7.6C49.5,12.7,52.0,18.8,52.0,26.0zM47.8,26.0C47.8,20.0,45.7,14.8,41.4,10.6C37.2,6.3,32.0,4.2,26.0,4.2C20.6,4.2,15.9,5.9,11.8,9.4L42.6,40.2C46.1,36.1,47.8,31.4,47.8,26.0zM39.5,43.1L8.8,12.5C5.7,16.4,4.2,20.9,4.2,26.0C4.2,32.0,6.3,37.2,10.6,41.4C14.8,45.7,20.0,47.8,26.0,47.8C31.0,47.8,35.5,46.3,39.5,43.1z" fill-rule="nonzero"/><g transform="translate(377.50,397.00)" id="shape9"><path fill="#b2d4eb" stroke-width="2.666670083999634" stroke="#595959" d="M260.3,65.5L260.3,.0L.0,.0L.0,65.5L260.3,65.5z" fill-rule="nonzero"/><text style="fill:#595959;font-family:微软雅黑;font-size:18.00pt;font-weight:bold" xml:space="preserve"><tspan x="90.7" y="42.3">Object</tspan></text></g><g transform="translate(44.00,577.23)" id="shape10"><path fill="#dcf6d3" stroke-width="2.666670083999634" stroke="#595959" d="M257.7,65.5L257.7,.0L.0,.0L.0,65.5L257.7,65.5z" fill-rule="nonzero"/><text style="fill:#595959;font-family:微软雅黑;font-size:18.00pt;font-weight:bold" xml:space="preserve"><tspan x="50.3" y="42.3">List&lt;Object></tspan></text></g><g transform="translate(725.83,577.23)" id="shape11"><path fill="#dcf6d3" stroke-width="2.666670083999634" stroke="#595959" d="M260.3,65.5L260.3,.0L.0,.0L.0,65.5L260.3,65.5z" fill-rule="nonzero"/><text style="fill:#595959;font-family:微软雅黑;font-size:18.00pt;font-weight:bold" xml:space="preserve"><tspan x="47.2" y="42.3">List&lt;Integer></tspan></text></g><g transform="translate(377.50,265.23)" id="shape12"><path fill="#dcf6d3" stroke-width="2.666670083999634" stroke="#595959" d="M260.3,63.8L260.3,.0L.0,.0L.0,63.8L260.3,63.8z" fill-rule="nonzero"/><text style="fill:#595959;font-family:微软雅黑;font-size:18.00pt;font-weight:bold" xml:space="preserve"><tspan x="14.2" y="41.4">ArrayList&lt;Integer></tspan></text></g><g transform="translate(382.50,44.62)" id="shape13"><path fill="#dcf6d3" stroke-width="2.666670083999634" stroke="#595959" d="M255.3,65.5L255.3,.0L.0,.0L.0,65.5L255.3,65.5z" fill-rule="nonzero"/><text style="fill:#595959;font-family:微软雅黑;font-size:18.00pt;font-weight:bold" xml:space="preserve"><tspan x="44.7" y="42.3">List&lt;Integer></tspan></text></g><g transform="translate(172.83,577.23)" id="shape14"><path fill="none" stroke-width="2.666670083999634" stroke="#595959" d="M.0,.0L.0,-47.2L334.8,-47.2L334.8,-107.5"/><path fill="#595959" stroke-linecap="round" stroke-width="1" stroke="#595959" d="M334.8,-114.7L329.9,-106.2C331.4,-107.0,333.0,-107.5,334.8,-107.5C336.6,-107.5,338.3,-107.0,339.7,-106.2L334.8,-114.7"/></g><g transform="translate(856.00,577.23)" id="shape15"><path fill="none" stroke-width="2.666670083999634" stroke="#595959" d="M.0,.0L.0,-47.2L-348.3,-47.2L-348.3,-107.5"/><path fill="#595959" stroke-linecap="round" stroke-width="1" stroke="#595959" d="M-348.3,-114.7L-353.2,-106.2C-351.8,-107.0,-350.1,-107.5,-348.3,-107.5C-346.5,-107.5,-344.9,-107.0,-343.4,-106.2L-348.3,-114.7"/></g><g transform="matrix(0.00,-1.00,1.00,0.00,507.7,265.2)" id="shape16"><path fill="none" stroke-width="2.666670083999634" stroke="#595959" d="M.0,.0L146.1,.0"/><path fill="#595959" stroke-linecap="round" stroke-width="1" stroke="#595959" d="M153.3,.0L144.8,-4.9C145.6,-3.5,146.1,-1.8,146.1,.0C146.1,1.8,145.6,3.5,144.8,4.9L153.3,.0"/></g></g></svg>