<svg height="267" xmlns:xlink="http://www.w3.org/1999/xlink" width="910" xmlns="http://www.w3.org/2000/svg" viewBox="0 0 910 267"><defs/><g transform="translate(-187.50,-225.50)"><path fill-rule="nonzero" stroke="#424f88" transform="translate(189.00,227.00)" stroke-width="3" id="shape1" fill="#ffffff" d="M340.0,118.0L340.0,.0L.0,.0L.0,118.0L340.0,118.0z"/><g transform="translate(299.00,235.00)" id="shape2"><text xml:space="preserve" style="fill:#454545;font-family:微软雅黑;font-size:10.00pt"><tspan y="20.5" x="19.0">Bean配置信息</tspan></text></g><g transform="translate(196.00,272.50)" id="shape3"><path fill-rule="nonzero" stroke="#424f88" stroke-width="3" fill="#ffffff" d="M.0,30.0C.0,13.4,22.4,.0,50.0,.0C77.6,.0,100.0,13.4,100.0,30.0C100.0,46.6,77.6,60.0,50.0,60.0C22.4,60.0,.0,46.6,.0,30.0z"/><text xml:space="preserve" style="fill:#424f88;font-family:微软雅黑;font-size:10.00pt"><tspan y="26.0" x="36.0">XML</tspan><tspan y="45.0" x="25.0">&lt;bean></tspan></text></g><g transform="translate(302.00,272.50)" id="shape4"><path fill-rule="nonzero" stroke="#424f88" stroke-width="3" fill="#ffffff" d="M.0,30.0C.0,13.4,24.4,.0,54.5,.0C84.6,.0,109.0,13.4,109.0,30.0C109.0,46.6,84.6,60.0,54.5,60.0C24.4,60.0,.0,46.6,.0,30.0z"/><text xml:space="preserve" style="fill:#424f88;font-family:微软雅黑;font-size:10.00pt"><tspan y="26.0" x="35.0">Java类</tspan><tspan y="45.0" x="5.5">@Configuration</tspan></text></g><g transform="translate(419.00,272.50)" id="shape5"><path fill-rule="nonzero" stroke="#424f88" stroke-width="3" fill="#ffffff" d="M.0,30.0C.0,13.4,22.4,.0,50.0,.0C77.6,.0,100.0,13.4,100.0,30.0C100.0,46.6,77.6,60.0,50.0,60.0C22.4,60.0,.0,46.6,.0,30.0z"/><text xml:space="preserve" style="fill:#424f88;font-family:微软雅黑;font-size:10.00pt"><tspan y="26.0" x="37.0">注解</tspan><tspan y="45.0" x="13.5">@Autowrite</tspan></text></g><path fill-rule="nonzero" stroke="#424f88" transform="translate(189.00,373.00)" stroke-width="3" id="shape6" fill="#ffffff" d="M340.0,118.0L340.0,.0L.0,.0L.0,118.0L340.0,118.0z"/><g transform="translate(296.50,381.85)" id="shape7"><text xml:space="preserve" style="fill:#454545;font-family:微软雅黑;font-size:10.00pt"><tspan y="20.5" x="25.5">Bean实现类</tspan></text></g><g transform="translate(216.00,416.00)" id="shape8"><path fill-rule="nonzero" stroke="#424f88" stroke-width="3" fill="#ffffff" d="M.0,30.0C.0,13.4,13.4,.0,30.0,.0C46.6,.0,60.0,13.4,60.0,30.0C60.0,46.6,46.6,60.0,30.0,60.0C13.4,60.0,.0,46.6,.0,30.0z"/><text xml:space="preserve" style="fill:#424f88;font-family:微软雅黑;font-size:10.00pt"><tspan y="35.5" x="11.0">Bean1</tspan></text></g><g transform="translate(326.50,416.00)" id="shape9"><path fill-rule="nonzero" stroke="#424f88" stroke-width="3" fill="#ffffff" d="M.0,30.0C.0,13.4,13.4,.0,30.0,.0C46.6,.0,60.0,13.4,60.0,30.0C60.0,46.6,46.6,60.0,30.0,60.0C13.4,60.0,.0,46.6,.0,30.0z"/><text xml:space="preserve" style="fill:#424f88;font-family:微软雅黑;font-size:10.00pt"><tspan y="35.5" x="11.0">Bean2</tspan></text></g><g transform="translate(439.00,416.00)" id="shape10"><path fill-rule="nonzero" stroke="#424f88" stroke-width="3" fill="#ffffff" d="M.0,30.0C.0,13.4,13.4,.0,30.0,.0C46.6,.0,60.0,13.4,60.0,30.0C60.0,46.6,46.6,60.0,30.0,60.0C13.4,60.0,.0,46.6,.0,30.0z"/><text xml:space="preserve" style="fill:#424f88;font-family:微软雅黑;font-size:10.00pt"><tspan y="35.5" x="25.5">...</tspan></text></g><g transform="translate(1065.50,364.50)" id="shape11"><path fill-rule="nonzero" stroke="#424f88" stroke-width="3" fill="#ffffff" d="M30.5,109.0L30.5,.0L.0,.0L.0,109.0L30.5,109.0z"/><text xml:space="preserve" style="fill:#424f88;font-family:微软雅黑;font-size:10.00pt"><tspan y="31.5" x="8.7">应</tspan><tspan y="50.5" x="8.7">用</tspan><tspan y="69.5" x="8.7">程</tspan><tspan y="88.5" x="8.7">序</tspan></text></g><path fill-rule="nonzero" stroke="#424f88" transform="translate(709.00,227.00)" stroke-width="3" id="shape12" fill="#ffffff" d="M294.0,264.0L294.0,.0L.0,.0L.0,264.0L294.0,264.0z"/><g transform="translate(796.00,235.00)" id="shape13"><text xml:space="preserve" style="fill:#454545;font-family:微软雅黑;font-size:10.00pt"><tspan y="20.5" x="27.0">Spring容器</tspan></text></g><path fill-rule="nonzero" stroke="#424f88" transform="translate(730.00,283.00)" stroke-width="3" id="shape14" fill="#ffffff" d="M120.0,120.0L120.0,.0L.0,.0L.0,120.0L120.0,120.0z"/><g transform="translate(743.00,312.00)" id="group15"><path fill-rule="nonzero" stroke="#000000" transform="translate(0.00,31.65)" stroke-width="1" id="shape16" fill="#ffffff" d="M.0,.0L95.0,.0L95.0,15.8L.0,15.8L.0,.0z"/><path fill-rule="nonzero" stroke="#000000" transform="translate(0.00,15.82)" stroke-width="1" id="shape17" fill="#ffffff" d="M.0,.0L95.0,.0L95.0,15.8L.0,15.8L.0,.0z"/><path fill-rule="nonzero" stroke="#000000" transform="translate(0.00,63.30)" stroke-width="1" id="shape18" fill="#ffffff" d="M.0,.0L95.0,.0L95.0,15.8L.0,15.8L.0,.0z"/><path fill-rule="nonzero" stroke="#000000" transform="translate(0.00,47.47)" stroke-width="1" id="shape19" fill="#ffffff" d="M.0,.0L95.0,.0L95.0,15.8L.0,15.8L.0,.0z"/><path fill-rule="nonzero" stroke="#000000" stroke-width="1" id="shape20" fill="#ffffff" d="M.0,.0L95.0,.0L95.0,15.8L.0,15.8L.0,.0z"/></g><g transform="translate(730.00,283.00)" id="shape21"><text xml:space="preserve" style="fill:#454545;font-family:微软雅黑;font-size:10.00pt"><tspan y="20.5" x="12.5">Bean定义注册表</tspan></text></g><path fill-rule="nonzero" stroke="#424f88" transform="translate(869.00,359.00)" stroke-width="3" id="shape22" fill="#ffffff" d="M120.0,120.0L120.0,.0L.0,.0L.0,120.0L120.0,120.0z"/><g transform="translate(882.00,388.00)" id="group23"><path fill-rule="nonzero" stroke="#000000" transform="translate(0.00,31.65)" stroke-width="1" id="shape24" fill="#ffffff" d="M.0,.0L95.0,.0L95.0,15.8L.0,15.8L.0,.0z"/><path fill-rule="nonzero" stroke="#000000" transform="translate(0.00,15.82)" stroke-width="1" id="shape25" fill="#ffffff" d="M.0,.0L95.0,.0L95.0,15.8L.0,15.8L.0,.0z"/><path fill-rule="nonzero" stroke="#000000" transform="translate(0.00,63.30)" stroke-width="1" id="shape26" fill="#ffffff" d="M.0,.0L95.0,.0L95.0,15.8L.0,15.8L.0,.0z"/><path fill-rule="nonzero" stroke="#000000" transform="translate(0.00,47.47)" stroke-width="1" id="shape27" fill="#ffffff" d="M.0,.0L95.0,.0L95.0,15.8L.0,15.8L.0,.0z"/><path fill-rule="nonzero" stroke="#000000" stroke-width="1" id="shape28" fill="#ffffff" d="M.0,.0L95.0,.0L95.0,15.8L.0,15.8L.0,.0z"/></g><g transform="translate(869.00,359.00)" id="shape29"><text xml:space="preserve" style="fill:#454545;font-family:微软雅黑;font-size:10.00pt"><tspan y="20.5" x="25.5">Bean缓存池</tspan></text></g><g transform="translate(548.00,254.50)" id="shape30"><path fill-rule="nonzero" stroke="#424f88" stroke-width="3" fill="#ffffff" d="M.0,8.6L118.3,8.6L118.3,.0L142.0,23.8L118.3,47.5L118.3,39.0L.0,39.0L.0,8.6z"/><text xml:space="preserve" style="fill:#424f88;font-family:微软雅黑;font-size:10.00pt"><tspan y="29.3" x="5.1">读取Bean配置信息</tspan></text></g><g transform="translate(515.00,435.00)" id="shape31"><path stroke="#424f88" stroke-width="1" d="M.0,.0C-0.4,-1.4,-0.8,-2.8,23.4,9.8C47.6,22.3,96.3,48.7,155.5,49.9C213.3,51.0,281.2,27.9,349.3,4.4" fill="none"/><path stroke="#424f88" stroke-width="1" stroke-linecap="round" fill="#424f88" d="M347.3,1.8L354.0,2.7L349.3,7.5L347.3,1.8"/></g><g transform="translate(730.00,343.00)" id="shape32"><path stroke="#424f88" stroke-width="1" d="M.0,.0C-28.1,-1.9,-56.2,-3.7,-81.4,-1.4C-106.5,.9,-128.7,7.4,-151.3,18.9C-172.5,29.6,-194.1,44.6,-215.7,60.0" fill="none"/><path stroke="#424f88" stroke-width="1" stroke-linecap="round" fill="#424f88" d="M-213.4,62.0L-220.0,63.0L-216.8,57.1L-213.4,62.0"/></g><g transform="translate(581.26,349.00)" id="shape33"><text xml:space="preserve" style="fill:#454545;font-family:微软雅黑;font-size:10.00pt"><tspan y="23.0" x="6.0">根据Bean注册表实</tspan><tspan y="42.0" x="32.0">例化Bean</tspan></text></g><g transform="translate(581.26,425.85)" id="shape34"><text xml:space="preserve" style="fill:#454545;font-family:微软雅黑;font-size:10.00pt"><tspan y="23.0" x="12.5">将Bean实例放到</tspan><tspan y="42.0" x="20.5">Spring容器中</tspan></text></g><g transform="translate(1065.50,419.00)" id="shape35"><path stroke="#424f88" stroke-width="1" d="M.0,.0L-70.0,.0" fill="none"/><path stroke="#424f88" stroke-width="1" stroke-linecap="round" fill="#424f88" d="M-70.0,3.0L-76.0,.0L-70.0,-3.0L-70.0,3.0"/></g></g></svg>