<svg height="450" xmlns:xlink="http://www.w3.org/1999/xlink" width="746" xmlns="http://www.w3.org/2000/svg" viewBox="0 0 746 450"><defs/><g transform="translate(-248.00,-244.00)"><g transform="translate(501.00,245.50)" id="shape1"><path fill-rule="nonzero" stroke="#424f88" stroke-width="3" fill="#ffffff" d="M100.0,49.0L100.0,.0L.0,.0L.0,49.0L100.0,49.0z"/><text xml:space="preserve" style="fill:#424f88;font-family:微软雅黑;font-size:10.00pt"><tspan y="30.0" x="12.0">BeanFactory</tspan></text></g><g transform="translate(259.00,347.50)" id="shape2"><path fill-rule="nonzero" stroke="#424f88" stroke-width="3" fill="#ffffff" d="M138.0,49.0L138.0,.0L.0,.0L.0,49.0L138.0,49.0z"/><text xml:space="preserve" style="fill:#424f88;font-family:微软雅黑;font-size:10.00pt"><tspan y="30.0" x="8.0">ListableBeanFactory</tspan></text></g><g transform="translate(469.50,347.50)" id="shape3"><path fill-rule="nonzero" stroke="#424f88" stroke-width="3" fill="#ffffff" d="M163.0,49.0L163.0,.0L.0,.0L.0,49.0L163.0,49.0z"/><text xml:space="preserve" style="fill:#424f88;font-family:微软雅黑;font-size:10.00pt"><tspan y="30.0" x="7.5">HierarchicalBeanFactory</tspan></text></g><g transform="translate(469.50,431.00)" id="shape4"><path fill-rule="nonzero" stroke="#424f88" stroke-width="3" fill="#ffffff" d="M163.0,49.0L163.0,.0L.0,.0L.0,49.0L163.0,49.0z"/><text xml:space="preserve" style="fill:#424f88;font-family:微软雅黑;font-size:10.00pt"><tspan y="30.0" x="4.0">ConfigurableBeanFactory</tspan></text></g><g transform="translate(773.00,431.00)" id="shape5"><path fill-rule="nonzero" stroke="#424f88" stroke-width="3" fill="#ffffff" d="M190.0,49.0L190.0,.0L.0,.0L.0,49.0L190.0,49.0z"/><text xml:space="preserve" style="fill:#424f88;font-family:微软雅黑;font-size:10.00pt"><tspan y="30.0" x="5.0">AutowireCapableBeanFactory</tspan></text></g><g transform="translate(281.00,542.50)" id="shape6"><path fill-rule="nonzero" stroke="#424f88" stroke-width="3" fill="#ffffff" d="M210.0,49.0L210.0,.0L.0,.0L.0,49.0L210.0,49.0z"/><text xml:space="preserve" style="fill:#424f88;font-family:微软雅黑;font-size:10.00pt"><tspan y="30.0" x="4.5">ConfigurableListableBeanFactory</tspan></text></g><g transform="translate(744.00,545.75)" id="shape7"><path fill-rule="nonzero" stroke="#424f88" stroke-width="3" fill="#ffffff" d="M248.0,42.5L248.0,.0L.0,.0L.0,42.5L248.0,42.5z"/><text xml:space="preserve" style="fill:#424f88;font-family:微软雅黑;font-size:10.00pt"><tspan y="26.8" x="8.0">AbstractAutowireCapableBeanFactory</tspan></text></g><g transform="translate(459.00,643.00)" id="shape8"><path fill-rule="nonzero" stroke="#424f88" stroke-width="3" fill="#ffffff" d="M184.0,49.0L184.0,.0L.0,.0L.0,49.0L184.0,49.0z"/><text xml:space="preserve" style="fill:#424f88;font-family:微软雅黑;font-size:10.00pt"><tspan y="30.0" x="5.0">DefaultListal bleBeanFactory</tspan></text></g><g transform="translate(328.00,347.50)" id="shape9"><path stroke="#424f88" stroke-width="1" d="M.0,.0L.0,-27.0L223.0,-27.0L223.0,-47.0" fill="none"/><path stroke="#424f88" stroke-width="1" stroke-linecap="round" fill="#424f88" d="M220.0,-47.0L223.0,-53.0L226.0,-47.0L220.0,-47.0"/></g><g transform="translate(551.00,347.50)" id="shape10"><path stroke="#424f88" stroke-width="1" d="M.0,.0L.0,-47.0" fill="none"/><path stroke="#424f88" stroke-width="1" stroke-linecap="round" fill="#424f88" d="M-3.0,-47.0L.0,-53.0L3.0,-47.0L-3.0,-47.0"/></g><g transform="translate(868.00,431.00)" id="shape11"><path stroke="#424f88" stroke-width="1" d="M.0,.0L.0,-110.0L-317.0,-110.0L-317.0,-130.5" fill="none"/><path stroke="#424f88" stroke-width="1" stroke-linecap="round" fill="#424f88" d="M-320.0,-130.5L-317.0,-136.5L-314.0,-130.5L-320.0,-130.5"/></g><g transform="translate(551.00,431.00)" id="shape12"><path stroke="#424f88" stroke-width="1" d="M.0,.0L.0,-29.0" fill="none"/><path stroke="#424f88" stroke-width="1" stroke-linecap="round" fill="#424f88" d="M-3.0,-29.0L.0,-35.0L3.0,-29.0L-3.0,-29.0"/></g><g transform="translate(551.00,643.00)" id="shape13"><path stroke="#424f88" stroke-width="1" d="M.0,.0L.0,-28.0L317.0,-28.0L317.0,-48.0" fill="none"/><path stroke="#424f88" stroke-width="1" stroke-linecap="round" fill="#424f88" d="M314.0,-48.0L317.0,-54.0L320.0,-48.0L314.0,-48.0"/></g><g transform="translate(551.00,643.00)" id="shape14"><path stroke="#424f88" stroke-dasharray="2.5,2.5" stroke-width="1.333330035209656" d="M.0,.0L.0,-29.0L-165.0,-29.0L-165.0,-44.6" fill="none"/><path stroke="#424f88" stroke-width="1" stroke-linecap="round" fill="#424f88" d="M-168.5,-44.6L-165.0,-51.5L-161.5,-44.6L-168.5,-44.6"/></g><g transform="translate(281.00,567.00)" id="shape15"><path stroke="#424f88" stroke-width="1" d="M.0,.0L-28.0,.0L-28.0,-143.0L47.0,-143.0L47.0,-165.0" fill="none"/><path stroke="#424f88" stroke-width="1" stroke-linecap="round" fill="#424f88" d="M44.0,-165.0L47.0,-171.0L50.0,-165.0L44.0,-165.0"/></g><g transform="translate(744.00,567.00)" id="shape16"><path stroke="#424f88" stroke-dasharray="2.5,2.5" stroke-width="1.333330035209656" d="M.0,.0L-169.0,.0L-169.0,-80.1" fill="none"/><path stroke="#424f88" stroke-width="1" stroke-linecap="round" fill="#424f88" d="M-172.5,-80.1L-169.0,-87.0L-165.5,-80.1L-172.5,-80.1"/></g><g transform="translate(438.08,542.50)" id="shape17"><path stroke="#424f88" stroke-width="1" d="M.0,.0L.0,-22.0L130.9,-22.0C130.9,-25.3,133.6,-28.0,136.9,-28.0C140.2,-28.0,142.9,-25.3,142.9,-22.0L429.9,-22.0L429.9,-56.5" fill="none"/><path stroke="#424f88" stroke-width="1" stroke-linecap="round" fill="#424f88" d="M426.9,-56.5L429.9,-62.5L432.9,-56.5L426.9,-56.5"/></g><g transform="translate(424.00,542.00)" id="shape18"><path stroke="#424f88" stroke-width="1" d="M.0,.0L.0,-34.0L126.0,-34.0L126.0,-56.0" fill="none"/><path stroke="#424f88" stroke-width="1" stroke-linecap="round" fill="#424f88" d="M123.0,-56.0L126.0,-62.0L129.0,-56.0L123.0,-56.0"/></g></g></svg>