<svg xmlns:xlink="http://www.w3.org/1999/xlink" viewBox="0 0 1227 779" xmlns="http://www.w3.org/2000/svg" width="1227" height="779"><defs/><g transform="translate(-30.97,-97.00)"><g id="shape1" transform="translate(145.50,102.00)"><path fill-rule="nonzero" d="M239.0,73.0L239.0,.0L.0,.0L.0,73.0L239.0,73.0z" stroke="#424f88" fill="#ffffff" stroke-width="3"/><text xml:space="preserve" style="fill:#424f88;font-family:微软雅黑;font-size:10.00pt"><tspan x="9.5" y="23.0">容器加载完配置中的BeanDefinition后</tspan><tspan x="6.5" y="42.0">BeanDefinitionRegistryPostProcessor</tspan><tspan x="9.0" y="61.0">postProcessBeanDefinitionRegistry()</tspan></text></g><g id="shape2" transform="translate(384.50,138.50)"><path stroke="#424f88" d="M.0,.0L38.0,.0" fill="none" stroke-width="1"/><path stroke="#424f88" d="M38.0,-3.0L44.0,.0L38.0,3.0L38.0,-3.0" stroke-linecap="round" fill="#424f88" stroke-width="1"/></g><g id="shape3" transform="translate(428.00,98.50)"><path fill-rule="nonzero" d="M207.5,80.0L207.5,.0L.0,.0L.0,80.0L207.5,80.0z" stroke="#424f88" fill="#ffffff" stroke-width="3"/><text xml:space="preserve" style="fill:#424f88;font-family:微软雅黑;font-size:10.00pt"><tspan x="8.3" y="26.5">处理完BeanDefinitionRegistry后</tspan><tspan x="22.3" y="45.5">BeanFactoryPostProcessor</tspan><tspan x="24.8" y="64.5">postProcessBeanFactory()</tspan></text></g><g id="shape4" transform="translate(635.50,138.50)"><path stroke="#424f88" d="M.0,.0L38.0,.0" fill="none" stroke-width="1"/><path stroke="#424f88" d="M38.0,-3.0L44.0,.0L38.0,3.0L38.0,-3.0" stroke-linecap="round" fill="#424f88" stroke-width="1"/></g><g id="shape5" transform="translate(679.00,104.50)"><path fill-rule="nonzero" d="M266.0,68.0L266.0,.0L.0,.0L.0,68.0L266.0,68.0z" stroke="#424f88" fill="#ffffff" stroke-width="3"/><text xml:space="preserve" style="fill:#424f88;font-family:微软雅黑;font-size:10.00pt"><tspan x="5.5" y="20.5">初始化bean前，尝试从接口方法中生成bean</tspan><tspan x="18.5" y="39.5">lnstantiationkwareBeanPostProcessor</tspan><tspan x="34.0" y="58.5">postProcessBeforelnstantiation()</tspan></text></g><g id="shape6" transform="translate(794.00,118.00)"><path stroke="#424f88" d="M.0,.0L.0,13.0" fill="none" stroke-width="1"/><path stroke="#424f88" d="M3.0,13.0L.0,19.0L-3.0,13.0L3.0,13.0" stroke-linecap="round" fill="#424f88" stroke-width="1"/></g><g id="shape7" transform="translate(945.00,138.50)"><path stroke="#424f88" d="M.0,.0L54.0,.0" fill="none" stroke-width="1"/><path stroke="#424f88" d="M54.0,-3.0L60.0,.0L54.0,3.0L54.0,-3.0" stroke-linecap="round" fill="#424f88" stroke-width="1"/></g><g id="shape8" transform="translate(1005.00,104.50)"><path fill-rule="nonzero" d="M134.0,68.0L134.0,.0L.0,.0L.0,68.0L134.0,68.0z" stroke="#424f88" fill="#ffffff" stroke-width="3"/><text xml:space="preserve" style="fill:#424f88;font-family:微软雅黑;font-size:10.00pt"><tspan x="32.5" y="30.0">初始化bean</tspan><tspan x="6.5" y="49.0">调用bean的构造函数</tspan></text></g><g id="shape9" transform="translate(136.00,255.50)"><path fill-rule="nonzero" d="M258.0,93.0L258.0,.0L.0,.0L.0,93.0L258.0,93.0z" stroke="#424f88" fill="#ffffff" stroke-width="3"/><text xml:space="preserve" style="fill:#424f88;font-family:微软雅黑;font-size:10.00pt"><tspan x="55.5" y="23.5">bean执行初始化方法之前</tspan><tspan x="8.0" y="42.5">(默认的应用上下文注入在这里第一个执行)</tspan><tspan x="70.5" y="61.5">BeanPostProcessor</tspan><tspan x="32.0" y="80.5">postProcessBeforelnitialization()</tspan></text></g><g id="shape10" transform="translate(394.00,302.00)"><path stroke="#424f88" d="M.0,.0L54.0,.0" fill="none" stroke-width="1"/><path stroke="#424f88" d="M54.0,-3.0L60.0,.0L54.0,3.0L54.0,-3.0" stroke-linecap="round" fill="#424f88" stroke-width="1"/></g><g id="shape11" transform="translate(454.00,255.50)"><path fill-rule="nonzero" d="M170.0,93.0L170.0,.0L.0,.0L.0,93.0L170.0,93.0z" stroke="#424f88" fill="#ffffff" stroke-width="3"/><text xml:space="preserve" style="fill:#424f88;font-family:微软雅黑;font-size:10.00pt"><tspan x="24.5" y="23.5">调用bean的接口实现</tspan><tspan x="26.0" y="42.5">BeanNameAware或</tspan><tspan x="8.0" y="61.5">BeanClassLoaderAware或</tspan><tspan x="28.0" y="80.5">BeanFactoryAware</tspan></text></g><g id="shape12" transform="translate(624.00,302.00)"><path stroke="#424f88" d="M.0,.0L58.0,.0" fill="none" stroke-width="1"/><path stroke="#424f88" d="M58.0,-3.0L64.0,.0L58.0,3.0L58.0,-3.0" stroke-linecap="round" fill="#424f88" stroke-width="1"/></g><g id="shape13" transform="translate(688.50,268.00)"><path fill-rule="nonzero" d="M247.0,68.0L247.0,.0L.0,.0L.0,68.0L247.0,68.0z" stroke="#424f88" fill="#ffffff" stroke-width="3"/><text xml:space="preserve" style="fill:#424f88;font-family:微软雅黑;font-size:10.00pt"><tspan x="18.0" y="20.5">实例化完成后执行,决定是否填充属性</tspan><tspan x="7.5" y="39.5">lnstantiationAwareBeanPostProoessor</tspan><tspan x="31.0" y="58.5">postProcessAfter lnstantiation</tspan></text></g><g id="shape14" transform="translate(935.50,302.00)"><path stroke="#424f88" d="M.0,.0L18.5,.0C18.5,-3.3,21.2,-6.0,24.5,-6.0C27.8,-6.0,30.5,-3.3,30.5,.0L54.0,.0" fill="none" stroke-width="1"/><path stroke="#424f88" d="M54.0,-3.0L60.0,.0L54.0,3.0L54.0,-3.0" stroke-linecap="round" fill="#424f88" stroke-width="1"/></g><g id="shape15" transform="translate(995.50,268.00)"><path fill-rule="nonzero" d="M157.5,68.0L157.5,.0L.0,.0L.0,68.0L157.5,68.0z" stroke="#424f88" fill="#ffffff" stroke-width="3"/><text xml:space="preserve" style="fill:#424f88;font-family:微软雅黑;font-size:10.00pt"><tspan x="46.3" y="30.0">设置属性值</tspan><tspan x="5.3" y="49.0">根据bean定义准备属性值</tspan></text></g><g id="shape16" transform="translate(136.00,437.50)"><path fill-rule="nonzero" d="M289.0,72.5L289.0,.0L.0,.0L.0,72.5L289.0,72.5z" stroke="#424f88" fill="#ffffff" stroke-width="3"/><text xml:space="preserve" style="fill:#424f88;font-family:微软雅黑;font-size:10.00pt"><tspan x="8.0" y="22.8">得到属性值后，添加修改属性值，之后填充属性</tspan><tspan x="29.0" y="41.8">lnstantiationAwareBeanPostProcessor</tspan><tspan x="57.0" y="60.8">postProcessPropertyValues()</tspan></text></g><g id="shape17" transform="translate(425.00,473.75)"><path stroke="#424f88" d="M.0,.0L54.0,.0" fill="none" stroke-width="1"/><path stroke="#424f88" d="M54.0,-3.0L60.0,.0L54.0,3.0L54.0,-3.0" stroke-linecap="round" fill="#424f88" stroke-width="1"/></g><g id="shape18" transform="translate(485.00,437.50)"><path fill-rule="nonzero" d="M129.0,72.5L129.0,.0L.0,.0L.0,72.5L129.0,72.5z" stroke="#424f88" fill="#ffffff" stroke-width="3"/><text xml:space="preserve" style="fill:#424f88;font-family:微软雅黑;font-size:10.00pt"><tspan x="4.0" y="22.8">调用bean的接口实现</tspan><tspan x="19.5" y="41.8">lnitializingBean</tspan><tspan x="5.0" y="60.8">afterPropertiesSet()</tspan></text></g><g id="shape19" transform="translate(614.00,473.00)"><path stroke="#424f88" d="M.0,.0L54.0,.0" fill="none" stroke-width="1"/><path stroke="#424f88" d="M54.0,-3.0L60.0,.0L54.0,3.0L54.0,-3.0" stroke-linecap="round" fill="#424f88" stroke-width="1"/></g><g id="shape20" transform="translate(674.00,437.50)"><path fill-rule="nonzero" d="M129.0,72.5L129.0,.0L.0,.0L.0,72.5L129.0,72.5z" stroke="#424f88" fill="#ffffff" stroke-width="3"/><text xml:space="preserve" style="fill:#424f88;font-family:微软雅黑;font-size:10.00pt"><tspan x="36.5" y="32.5">执行bean</tspan><tspan x="15.0" y="51.5">init-method方法</tspan></text></g><g id="shape21" transform="translate(803.00,473.75)"><path stroke="#424f88" d="M.0,.0L54.0,.0" fill="none" stroke-width="1"/><path stroke="#424f88" d="M54.0,-3.0L60.0,.0L54.0,3.0L54.0,-3.0" stroke-linecap="round" fill="#424f88" stroke-width="1"/></g><g id="shape22" transform="translate(863.00,436.75)"><path fill-rule="nonzero" d="M195.0,72.5L195.0,.0L.0,.0L.0,72.5L195.0,72.5z" stroke="#424f88" fill="#ffffff" stroke-width="3"/><text xml:space="preserve" style="fill:#424f88;font-family:微软雅黑;font-size:10.00pt"><tspan x="24.0" y="23.0">bean执行初始化方法之后</tspan><tspan x="38.5" y="42.0">BeanPostProceasor</tspan><tspan x="4.5" y="61.0">postProoessAfterlnitialization()</tspan></text></g><g id="shape23" transform="translate(500.75,598.00)"><path fill-rule="nonzero" d="M246.5,73.0L246.5,.0L.0,.0L.0,73.0L246.5,73.0z" stroke="#424f88" fill="#ffffff" stroke-width="3"/><text xml:space="preserve" style="fill:#424f88;font-family:微软雅黑;font-size:10.00pt"><tspan x="19.3" y="42.0">初始化完成，业务模块可以正常调用</tspan></text></g><path id="shape24" fill-rule="nonzero" d="M368.3,137.0L368.3,.0L.0,.0L.0,137.0L368.3,137.0z" stroke="#424f88" fill="#ffffff" transform="translate(485.00,737.00)" stroke-width="3"/><g id="shape25" transform="translate(609.17,745.00)"><text xml:space="preserve" style="fill:#454545;font-family:微软雅黑;font-size:10.00pt"><tspan x="27.5" y="20.5">容器销毁时</tspan></text></g><g id="shape26" transform="translate(518.50,784.00)"><path fill-rule="nonzero" d="M135.0,76.0L135.0,.0L.0,.0L.0,76.0L135.0,76.0z" stroke="#424f88" fill="#ffffff" stroke-width="3"/><text xml:space="preserve" style="fill:#424f88;font-family:微软雅黑;font-size:10.00pt"><tspan x="7.0" y="24.5">调用bean的接口实现</tspan><tspan x="21.5" y="43.5">DisposibleBean</tspan><tspan x="40.5" y="62.5">destroy()</tspan></text></g><g id="shape27" transform="translate(694.00,785.50)"><path fill-rule="nonzero" d="M135.0,73.0L135.0,.0L.0,.0L.0,73.0L135.0,73.0z" stroke="#424f88" fill="#ffffff" stroke-width="3"/><text xml:space="preserve" style="fill:#424f88;font-family:微软雅黑;font-size:10.00pt"><tspan x="39.5" y="32.5">执行bean</tspan><tspan x="8.5" y="51.5">destry-method方法</tspan></text></g><g id="shape28" transform="translate(653.00,822.00)"><path stroke="#424f88" d="M.0,.0L35.0,.0" fill="none" stroke-width="1"/><path stroke="#424f88" d="M35.0,-3.0L41.0,.0L35.0,3.0L35.0,-3.0" stroke-linecap="round" fill="#424f88" stroke-width="1"/></g><g id="shape29" transform="translate(1153.00,302.00)"><path stroke="#424f88" d="M.0,.0C91.6,2.8,183.1,5.6,-32.2,32.9C-247.4,60.1,-769.6,111.7,-984.8,138.9C-1196.0,165.6,-1112.0,168.8,-1022.3,171.6" fill="none" stroke-width="1"/><path stroke="#424f88" d="M-1022.9,168.6L-1017.0,171.8L-1023.1,174.6L-1022.9,168.6" stroke-linecap="round" fill="#424f88" stroke-width="1"/></g><g id="shape30" transform="translate(1139.00,138.50)"><path stroke="#424f88" d="M.0,.0C90.3,2.7,180.6,5.4,-31.7,31.3C-244.0,57.2,-759.0,106.3,-971.3,132.2C-1180.1,157.7,-1096.2,160.7,-1007.4,163.4" fill="none" stroke-width="1"/><path stroke="#424f88" d="M-1008.9,160.3L-1003.0,163.5L-1009.1,166.3L-1008.9,160.3" stroke-linecap="round" fill="#424f88" stroke-width="1"/></g><g id="shape31" transform="translate(812.00,172.50)"><path stroke="#424f88" d="M.0,.0L.0,68.0L148.0,68.0L148.0,258.0" fill="none" stroke-width="1"/><path stroke="#424f88" d="M151.0,258.0L148.0,264.0L145.0,258.0L151.0,258.0" stroke-linecap="round" fill="#424f88" stroke-width="1"/><rect x="22.4" y="58.5" fill="#ffffff" width="95.0" height="19.0"/><text xml:space="preserve" style="fill:#2e3862;font-family:微软雅黑;font-size:10.00pt"><tspan x="22.4" y="73.5">如果生成了bean</tspan></text></g><g id="shape32" transform="translate(1058.00,473.00)"><path stroke="#424f88" d="M.0,.0L28.0,.0L28.0,97.0L-586.0,97.0L-586.0,161.0L-564.0,161.0" fill="none" stroke-width="1"/><path stroke="#424f88" d="M-564.0,158.0L-558.0,161.0L-564.0,164.0L-564.0,158.0" stroke-linecap="round" fill="#424f88" stroke-width="1"/></g><g id="shape33" transform="translate(748.00,634.00)"><path stroke="#424f88" d="M.0,.0L26.0,.0L26.0,75.0L-291.0,75.0L-291.0,171.0L-269.0,171.0" fill="none" stroke-width="1"/><path stroke="#424f88" d="M-269.0,168.0L-263.0,171.0L-269.0,174.0L-269.0,168.0" stroke-linecap="round" fill="#424f88" stroke-width="1"/></g><g id="shape34" transform="translate(485.00,805.50)"><path stroke="#424f88" d="M.0,.0C4.9,-2.5,9.8,-5.0,14.0,-4.5C18.2,-4.0,21.9,-0.5,25.0,3.5C27.3,6.4,29.4,9.7,31.4,12.9" fill="none" stroke-width="1"/><path stroke="#424f88" d="M33.0,9.8L33.5,16.5L27.8,12.9L33.0,9.8" stroke-linecap="round" fill="#424f88" stroke-width="1"/></g></g></svg>