<svg xmlns:xlink="http://www.w3.org/1999/xlink" viewBox="0 0 903 323" xmlns="http://www.w3.org/2000/svg" width="903" height="323"><defs/><g transform="translate(-200.50,-189.00)"><g id="shape1" transform="translate(202.00,197.00)"><path fill-rule="nonzero" d="M100.0,60.0L100.0,.0L.0,.0L.0,60.0L100.0,60.0z" stroke="#424f88" fill="#ffffff" stroke-width="3"/><text xml:space="preserve" style="fill:#424f88;font-family:微软雅黑;font-size:10.00pt"><tspan x="24.0" y="35.5">寻找入口</tspan></text></g><g id="shape2" transform="translate(302.00,227.00)"><path stroke="#424f88" d="M.0,.0L54.0,.0" fill="none" stroke-width="1"/><path stroke="#424f88" d="M54.0,-3.0L60.0,.0L54.0,3.0L54.0,-3.0" stroke-linecap="round" fill="#424f88" stroke-width="1"/></g><g id="shape3" transform="translate(362.00,197.00)"><path fill-rule="nonzero" d="M100.0,60.0L100.0,.0L.0,.0L.0,60.0L100.0,60.0z" stroke="#424f88" fill="#ffffff" stroke-width="3"/><text xml:space="preserve" style="fill:#424f88;font-family:微软雅黑;font-size:10.00pt"><tspan x="24.0" y="26.0">获取配置</tspan><tspan x="24.0" y="45.0">文件路径</tspan></text></g><g id="shape4" transform="translate(462.00,227.00)"><path stroke="#424f88" d="M.0,.0L54.0,.0" fill="none" stroke-width="1"/><path stroke="#424f88" d="M54.0,-3.0L60.0,.0L54.0,3.0L54.0,-3.0" stroke-linecap="round" fill="#424f88" stroke-width="1"/></g><g id="shape5" transform="translate(522.00,197.00)"><path fill-rule="nonzero" d="M100.0,60.0L100.0,.0L.0,.0L.0,60.0L100.0,60.0z" stroke="#424f88" fill="#ffffff" stroke-width="3"/><text xml:space="preserve" style="fill:#424f88;font-family:微软雅黑;font-size:10.00pt"><tspan x="24.0" y="26.0">容器开始</tspan><tspan x="37.0" y="45.0">启动</tspan></text></g><g id="shape6" transform="translate(622.00,227.00)"><path stroke="#424f88" d="M.0,.0L54.0,.0" fill="none" stroke-width="1"/><path stroke="#424f88" d="M54.0,-3.0L60.0,.0L54.0,3.0L54.0,-3.0" stroke-linecap="round" fill="#424f88" stroke-width="1"/></g><g id="shape7" transform="translate(682.00,190.50)"><path fill-rule="nonzero" d="M100.0,73.0L100.0,.0L.0,.0L.0,73.0L100.0,73.0z" stroke="#424f88" fill="#ffffff" stroke-width="3"/><text xml:space="preserve" style="fill:#424f88;font-family:微软雅黑;font-size:10.00pt"><tspan x="24.0" y="23.0">开始解析</tspan><tspan x="24.0" y="42.0">配置文件</tspan><tspan x="37.0" y="61.0">路径</tspan></text></g><g id="shape8" transform="translate(782.00,227.00)"><path stroke="#424f88" d="M.0,.0L54.0,.0" fill="none" stroke-width="1"/><path stroke="#424f88" d="M54.0,-3.0L60.0,.0L54.0,3.0L54.0,-3.0" stroke-linecap="round" fill="#424f88" stroke-width="1"/></g><g id="shape9" transform="translate(842.00,197.00)"><path fill-rule="nonzero" d="M100.0,60.0L100.0,.0L.0,.0L.0,60.0L100.0,60.0z" stroke="#424f88" fill="#ffffff" stroke-width="3"/><text xml:space="preserve" style="fill:#424f88;font-family:微软雅黑;font-size:10.00pt"><tspan x="24.0" y="26.0">载入配置</tspan><tspan x="37.0" y="45.0">路径</tspan></text></g><g id="shape10" transform="translate(942.00,227.00)"><path stroke="#424f88" d="M.0,.0L54.0,.0" fill="none" stroke-width="1"/><path stroke="#424f88" d="M54.0,-3.0L60.0,.0L54.0,3.0L54.0,-3.0" stroke-linecap="round" fill="#424f88" stroke-width="1"/></g><g id="shape11" transform="translate(1002.00,197.00)"><path fill-rule="nonzero" d="M100.0,60.0L100.0,.0L.0,.0L.0,60.0L100.0,60.0z" stroke="#424f88" fill="#ffffff" stroke-width="3"/><text xml:space="preserve" style="fill:#424f88;font-family:微软雅黑;font-size:10.00pt"><tspan x="24.0" y="26.0">分配路径</tspan><tspan x="24.0" y="45.0">处理策略</tspan></text></g><g id="shape12" transform="translate(1052.00,257.00)"><path stroke="#424f88" d="M.0,.0L.0,54.0" fill="none" stroke-width="1"/><path stroke="#424f88" d="M3.0,54.0L.0,60.0L-3.0,54.0L3.0,54.0" stroke-linecap="round" fill="#424f88" stroke-width="1"/></g><g id="shape13" transform="translate(1002.00,317.00)"><path fill-rule="nonzero" d="M100.0,60.0L100.0,.0L.0,.0L.0,60.0L100.0,60.0z" stroke="#424f88" fill="#ffffff" stroke-width="3"/><text xml:space="preserve" style="fill:#424f88;font-family:微软雅黑;font-size:10.00pt"><tspan x="24.0" y="26.0">解析配置</tspan><tspan x="24.0" y="45.0">文件路径</tspan></text></g><g id="shape14" transform="translate(1002.00,347.00)"><path stroke="#424f88" d="M.0,.0L-54.0,.0" fill="none" stroke-width="1"/><path stroke="#424f88" d="M-54.0,3.0L-60.0,.0L-54.0,-3.0L-54.0,3.0" stroke-linecap="round" fill="#424f88" stroke-width="1"/></g><g id="shape15" transform="translate(842.00,317.00)"><path fill-rule="nonzero" d="M100.0,60.0L100.0,.0L.0,.0L.0,60.0L100.0,60.0z" stroke="#424f88" fill="#ffffff" stroke-width="3"/><text xml:space="preserve" style="fill:#424f88;font-family:微软雅黑;font-size:10.00pt"><tspan x="24.0" y="26.0">加载配置</tspan><tspan x="24.0" y="45.0">文件信息</tspan></text></g><g id="shape16" transform="translate(842.00,347.00)"><path stroke="#424f88" d="M.0,.0L-54.0,.0" fill="none" stroke-width="1"/><path stroke="#424f88" d="M-54.0,3.0L-60.0,.0L-54.0,-3.0L-54.0,3.0" stroke-linecap="round" fill="#424f88" stroke-width="1"/></g><g id="shape17" transform="translate(682.00,317.00)"><path fill-rule="nonzero" d="M100.0,60.0L100.0,.0L.0,.0L.0,60.0L100.0,60.0z" stroke="#424f88" fill="#ffffff" stroke-width="3"/><text xml:space="preserve" style="fill:#424f88;font-family:微软雅黑;font-size:10.00pt"><tspan x="24.0" y="26.0">开始解析</tspan><tspan x="24.0" y="45.0">配置文件</tspan></text></g><g id="shape18" transform="translate(682.00,347.00)"><path stroke="#424f88" d="M.0,.0L-54.0,.0" fill="none" stroke-width="1"/><path stroke="#424f88" d="M-54.0,3.0L-60.0,.0L-54.0,-3.0L-54.0,3.0" stroke-linecap="round" fill="#424f88" stroke-width="1"/></g><g id="shape19" transform="translate(522.00,310.50)"><path fill-rule="nonzero" d="M100.0,73.0L100.0,.0L.0,.0L.0,73.0L100.0,73.0z" stroke="#424f88" fill="#ffffff" stroke-width="3"/><text xml:space="preserve" style="fill:#424f88;font-family:微软雅黑;font-size:10.00pt"><tspan x="24.0" y="23.0">分配解析</tspan><tspan x="24.0" y="42.0">配置文件</tspan><tspan x="37.0" y="61.0">策略</tspan></text></g><g id="shape20" transform="translate(522.00,347.00)"><path stroke="#424f88" d="M.0,.0L-54.0,.0" fill="none" stroke-width="1"/><path stroke="#424f88" d="M-54.0,3.0L-60.0,.0L-54.0,-3.0L-54.0,3.0" stroke-linecap="round" fill="#424f88" stroke-width="1"/></g><g id="shape21" transform="translate(362.00,310.50)"><path fill-rule="nonzero" d="M100.0,73.0L100.0,.0L.0,.0L.0,73.0L100.0,73.0z" stroke="#424f88" fill="#ffffff" stroke-width="3"/><text xml:space="preserve" style="fill:#424f88;font-family:微软雅黑;font-size:10.00pt"><tspan x="24.0" y="23.0">将配置文</tspan><tspan x="24.0" y="42.0">件载入到</tspan><tspan x="37.0" y="61.0">内存</tspan></text></g><g id="shape22" transform="translate(362.00,347.00)"><path stroke="#424f88" d="M.0,.0L-54.0,.0" fill="none" stroke-width="1"/><path stroke="#424f88" d="M-54.0,3.0L-60.0,.0L-54.0,-3.0L-54.0,3.0" stroke-linecap="round" fill="#424f88" stroke-width="1"/></g><g id="shape23" transform="translate(202.00,310.50)"><path fill-rule="nonzero" d="M100.0,73.0L100.0,.0L.0,.0L.0,73.0L100.0,73.0z" stroke="#424f88" fill="#ffffff" stroke-width="3"/><text xml:space="preserve" style="fill:#424f88;font-family:微软雅黑;font-size:10.00pt"><tspan x="37.0" y="23.0">载入</tspan><tspan x="25.0" y="42.0">&lt;bean></tspan><tspan x="37.0" y="61.0">元素</tspan></text></g><g id="shape24" transform="translate(252.00,383.50)"><path stroke="#424f88" d="M.0,.0L.0,48.0" fill="none" stroke-width="1"/><path stroke="#424f88" d="M3.0,48.0L.0,54.0L-3.0,48.0L3.0,48.0" stroke-linecap="round" fill="#424f88" stroke-width="1"/></g><g id="shape25" transform="translate(202.00,437.00)"><path fill-rule="nonzero" d="M100.0,73.0L100.0,.0L.0,.0L.0,73.0L100.0,73.0z" stroke="#424f88" fill="#ffffff" stroke-width="3"/><text xml:space="preserve" style="fill:#424f88;font-family:微软雅黑;font-size:10.00pt"><tspan x="37.0" y="23.0">载入</tspan><tspan x="13.5" y="42.0">&lt;property></tspan><tspan x="37.0" y="61.0">元素</tspan></text></g><g id="shape26" transform="translate(302.00,473.00)"><path stroke="#424f88" d="M.0,.0L54.0,.0" fill="none" stroke-width="1"/><path stroke="#424f88" d="M54.0,-3.0L60.0,.0L54.0,3.0L54.0,-3.0" stroke-linecap="round" fill="#424f88" stroke-width="1"/></g><g id="shape27" transform="translate(362.00,437.00)"><path fill-rule="nonzero" d="M100.0,73.0L100.0,.0L.0,.0L.0,73.0L100.0,73.0z" stroke="#424f88" fill="#ffffff" stroke-width="3"/><text xml:space="preserve" style="fill:#424f88;font-family:微软雅黑;font-size:10.00pt"><tspan x="37.0" y="23.0">载入</tspan><tspan x="13.5" y="42.0">&lt;property></tspan><tspan x="30.5" y="61.0">子元素</tspan></text></g><g id="shape28" transform="translate(462.00,473.00)"><path stroke="#424f88" d="M.0,.0L54.0,.0" fill="none" stroke-width="1"/><path stroke="#424f88" d="M54.0,-3.0L60.0,.0L54.0,3.0L54.0,-3.0" stroke-linecap="round" fill="#424f88" stroke-width="1"/></g><g id="shape29" transform="translate(522.00,437.00)"><path fill-rule="nonzero" d="M100.0,73.0L100.0,.0L.0,.0L.0,73.0L100.0,73.0z" stroke="#424f88" fill="#ffffff" stroke-width="3"/><text xml:space="preserve" style="fill:#424f88;font-family:微软雅黑;font-size:10.00pt"><tspan x="37.0" y="23.0">载入</tspan><tspan x="31.5" y="42.0">&lt;list></tspan><tspan x="37.0" y="61.0">元素</tspan></text></g><g id="shape30" transform="translate(622.00,473.00)"><path stroke="#424f88" d="M.0,.0L54.0,.0" fill="none" stroke-width="1"/><path stroke="#424f88" d="M54.0,-3.0L60.0,.0L54.0,3.0L54.0,-3.0" stroke-linecap="round" fill="#424f88" stroke-width="1"/></g><g id="shape31" transform="translate(682.00,437.00)"><path fill-rule="nonzero" d="M100.0,73.0L100.0,.0L.0,.0L.0,73.0L100.0,73.0z" stroke="#424f88" fill="#ffffff" stroke-width="3"/><text xml:space="preserve" style="fill:#424f88;font-family:微软雅黑;font-size:10.00pt"><tspan x="24.0" y="32.5">分配注册</tspan><tspan x="37.0" y="51.5">策略</tspan></text></g><g id="shape32" transform="translate(782.00,473.00)"><path stroke="#424f88" d="M.0,.0L54.0,.0" fill="none" stroke-width="1"/><path stroke="#424f88" d="M54.0,-3.0L60.0,.0L54.0,3.0L54.0,-3.0" stroke-linecap="round" fill="#424f88" stroke-width="1"/></g><g id="shape33" transform="translate(842.00,437.00)"><path fill-rule="nonzero" d="M100.0,73.0L100.0,.0L.0,.0L.0,73.0L100.0,73.0z" stroke="#424f88" fill="#ffffff" stroke-width="3"/><text xml:space="preserve" style="fill:#424f88;font-family:微软雅黑;font-size:10.00pt"><tspan x="24.0" y="32.5">开始向容</tspan><tspan x="30.5" y="51.5">器注册</tspan></text></g></g></svg>