<svg xmlns:xlink="http://www.w3.org/1999/xlink" height="542" viewBox="0 0 1069 542" xmlns="http://www.w3.org/2000/svg" width="1069"><defs/><g transform="translate(-100.00,-185.00)"><g transform="translate(101.00,186.00)" id="shape1"><path d="M100.0,60.0L100.0,.0L.0,.0L.0,60.0L100.0,60.0z" stroke="#101843" fill-rule="nonzero" fill="#ffffff" stroke-width="1"/><text xml:space="preserve" style="fill:#191919;font-family:微软雅黑;font-size:10.00pt"><tspan x="15.5" y="35.5">Bean实例化</tspan></text></g><g transform="translate(201.00,216.00)" id="shape2"><path d="M.0,.0L54.0,.0" stroke="#191919" fill="none" stroke-width="1"/><path d="M54.0,-3.0L60.0,.0L54.0,3.0L54.0,-3.0" stroke="#191919" stroke-linecap="round" fill="#191919" stroke-width="1"/></g><g transform="translate(261.00,186.00)" id="shape3"><path d="M100.0,60.0L100.0,.0L.0,.0L.0,60.0L100.0,60.0z" stroke="#101843" fill-rule="nonzero" fill="#ffffff" stroke-width="1"/><text xml:space="preserve" style="fill:#191919;font-family:微软雅黑;font-size:10.00pt"><tspan x="9.0" y="35.5">Bean属性注入</tspan></text></g><g transform="translate(361.00,216.00)" id="shape4"><path d="M.0,.0L45.0,.0" stroke="#191919" fill="none" stroke-width="1"/><path d="M45.0,-3.0L51.0,.0L45.0,3.0L45.0,-3.0" stroke="#191919" stroke-linecap="round" fill="#191919" stroke-width="1"/></g><g transform="translate(412.00,186.00)" id="shape5"><path d="M212.0,60.0L212.0,.0L.0,.0L.0,60.0L212.0,60.0z" stroke="#101843" fill-rule="nonzero" fill="#ffffff" stroke-width="1"/><text xml:space="preserve" style="fill:#191919;font-family:微软雅黑;font-size:10.00pt"><tspan x="34.0" y="26.0">调用BeanNameAware的</tspan><tspan x="46.5" y="45.0">setBeanName()方法</tspan></text></g><g transform="translate(624.00,216.00)" id="shape6"><path d="M.0,.0L54.0,.0" stroke="#191919" fill="none" stroke-width="1"/><path d="M54.0,-3.0L60.0,.0L54.0,3.0L54.0,-3.0" stroke="#191919" stroke-linecap="round" fill="#191919" stroke-width="1"/></g><g transform="translate(684.00,186.00)" id="shape7"><path d="M212.0,60.0L212.0,.0L.0,.0L.0,60.0L212.0,60.0z" stroke="#101843" fill-rule="nonzero" fill="#ffffff" stroke-width="1"/><text xml:space="preserve" style="fill:#191919;font-family:微软雅黑;font-size:10.00pt"><tspan x="29.5" y="26.0">调用BeanFactoryAware的</tspan><tspan x="42.0" y="45.0">setBeanFactory()方法</tspan></text></g><g transform="translate(896.00,216.00)" id="shape8"><path d="M.0,.0L54.0,.0" stroke="#191919" fill="none" stroke-width="1"/><path d="M54.0,-3.0L60.0,.0L54.0,3.0L54.0,-3.0" stroke="#191919" stroke-linecap="round" fill="#191919" stroke-width="1"/></g><g transform="translate(956.00,186.00)" id="shape9"><path d="M212.0,60.0L212.0,.0L.0,.0L.0,60.0L212.0,60.0z" stroke="#101843" fill-rule="nonzero" fill="#ffffff" stroke-width="1"/><text xml:space="preserve" style="fill:#191919;font-family:微软雅黑;font-size:10.00pt"><tspan x="8.5" y="26.0">调用ApplicationContextAware的</tspan><tspan x="21.0" y="45.0">setApplicationContext()方法</tspan></text></g><g transform="translate(1062.00,246.00)" id="shape10"><path d="M.0,.0L.0,54.0" stroke="#191919" fill="none" stroke-width="1"/><path d="M3.0,54.0L.0,60.0L-3.0,54.0L3.0,54.0" stroke="#191919" stroke-linecap="round" fill="#191919" stroke-width="1"/></g><g transform="translate(956.00,306.00)" id="shape11"><path d="M212.0,60.0L212.0,.0L.0,.0L.0,60.0L212.0,60.0z" stroke="#101843" fill-rule="nonzero" fill="#ffffff" stroke-width="1"/><text xml:space="preserve" style="fill:#191919;font-family:微软雅黑;font-size:10.00pt"><tspan x="8.5" y="26.0">调用BeanPostProcessor的预初始</tspan><tspan x="86.5" y="45.0">化方法</tspan></text></g><g transform="translate(956.00,336.00)" id="shape12"><path d="M.0,.0L-54.0,.0" stroke="#191919" fill="none" stroke-width="1"/><path d="M-54.0,3.0L-60.0,.0L-54.0,-3.0L-54.0,3.0" stroke="#191919" stroke-linecap="round" fill="#191919" stroke-width="1"/></g><g transform="translate(684.00,306.00)" id="shape13"><path d="M212.0,60.0L212.0,.0L.0,.0L.0,60.0L212.0,60.0z" stroke="#101843" fill-rule="nonzero" fill="#ffffff" stroke-width="1"/><text xml:space="preserve" style="fill:#191919;font-family:微软雅黑;font-size:10.00pt"><tspan x="39.0" y="26.0">调用InitializingBean 的</tspan><tspan x="33.5" y="45.0">afterPropertiesSet()方法</tspan></text></g><g transform="translate(684.00,336.00)" id="shape14"><path d="M.0,.0L-54.0,.0" stroke="#191919" fill="none" stroke-width="1"/><path d="M-54.0,3.0L-60.0,.0L-54.0,-3.0L-54.0,3.0" stroke="#191919" stroke-linecap="round" fill="#191919" stroke-width="1"/></g><g transform="translate(412.00,306.00)" id="shape15"><path d="M212.0,60.0L212.0,.0L.0,.0L.0,60.0L212.0,60.0z" stroke="#101843" fill-rule="nonzero" fill="#ffffff" stroke-width="1"/><text xml:space="preserve" style="fill:#191919;font-family:微软雅黑;font-size:10.00pt"><tspan x="34.5" y="35.5">调用自定义的初始化方法</tspan></text></g><g transform="translate(412.00,336.00)" id="shape16"><path d="M.0,.0L-54.0,.0" stroke="#191919" fill="none" stroke-width="1"/><path d="M-54.0,3.0L-60.0,.0L-54.0,-3.0L-54.0,3.0" stroke="#191919" stroke-linecap="round" fill="#191919" stroke-width="1"/></g><g transform="translate(140.00,306.00)" id="shape17"><path d="M212.0,60.0L212.0,.0L.0,.0L.0,60.0L212.0,60.0z" stroke="#101843" fill-rule="nonzero" fill="#ffffff" stroke-width="1"/><text xml:space="preserve" style="fill:#191919;font-family:微软雅黑;font-size:10.00pt"><tspan x="8.5" y="26.0">调用BeanPostProcessor的后初始</tspan><tspan x="86.5" y="45.0">化方法</tspan></text></g><g transform="translate(412.00,426.00)" id="shape18"><path d="M212.0,60.0L212.0,.0L.0,.0L.0,60.0L212.0,60.0z" stroke="#101843" fill-rule="nonzero" fill="#ffffff" stroke-width="1"/><text xml:space="preserve" style="fill:#191919;font-family:微软雅黑;font-size:10.00pt"><tspan x="78.0" y="35.5">生成Bean</tspan></text></g><g transform="translate(246.00,366.00)" id="shape19"><path d="M.0,.0L.0,90.0L160.0,90.0" stroke="#191919" fill="none" stroke-width="1"/><path d="M160.0,87.0L166.0,90.0L160.0,93.0L160.0,87.0" stroke="#191919" stroke-linecap="round" fill="#191919" stroke-width="1"/></g><g transform="translate(518.00,486.00)" id="shape20"><path d="M.0,.0L.0,54.0" stroke="#191919" fill="none" stroke-width="1"/><path d="M3.0,54.0L.0,60.0L-3.0,54.0L3.0,54.0" stroke="#191919" stroke-linecap="round" fill="#191919" stroke-width="1"/></g><g transform="translate(412.00,546.00)" id="shape21"><path d="M212.0,60.0L212.0,.0L.0,.0L.0,60.0L212.0,60.0z" stroke="#101843" fill-rule="nonzero" fill="#ffffff" stroke-width="1"/><text xml:space="preserve" style="fill:#191919;font-family:微软雅黑;font-size:10.00pt"><tspan x="5.0" y="26.0">调用DisposableBean的destory()方</tspan><tspan x="99.5" y="45.0">法</tspan></text></g><g transform="translate(518.00,606.00)" id="shape22"><path d="M.0,.0L.0,54.0" stroke="#191919" fill="none" stroke-width="1"/><path d="M3.0,54.0L.0,60.0L-3.0,54.0L3.0,54.0" stroke="#191919" stroke-linecap="round" fill="#191919" stroke-width="1"/></g><g transform="translate(412.00,666.00)" id="shape23"><path d="M212.0,60.0L212.0,.0L.0,.0L.0,60.0L212.0,60.0z" stroke="#101843" fill-rule="nonzero" fill="#ffffff" stroke-width="1"/><text xml:space="preserve" style="fill:#191919;font-family:微软雅黑;font-size:10.00pt"><tspan x="4.0" y="26.0">调用destory-method属性指定的销</tspan><tspan x="86.5" y="45.0">毁方法</tspan></text></g></g></svg>