<svg height="468" xmlns:xlink="http://www.w3.org/1999/xlink" width="723" xmlns="http://www.w3.org/2000/svg" viewBox="0 0 723 468"><defs/><g transform="translate(-170.00,-206.50)"><path fill-rule="nonzero" stroke="#424f88" transform="translate(614.00,208.00)" stroke-width="3" id="shape1" fill="#ffffff" d="M151.0,132.8L151.0,.0L.0,.0L.0,132.8L151.0,132.8z"/><g transform="translate(639.50,246.00)" id="shape2"><path fill-rule="nonzero" stroke="#424f88" stroke-width="3" fill="#ffffff" d="M100.0,40.2L100.0,.0L.0,.0L.0,40.2L100.0,40.2z"/><text xml:space="preserve" style="fill:#424f88;font-family:微软雅黑;font-size:10.00pt"><tspan y="25.6" x="24.0">Pointcut</tspan></text></g><g transform="translate(639.50,294.00)" id="shape3"><path fill-rule="nonzero" stroke="#424f88" stroke-width="3" fill="#ffffff" d="M100.0,37.0L100.0,.0L.0,.0L.0,37.0L100.0,37.0z"/><text xml:space="preserve" style="fill:#424f88;font-family:微软雅黑;font-size:10.00pt"><tspan y="24.0" x="29.5">Advice</tspan></text></g><g transform="translate(629.50,215.00)" id="shape4"><text xml:space="preserve" style="fill:#454545;font-family:微软雅黑;font-size:10.00pt"><tspan y="21.0" x="39.0">Aspect</tspan></text></g><g transform="translate(639.50,435.00)" id="shape5"><path fill-rule="nonzero" stroke="#424f88" stroke-width="3" fill="#ffffff" d="M100.0,60.0L100.0,.0L.0,.0L.0,60.0L100.0,60.0z"/><text xml:space="preserve" style="fill:#424f88;font-family:微软雅黑;font-size:10.00pt"><tspan y="35.5" x="30.5">织入器</tspan></text></g><g transform="translate(739.50,465.00)" id="shape6"><path stroke="#424f88" stroke-width="1" d="M.0,.0C29.4,-14.8,58.8,-29.6,73.5,-59.0C88.2,-88.4,88.2,-132.3,73.5,-158.0C59.7,-182.2,32.9,-190.3,5.4,-197.5" fill="none"/><path stroke="#424f88" stroke-width="1" stroke-linecap="round" fill="#424f88" d="M5.1,-194.5L.0,-198.9L6.6,-200.3L5.1,-194.5"/><rect height="19.0" y="-116.9" width="130.0" x="20.0" fill="#ffffff"/><rect height="19.0" y="-97.9" width="82.0" x="44.0" fill="#ffffff"/><text xml:space="preserve" style="fill:#2e3862;font-family:微软雅黑;font-size:10.00pt"><tspan y="-101.9" x="20.0">参照Pointcut定义取得</tspan><tspan y="-82.9" x="44.0">相应Joinpoint</tspan></text></g><path fill-rule="nonzero" stroke="#424f88" transform="translate(204.27,397.00)" stroke-width="3" id="shape7" fill="#ffffff" d="M69.8,.0L69.8,169.6L110.7,158.5L55.4,236.0L.0,158.5L41.0,169.6L41.0,.0L69.8,.0"/><path fill-rule="nonzero" stroke="#424f88" transform="translate(324.27,397.00)" stroke-width="3" id="shape8" fill="#ffffff" d="M69.8,.0L69.8,169.6L110.7,158.5L55.4,236.0L.0,158.5L41.0,169.6L41.0,.0L69.8,.0"/><path fill-rule="nonzero" stroke="#424f88" transform="translate(444.27,397.00)" stroke-width="3" id="shape9" fill="#ffffff" d="M69.8,.0L69.8,169.6L110.7,158.5L55.4,236.0L.0,158.5L41.0,169.6L41.0,.0L69.8,.0"/><path fill-rule="nonzero" stroke="#424f88" transform="translate(246.00,455.00)" stroke-width="3" id="shape10" fill="#ffffff" d="M.0,13.5C.0,6.0,6.0,.0,13.5,.0C21.0,.0,27.0,6.0,27.0,13.5C27.0,21.0,21.0,27.0,13.5,27.0C6.0,27.0,.0,21.0,.0,13.5z"/><path fill-rule="nonzero" stroke="#424f88" transform="translate(366.13,455.00)" stroke-width="3" id="shape11" fill="#ffffff" d="M.0,13.5C.0,6.0,6.0,.0,13.5,.0C21.0,.0,27.0,6.0,27.0,13.5C27.0,21.0,21.0,27.0,13.5,27.0C6.0,27.0,.0,21.0,.0,13.5z"/><path fill-rule="nonzero" stroke="#424f88" transform="translate(486.13,455.00)" stroke-width="3" id="shape12" fill="#ffffff" d="M.0,13.5C.0,6.0,6.0,.0,13.5,.0C21.0,.0,27.0,6.0,27.0,13.5C27.0,21.0,21.0,27.0,13.5,27.0C6.0,27.0,.0,21.0,.0,13.5z"/><g transform="translate(248.63,502.75)" id="shape13"><text xml:space="preserve" style="fill:#454545;font-family:微软雅黑;font-size:10.00pt"><tspan y="22.3" x="4.5">贷</tspan><tspan y="41.3" x="4.5">款</tspan><tspan y="60.3" x="4.5">申</tspan><tspan y="79.3" x="4.5">请</tspan></text></g><g transform="translate(366.13,502.75)" id="shape14"><text xml:space="preserve" style="fill:#454545;font-family:微软雅黑;font-size:10.00pt"><tspan y="22.5" x="4.5">贷</tspan><tspan y="41.5" x="4.5">款</tspan><tspan y="60.5" x="4.5">管</tspan><tspan y="79.5" x="4.5">理</tspan></text></g><g transform="translate(491.13,492.25)" id="shape15"><text xml:space="preserve" style="fill:#454545;font-family:微软雅黑;font-size:10.00pt"><tspan y="23.3" x="4.5">入</tspan><tspan y="42.3" x="4.5">出</tspan><tspan y="61.3" x="4.5">金</tspan><tspan y="80.3" x="4.5">管</tspan><tspan y="99.3" x="4.5">理</tspan></text></g><g transform="translate(228.00,643.00)" id="shape16"><text xml:space="preserve" style="fill:#454545;font-family:微软雅黑;font-size:10.00pt"><tspan y="21.0" x="12.0">Target</tspan></text></g><g transform="translate(348.13,643.00)" id="shape17"><text xml:space="preserve" style="fill:#454545;font-family:微软雅黑;font-size:10.00pt"><tspan y="21.0" x="12.0">Target</tspan></text></g><g transform="translate(468.13,643.00)" id="shape18"><text xml:space="preserve" style="fill:#454545;font-family:微软雅黑;font-size:10.00pt"><tspan y="21.0" x="12.0">Target</tspan></text></g><g transform="translate(378.00,472.00)" id="shape19"><path stroke="#424f88" stroke-width="1" d="M.0,.0C-0.2,-41.4,-0.4,-82.7,16.9,-117.1C34.3,-151.5,69.1,-178.9,112.8,-192.6C155.0,-205.7,205.4,-206.0,256.2,-205.9" fill="none"/><path stroke="#424f88" stroke-width="1" stroke-linecap="round" fill="#424f88" d="M255.5,-208.9L261.5,-205.9L255.5,-202.9L255.5,-208.9"/></g><g transform="translate(501.00,472.00)" id="shape20"><path stroke="#424f88" stroke-width="1" d="M.0,.0C-0.1,-41.4,-0.2,-82.7,9.0,-117.1C18.1,-151.5,36.6,-178.9,59.7,-192.6C81.5,-205.4,107.3,-206.0,133.5,-205.9" fill="none"/><path stroke="#424f88" stroke-width="1" stroke-linecap="round" fill="#424f88" d="M132.5,-208.9L138.5,-205.9L132.5,-202.9L132.5,-208.9"/></g><g transform="translate(260.00,472.00)" id="shape21"><path stroke="#424f88" stroke-width="1" d="M.0,.0C-0.3,-41.4,-0.5,-82.7,24.6,-117.1C49.7,-151.5,100.3,-178.9,163.6,-192.6C225.7,-205.9,300.2,-206.0,374.9,-205.9" fill="none"/><path stroke="#424f88" stroke-width="1" stroke-linecap="round" fill="#424f88" d="M373.5,-208.9L379.5,-205.9L373.5,-202.9L373.5,-208.9"/></g><g transform="translate(661.00,312.00)" id="shape22"><path stroke="#424f88" stroke-width="1" d="M.0,.0C40.3,60.9,80.7,121.8,17.2,146.5C-46.2,171.2,-213.4,159.7,-300.4,155.6C-370.0,152.3,-388.3,153.8,-396.3,156.2" fill="none"/><path stroke="#424f88" stroke-width="1" stroke-linecap="round" fill="#424f88" d="M-394.3,158.6L-401.0,158.1L-396.6,153.1L-394.3,158.6"/></g><g transform="translate(170.00,491.00)" id="shape23"><text xml:space="preserve" style="fill:#454545;font-family:微软雅黑;font-size:10.00pt"><tspan y="20.5" x="6.3">Joinpoint</tspan></text></g><g transform="translate(284.10,491.00)" id="shape24"><text xml:space="preserve" style="fill:#454545;font-family:微软雅黑;font-size:10.00pt"><tspan y="20.5" x="6.3">Joinpoint</tspan></text></g><g transform="translate(405.35,491.00)" id="shape25"><text xml:space="preserve" style="fill:#454545;font-family:微软雅黑;font-size:10.00pt"><tspan y="20.5" x="6.3">Joinpoint</tspan></text></g><g transform="translate(579.00,360.35)" id="shape26"><text xml:space="preserve" style="fill:#454545;font-family:微软雅黑;font-size:10.00pt"><tspan y="23.0" x="7.0">将相应Advice织入</tspan><tspan y="42.0" x="8.0">到Pointcut指定的</tspan><tspan y="61.0" x="25.5">Joinpoint处</tspan></text></g><g transform="translate(248.63,246.00)" id="shape27"><text xml:space="preserve" style="fill:#454545;font-family:微软雅黑;font-size:10.00pt"><tspan y="23.0" x="8.0">Pointcut归纳定义</tspan><tspan y="42.0" x="40.5">相应的</tspan><tspan y="61.0" x="32.0">Joinpoint</tspan></text></g></g></svg>