<svg height="447" xmlns:xlink="http://www.w3.org/1999/xlink" width="670" xmlns="http://www.w3.org/2000/svg" viewBox="0 0 670 447"><defs/><g transform="translate(-162.33,-203.50)"><g transform="translate(208.00,348.00)" id="shape1"><path fill-rule="nonzero" stroke="#424f88" stroke-width="3" fill="#ffffff" d="M100.0,60.0L100.0,.0L.0,.0L.0,60.0L100.0,60.0z"/><text xml:space="preserve" style="fill:#424f88;font-family:微软雅黑;font-size:10.00pt"><tspan y="26.0" x="37.0">切面</tspan><tspan y="45.0" x="16.0">（Aspect）</tspan></text></g><g transform="translate(308.00,378.00)" id="shape2"><path stroke="#424f88" stroke-width="1" d="M.0,.0L32.0,.0L32.0,-95.0L54.0,-95.0" fill="none"/><path stroke="#424f88" stroke-width="1" stroke-linecap="round" fill="#424f88" d="M54.0,-98.0L60.0,-95.0L54.0,-92.0L54.0,-98.0"/></g><g transform="translate(368.00,253.00)" id="shape3"><path fill-rule="nonzero" stroke="#424f88" stroke-width="3" fill="#ffffff" d="M100.0,60.0L100.0,.0L.0,.0L.0,60.0L100.0,60.0z"/><text xml:space="preserve" style="fill:#424f88;font-family:微软雅黑;font-size:10.00pt"><tspan y="26.0" x="37.0">切点</tspan><tspan y="45.0" x="11.0">（Pointcut）</tspan></text></g><g transform="translate(308.00,378.00)" id="shape4"><path stroke="#424f88" stroke-width="1" d="M.0,.0L32.0,.0L32.0,94.0L54.0,94.0" fill="none"/><path stroke="#424f88" stroke-width="1" stroke-linecap="round" fill="#424f88" d="M54.0,91.0L60.0,94.0L54.0,97.0L54.0,91.0"/></g><g transform="translate(368.00,442.00)" id="shape5"><path fill-rule="nonzero" stroke="#424f88" stroke-width="3" fill="#ffffff" d="M100.0,60.0L100.0,.0L.0,.0L.0,60.0L100.0,60.0z"/><text xml:space="preserve" style="fill:#424f88;font-family:微软雅黑;font-size:10.00pt"><tspan y="26.0" x="37.0">通知</tspan><tspan y="45.0" x="16.5">（Advice）</tspan></text></g><g transform="translate(468.00,283.00)" id="shape6"><path stroke="#424f88" stroke-width="1" d="M.0,.0L32.0,.0L32.0,-45.0L54.0,-45.0" fill="none"/><path stroke="#424f88" stroke-width="1" stroke-linecap="round" fill="#424f88" d="M54.0,-48.0L60.0,-45.0L54.0,-42.0L54.0,-48.0"/></g><g transform="translate(528.00,205.00)" id="shape7"><path fill-rule="nonzero" stroke="#424f88" stroke-width="3" fill="#ffffff" d="M110.0,66.0L110.0,.0L.0,.0L.0,66.0L110.0,66.0z"/><text xml:space="preserve" style="fill:#424f88;font-family:微软雅黑;font-size:10.00pt"><tspan y="29.0" x="22.5">路径表达式</tspan><tspan y="48.0" x="12.0">（execution）</tspan></text></g><g transform="translate(468.00,283.00)" id="shape8"><path stroke="#424f88" stroke-width="1" d="M.0,.0L32.0,.0L32.0,29.0L54.0,29.0" fill="none"/><path stroke="#424f88" stroke-width="1" stroke-linecap="round" fill="#424f88" d="M54.0,26.0L60.0,29.0L54.0,32.0L54.0,26.0"/></g><g transform="translate(528.00,276.50)" id="shape9"><path fill-rule="nonzero" stroke="#424f88" stroke-width="3" fill="#ffffff" d="M110.0,73.0L110.0,.0L.0,.0L.0,73.0L110.0,73.0z"/><text xml:space="preserve" style="fill:#424f88;font-family:微软雅黑;font-size:10.00pt"><tspan y="32.5" x="42.0">注解</tspan><tspan y="51.5" x="8.5">（annotation）</tspan></text></g><g transform="translate(468.00,472.00)" id="shape10"><path stroke="#424f88" stroke-width="1" d="M.0,.0L28.0,.0L28.0,-40.0L37.0,-40.0" fill="none"/><path stroke="#424f88" stroke-width="1" stroke-linecap="round" fill="#424f88" d="M37.0,-43.0L43.0,-40.0L37.0,-37.0L37.0,-43.0"/></g><g transform="translate(468.00,472.00)" id="shape11"><path stroke="#424f88" stroke-width="1" d="M.0,.0L28.0,.0L28.0,40.0L37.0,40.0" fill="none"/><path stroke="#424f88" stroke-width="1" stroke-linecap="round" fill="#424f88" d="M37.0,37.0L43.0,40.0L37.0,43.0L37.0,37.0"/></g><g transform="translate(511.26,402.00)" id="group12"><g id="shape13"><path fill-rule="nonzero" stroke="#424f88" stroke-width="3" fill="#ffffff" d="M100.0,60.0L100.0,.0L.0,.0L.0,60.0L100.0,60.0z"/><text xml:space="preserve" style="fill:#424f88;font-family:微软雅黑;font-size:10.00pt"><tspan y="35.5" x="24.0">通知类型</tspan></text></g><g transform="translate(0.00,80.00)" id="shape14"><path fill-rule="nonzero" stroke="#424f88" stroke-width="3" fill="#ffffff" d="M100.0,60.0L100.0,.0L.0,.0L.0,60.0L100.0,60.0z"/><text xml:space="preserve" style="fill:#424f88;font-family:微软雅黑;font-size:10.00pt"><tspan y="35.5" x="24.0">增强逻辑</tspan></text></g></g><g transform="translate(731.00,402.00)" id="shape15"><path fill-rule="nonzero" stroke="#424f88" stroke-width="3" fill="#ffffff" d="M100.0,60.0L100.0,.0L.0,.0L.0,60.0L100.0,60.0z"/><text xml:space="preserve" style="fill:#424f88;font-family:微软雅黑;font-size:10.00pt"><tspan y="26.0" x="34.5">After</tspan><tspan y="45.0" x="20.0">(后置通知)</tspan></text></g><g transform="translate(611.26,432.00)" id="shape16"><path stroke="#424f88" stroke-width="1" d="M.0,.0L114.0,.0" fill="none"/><path stroke="#424f88" stroke-width="1" stroke-linecap="round" fill="#424f88" d="M114.0,-3.0L120.0,.0L114.0,3.0L114.0,-3.0"/></g><g transform="translate(731.00,329.00)" id="shape17"><path fill-rule="nonzero" stroke="#424f88" stroke-width="3" fill="#ffffff" d="M100.0,60.0L100.0,.0L.0,.0L.0,60.0L100.0,60.0z"/><text xml:space="preserve" style="fill:#424f88;font-family:微软雅黑;font-size:10.00pt"><tspan y="26.0" x="30.0">Before</tspan><tspan y="45.0" x="20.0">(前置通知)</tspan></text></g><g transform="translate(731.00,253.00)" id="shape18"><path fill-rule="nonzero" stroke="#424f88" stroke-width="3" fill="#ffffff" d="M100.0,60.0L100.0,.0L.0,.0L.0,60.0L100.0,60.0z"/><text xml:space="preserve" style="fill:#424f88;font-family:微软雅黑;font-size:10.00pt"><tspan y="26.0" x="27.0">Around</tspan><tspan y="45.0" x="20.0">(环绕通知)</tspan></text></g><g transform="translate(731.00,482.00)" id="shape19"><path fill-rule="nonzero" stroke="#424f88" stroke-width="3" fill="#ffffff" d="M100.0,60.0L100.0,.0L.0,.0L.0,60.0L100.0,60.0z"/><text xml:space="preserve" style="fill:#424f88;font-family:微软雅黑;font-size:10.00pt"><tspan y="26.0" x="4.5">AfterReturning</tspan><tspan y="45.0" x="7.0">(后置返回通知)</tspan></text></g><g transform="translate(731.00,562.00)" id="shape20"><path fill-rule="nonzero" stroke="#424f88" stroke-width="3" fill="#ffffff" d="M100.0,60.0L100.0,.0L.0,.0L.0,60.0L100.0,60.0z"/><text xml:space="preserve" style="fill:#424f88;font-family:微软雅黑;font-size:10.00pt"><tspan y="26.0" x="6.0">AfterThrowing</tspan><tspan y="45.0" x="20.0">(异常通知)</tspan></text></g><g transform="translate(611.26,432.00)" id="shape21"><path stroke="#424f88" stroke-width="1" d="M.0,.0L46.0,.0L46.0,-73.0L113.7,-73.0" fill="none"/><path stroke="#424f88" stroke-width="1" stroke-linecap="round" fill="#424f88" d="M113.7,-76.0L119.7,-73.0L113.7,-70.0L113.7,-76.0"/></g><g transform="translate(611.26,432.00)" id="shape22"><path stroke="#424f88" stroke-width="1" d="M.0,.0L46.3,.0L46.3,-149.0L113.7,-149.0" fill="none"/><path stroke="#424f88" stroke-width="1" stroke-linecap="round" fill="#424f88" d="M113.7,-152.0L119.7,-149.0L113.7,-146.0L113.7,-152.0"/></g><g transform="translate(611.26,432.00)" id="shape23"><path stroke="#424f88" stroke-width="1" d="M.0,.0L46.0,.0L46.0,160.0L113.7,160.0" fill="none"/><path stroke="#424f88" stroke-width="1" stroke-linecap="round" fill="#424f88" d="M113.7,157.0L119.7,160.0L113.7,163.0L113.7,157.0"/></g><g transform="translate(611.26,432.00)" id="shape24"><path stroke="#424f88" stroke-width="1" d="M.0,.0L46.0,.0L46.0,80.0L113.7,80.0" fill="none"/><path stroke="#424f88" stroke-width="1" stroke-linecap="round" fill="#424f88" d="M113.7,77.0L119.7,80.0L113.7,83.0L113.7,77.0"/></g><g transform="translate(258.00,408.00)" id="shape25"><path stroke="#424f88" stroke-width="1" d="M.0,.0L.0,121.0" fill="none"/><path stroke="#424f88" stroke-width="1" stroke-linecap="round" fill="#424f88" d="M3.0,121.0L.0,127.0L-3.0,121.0L3.0,121.0"/></g><path fill-rule="nonzero" stroke="#424f88" transform="translate(163.83,535.00)" stroke-width="3" id="shape26" fill="#ffffff" d="M190.0,114.0L190.0,.0L.0,.0L.0,114.0L190.0,114.0z"/><g transform="translate(208.83,583.00)" id="shape27"><path fill-rule="nonzero" stroke="#424f88" stroke-width="3" fill="#ffffff" d="M100.0,60.0L100.0,.0L.0,.0L.0,60.0L100.0,60.0z"/><text xml:space="preserve" style="fill:#424f88;font-family:微软雅黑;font-size:10.00pt"><tspan y="26.0" x="23.0">joinPoint</tspan><tspan y="45.0" x="24.5">(连接点) </tspan></text></g><g transform="translate(198.00,543.00)" id="shape28"><text xml:space="preserve" style="fill:#454545;font-family:微软雅黑;font-size:10.00pt"><tspan y="21.0" x="10.5">Target(目标对象)</tspan></text></g><g transform="translate(188.83,442.00)" id="shape29"><text xml:space="preserve" style="fill:#454545;font-family:微软雅黑;font-size:10.00pt"><tspan y="23.0" x="47.0">织入</tspan><tspan y="42.0" x="29.5">(Weaving)</tspan></text></g></g></svg>