<svg xmlns:xlink="http://www.w3.org/1999/xlink" viewBox="0 0 325 155" xmlns="http://www.w3.org/2000/svg" width="325" height="155"><defs/><g transform="translate(-300.50,-273.50)"><g id="shape1" transform="translate(302.00,336.00)"><path fill-rule="nonzero" d="M64.3,37.0L64.3,.0L.0,.0L.0,37.0L64.3,37.0z" stroke="#424f88" fill="#ffffff" stroke-width="3"/><text xml:space="preserve" style="fill:#424f88;font-family:微软雅黑;font-size:10.00pt"><tspan x="15.2" y="24.0">Caller</tspan></text></g><path id="shape2" fill-rule="nonzero" d="M.0,76.0C.0,34.0,34.0,.0,76.0,.0C118.0,.0,152.0,34.0,152.0,76.0C152.0,118.0,118.0,152.0,76.0,152.0C34.0,152.0,.0,118.0,.0,76.0z" stroke="#424f88" fill="#ffffff" transform="translate(472.00,275.00)" stroke-width="3"/><g id="shape3" transform="translate(518.00,321.00)"><path fill-rule="nonzero" d="M.0,30.0C.0,13.4,13.4,.0,30.0,.0C46.6,.0,60.0,13.4,60.0,30.0C60.0,46.6,46.6,60.0,30.0,60.0C13.4,60.0,.0,46.6,.0,30.0z" stroke="#424f88" fill="#ffffff" stroke-width="3"/><text xml:space="preserve" style="fill:#424f88;font-family:微软雅黑;font-size:10.00pt"><tspan x="10.5" y="35.5">Target</tspan></text></g><g id="shape4" transform="translate(464.66,336.00)"><text xml:space="preserve" style="fill:#454545;font-family:微软雅黑;font-size:10.00pt"><tspan x="14.7" y="20.5">Proxy</tspan></text></g><g id="shape5" transform="translate(366.34,354.50)"><path stroke="#424f88" d="M.0,.0C14.6,-0.8,29.2,-1.5,41.7,-8.8C54.1,-16.1,64.5,-29.9,77.0,-37.2C87.9,-43.6,100.5,-45.0,113.2,-45.7" fill="none" stroke-width="1"/><path stroke="#424f88" d="M112.5,-48.7L118.7,-46.0L112.8,-42.7L112.5,-48.7" stroke-linecap="round" fill="#424f88" stroke-width="1"/></g><g id="shape6" transform="translate(483.44,310.88)"><path stroke-dasharray="2.5,2.5" stroke="#424f88" d="M.0,.0C11.7,-2.5,23.5,-5.0,31.6,-3.9C39.6,-2.8,44.1,1.9,45.6,6.1C46.4,8.7,46.3,11.1,45.7,13.4" fill="none" stroke-width="1"/><path stroke="#424f88" d="M48.9,13.4L44.1,18.2L43.2,11.5L48.9,13.4" stroke-linecap="round" fill="#424f88" stroke-width="1"/></g></g></svg>