<svg height="252" width="677" viewBox="0 0 677 252" xmlns:xlink="http://www.w3.org/1999/xlink" xmlns="http://www.w3.org/2000/svg"><defs/><g transform="translate(-168.50,-89.00)"><g id="shape1" transform="translate(410.00,93.80)"><path fill-rule="nonzero" stroke="#f0637f" d="M81.7,26.4L81.7,.0L.0,.0L.0,26.4L81.7,26.4z" fill="#ffffff" stroke-width="3"/><text style="fill:#f0637f;font-family:微软雅黑;font-size:10.00pt" xml:space="preserve"><tspan y="18.7" x="10.3">Collection</tspan></text></g><g id="shape2" transform="translate(265.75,163.00)"><path fill-rule="nonzero" stroke="#f0637f" d="M55.0,26.4L55.0,.0L.0,.0L.0,26.4L55.0,26.4z" fill="#ffffff" stroke-width="3"/><text style="fill:#f0637f;font-family:微软雅黑;font-size:10.00pt" xml:space="preserve"><tspan y="18.7" x="17.0">List</tspan></text></g><g id="shape3" transform="translate(428.83,163.00)"><path fill-rule="nonzero" stroke="#f0637f" d="M44.0,26.4L44.0,.0L.0,.0L.0,26.4L44.0,26.4z" fill="#ffffff" stroke-width="3"/><text style="fill:#f0637f;font-family:微软雅黑;font-size:10.00pt" xml:space="preserve"><tspan y="18.7" x="12.0">Set</tspan></text></g><g id="shape4" transform="translate(558.50,166.30)"><path fill-rule="nonzero" stroke="#f0637f" d="M55.0,26.4L55.0,.0L.0,.0L.0,26.4L55.0,26.4z" fill="#ffffff" stroke-width="3"/><text style="fill:#f0637f;font-family:微软雅黑;font-size:10.00pt" xml:space="preserve"><tspan y="18.7" x="7.0">Queue</tspan></text></g><g id="shape5" transform="translate(410.00,107.00)"><path stroke="#424f88" d="M.0,.0L-159.0,.0" stroke-width="1" fill="none"/><path stroke-linecap="round" stroke="#424f88" d="M-159.0,3.0L-165.0,.0L-159.0,-3.0L-159.0,3.0" stroke-width="1" fill="#424f88"/></g><g id="shape6" transform="translate(179.17,93.80)"><path fill-rule="nonzero" stroke="#f0637f" d="M66.7,26.4L66.7,.0L.0,.0L.0,26.4L66.7,26.4z" fill="#ffffff" stroke-width="3"/><text style="fill:#f0637f;font-family:微软雅黑;font-size:10.00pt" xml:space="preserve"><tspan y="18.7" x="10.3">Iterator</tspan></text></g><g id="shape7" transform="translate(170.00,147.20)"><path fill-rule="nonzero" stroke="#f0637f" d="M85.0,26.4L85.0,.0L.0,.0L.0,26.4L85.0,26.4z" fill="#ffffff" stroke-width="3"/><text style="fill:#f0637f;font-family:微软雅黑;font-size:10.00pt" xml:space="preserve"><tspan y="18.7" x="9.0">ListIterator</tspan></text></g><g id="shape8" transform="translate(200.75,227.00)"><path fill-rule="nonzero" stroke="#f0637f" d="M75.0,33.0L75.0,.0L.0,.0L.0,33.0L75.0,33.0z" fill="#ffffff" stroke-width="3"/><text style="fill:#f0637f;font-family:微软雅黑;font-size:10.00pt" xml:space="preserve"><tspan y="22.0" x="10.5">ArrayList</tspan></text></g><g id="shape9" transform="translate(298.25,227.00)"><path fill-rule="nonzero" stroke="#f0637f" d="M75.0,33.0L75.0,.0L.0,.0L.0,33.0L75.0,33.0z" fill="#ffffff" stroke-width="3"/><text style="fill:#f0637f;font-family:微软雅黑;font-size:10.00pt" xml:space="preserve"><tspan y="22.0" x="7.0">LinkedList</tspan></text></g><g id="shape10" transform="translate(391.50,227.00)"><path fill-rule="nonzero" stroke="#f0637f" d="M62.5,33.0L62.5,.0L.0,.0L.0,33.0L62.5,33.0z" fill="#ffffff" stroke-width="3"/><text style="fill:#f0637f;font-family:微软雅黑;font-size:10.00pt" xml:space="preserve"><tspan y="22.0" x="5.8">HashSet</tspan></text></g><g id="shape11" transform="translate(472.25,227.00)"><path fill-rule="nonzero" stroke="#f0637f" d="M55.0,33.0L55.0,.0L.0,.0L.0,33.0L55.0,33.0z" fill="#ffffff" stroke-width="3"/><text style="fill:#f0637f;font-family:微软雅黑;font-size:10.00pt" xml:space="preserve"><tspan y="22.0" x="4.5">TreeSet</tspan></text></g><g id="shape12" transform="translate(372.00,291.00)"><path fill-rule="nonzero" stroke="#f0637f" d="M100.0,30.0L100.0,.0L.0,.0L.0,30.0L100.0,30.0z" fill="#ffffff" stroke-width="3"/><text style="fill:#f0637f;font-family:微软雅黑;font-size:10.00pt" xml:space="preserve"><tspan y="20.5" x="4.5">LinkedHashSet</tspan></text></g><g id="shape13" transform="translate(536.00,227.00)"><path fill-rule="nonzero" stroke="#f0637f" d="M100.0,33.0L100.0,.0L.0,.0L.0,33.0L100.0,33.0z" fill="#ffffff" stroke-width="3"/><text style="fill:#f0637f;font-family:微软雅黑;font-size:10.00pt" xml:space="preserve"><tspan y="22.0" x="7.5">PriorityQueue</tspan></text></g><g id="shape14" transform="translate(685.43,163.00)"><path fill-rule="nonzero" stroke="#f0637f" d="M68.0,26.4L68.0,.0L.0,.0L.0,26.4L68.0,26.4z" fill="#ffffff" stroke-width="3"/><text style="fill:#f0637f;font-family:微软雅黑;font-size:10.00pt" xml:space="preserve"><tspan y="18.7" x="4.5">HashMap</tspan></text></g><g id="shape15" transform="translate(780.43,163.00)"><path fill-rule="nonzero" stroke="#f0637f" d="M63.3,26.4L63.3,.0L.0,.0L.0,26.4L63.3,26.4z" fill="#ffffff" stroke-width="3"/><text style="fill:#f0637f;font-family:微软雅黑;font-size:10.00pt" xml:space="preserve"><tspan y="18.7" x="4.7">TreeMap</tspan></text></g><g id="shape16" transform="translate(661.00,217.00)"><path fill-rule="nonzero" stroke="#f0637f" d="M118.0,29.0L118.0,.0L.0,.0L.0,29.0L118.0,29.0z" fill="#ffffff" stroke-width="3"/><text style="fill:#f0637f;font-family:微软雅黑;font-size:10.00pt" xml:space="preserve"><tspan y="20.0" x="9.5">LinkedHashMap</tspan></text></g><g id="shape17" transform="translate(544.72,272.75)"><path fill-rule="nonzero" stroke="#34c2c2" d="M.0,33.3C.0,14.9,18.5,.0,41.3,.0C64.1,.0,82.6,14.9,82.6,33.3C82.6,51.6,64.1,66.5,41.3,66.5C18.5,66.5,.0,51.6,.0,33.3z" fill="#ffffff" stroke-width="3"/><text style="fill:#34c2c2;font-family:微软雅黑;font-size:10.00pt" xml:space="preserve"><tspan y="29.3" x="21.8">Arrays</tspan><tspan y="48.3" x="7.8">Collections</tspan></text></g><g id="shape18" transform="translate(293.25,189.40)"><path stroke="#424f88" d="M.0,.0L.0,28.0L-55.0,28.0L-55.0,32.0" stroke-width="1" fill="none"/><path stroke-linecap="round" stroke="#424f88" d="M-52.0,32.0L-55.0,38.0L-58.0,32.0L-52.0,32.0" stroke-width="1" fill="#424f88"/></g><g id="shape19" transform="translate(293.25,189.40)"><path stroke="#424f88" d="M.0,.0L.0,28.0L42.0,28.0L42.0,32.0" stroke-width="1" fill="none"/><path stroke-linecap="round" stroke="#424f88" d="M45.0,32.0L42.0,38.0L39.0,32.0L45.0,32.0" stroke-width="1" fill="#424f88"/></g><g id="shape20" transform="translate(212.50,147.20)"><path stroke="#424f88" d="M.0,.0L.0,-20.0" stroke-width="1" fill="none"/><path stroke-linecap="round" stroke="#424f88" d="M-3.0,-20.0L.0,-26.0L3.0,-20.0L-3.0,-20.0" stroke-width="1" fill="#424f88"/></g><g id="shape21" transform="translate(450.83,163.00)"><path stroke="#424f88" d="M.0,.0L.0,-36.0" stroke-width="1" fill="none"/><path stroke-linecap="round" stroke="#424f88" d="M-3.0,-36.0L.0,-42.0L3.0,-36.0L-3.0,-36.0" stroke-width="1" fill="#424f88"/></g><g id="shape22" transform="translate(293.25,163.00)"><path stroke="#424f88" d="M.0,.0L.0,-26.0L157.6,-26.0L157.6,-36.8" stroke-width="1" fill="none"/><path stroke-linecap="round" stroke="#424f88" d="M154.6,-36.8L157.6,-42.8L160.6,-36.8L154.6,-36.8" stroke-width="1" fill="#424f88"/></g><g id="shape23" transform="translate(422.00,291.00)"><path stroke="#424f88" d="M.0,.0L.0,-25.0" stroke-width="1" fill="none"/><path stroke-linecap="round" stroke="#424f88" d="M-3.0,-25.0L.0,-31.0L3.0,-25.0L-3.0,-25.0" stroke-width="1" fill="#424f88"/></g><g id="shape24" transform="translate(586.00,227.00)"><path stroke="#424f88" d="M.0,.0L.0,-29.0" stroke-width="1" fill="none"/><path stroke-linecap="round" stroke="#424f88" d="M-3.0,-29.0L.0,-35.0L3.0,-29.0L-3.0,-29.0" stroke-width="1" fill="#424f88"/></g><g id="shape25" transform="translate(733.86,90.50)"><path fill-rule="nonzero" stroke="#f0637f" d="M45.1,33.0L45.1,.0L.0,.0L.0,33.0L45.1,33.0z" fill="#ffffff" stroke-width="3"/><text style="fill:#f0637f;font-family:微软雅黑;font-size:10.00pt" xml:space="preserve"><tspan y="22.0" x="8.6">Map</tspan></text></g><g id="shape26" transform="translate(720.00,217.00)"><path stroke="#424f88" d="M.0,.0L.0,-21.0" stroke-width="1" fill="none"/><path stroke-linecap="round" stroke="#424f88" d="M-3.0,-21.0L.0,-27.0L3.0,-21.0L-3.0,-21.0" stroke-width="1" fill="#424f88"/></g><g id="shape27" transform="translate(733.86,107.00)"><path stroke="#424f88" d="M.0,.0L-236.0,.0" stroke-width="1" fill="none"/><path stroke-linecap="round" stroke="#424f88" d="M-236.0,3.0L-242.0,.0L-236.0,-3.0L-236.0,3.0" stroke-width="1" fill="#424f88"/></g><g id="shape28" transform="translate(422.75,227.00)"><path stroke="#424f88" d="M.0,.0L.0,-28.0L28.0,-28.0L28.0,-32.0" stroke-width="1" fill="none"/><path stroke-linecap="round" stroke="#424f88" d="M25.0,-32.0L28.0,-38.0L31.0,-32.0L25.0,-32.0" stroke-width="1" fill="#424f88"/></g><g id="shape29" transform="translate(499.75,227.00)"><path stroke="#424f88" d="M.0,.0L.0,-28.0L-49.0,-28.0L-49.0,-32.0" stroke-width="1" fill="none"/><path stroke-linecap="round" stroke="#424f88" d="M-52.0,-32.0L-49.0,-38.0L-46.0,-32.0L-52.0,-32.0" stroke-width="1" fill="#424f88"/></g><g id="shape30" transform="translate(586.00,166.30)"><path stroke="#424f88" d="M.0,.0L.0,-28.0L-136.0,-28.0L-136.0,-39.0" stroke-width="1" fill="none"/><path stroke-linecap="round" stroke="#424f88" d="M-139.0,-39.0L-136.0,-45.0L-133.0,-39.0L-139.0,-39.0" stroke-width="1" fill="#424f88"/></g><g id="shape31" transform="translate(719.43,163.00)"><path stroke="#424f88" d="M.0,.0L.0,-28.0L36.0,-28.0L36.0,-34.0" stroke-width="1" fill="none"/><path stroke-linecap="round" stroke="#424f88" d="M33.0,-34.0L36.0,-40.0L39.0,-34.0L33.0,-34.0" stroke-width="1" fill="#424f88"/></g><g id="shape32" transform="translate(812.10,163.00)"><path stroke="#424f88" d="M.0,.0L.0,-28.0L-56.0,-28.0L-56.0,-34.0" stroke-width="1" fill="none"/><path stroke-linecap="round" stroke="#424f88" d="M-59.0,-34.0L-56.0,-40.0L-53.0,-34.0L-59.0,-34.0" stroke-width="1" fill="#424f88"/></g></g></svg>