<svg xmlns="http://www.w3.org/2000/svg" xmlns:xlink="http://www.w3.org/1999/xlink" viewBox="0 0 637 333" height="333" width="637"><defs/><g transform="translate(-200.50,-212.00)"><g id="shape1" transform="translate(202.00,223.00)"><path stroke="#424f88" stroke-width="3" fill="#ffffff" fill-rule="nonzero" d="M100.0,60.0L100.0,.0L.0,.0L.0,60.0L100.0,60.0z"/><text style="fill:#424f88;font-family:微软雅黑;font-size:10.00pt" xml:space="preserve"><tspan x="30.5" y="26.0">浏览器</tspan><tspan x="25.5" y="45.0">Browers</tspan></text></g><g id="shape2" transform="translate(435.00,223.00)"><path stroke="#424f88" stroke-width="3" fill="#ffcd55" fill-rule="nonzero" d="M118.0,60.0L118.0,.0L.0,.0L.0,60.0L118.0,60.0z"/><text style="fill:#424f88;font-family:微软雅黑;font-size:10.00pt" xml:space="preserve"><tspan x="5.0" y="26.0">DispatcherServlet</tspan><tspan x="26.5" y="45.0">核心控制器</tspan></text></g><g id="shape3" transform="translate(713.00,223.00)"><path stroke="#424f88" stroke-width="3" fill="#ffffff" fill-rule="nonzero" d="M118.0,60.0L118.0,.0L.0,.0L.0,60.0L118.0,60.0z"/><text style="fill:#424f88;font-family:微软雅黑;font-size:10.00pt" xml:space="preserve"><tspan x="20.0" y="26.0">处理器映射器</tspan><tspan x="10.0" y="45.0">HandleMapping</tspan></text></g><g id="shape4" transform="translate(233.00,483.50)"><path stroke="#424f88" stroke-width="3" fill="#ffffff" fill-rule="nonzero" d="M100.0,60.0L100.0,.0L.0,.0L.0,60.0L100.0,60.0z"/><text style="fill:#424f88;font-family:微软雅黑;font-size:10.00pt" xml:space="preserve"><tspan x="37.0" y="26.0">视图</tspan><tspan x="35.5" y="45.0">View</tspan></text></g><g id="shape5" transform="translate(444.00,483.50)"><path stroke="#424f88" stroke-width="3" fill="#ffffff" fill-rule="nonzero" d="M100.0,60.0L100.0,.0L.0,.0L.0,60.0L100.0,60.0z"/><text style="fill:#424f88;font-family:微软雅黑;font-size:10.00pt" xml:space="preserve"><tspan x="17.5" y="26.0">视图解析器</tspan><tspan x="10.0" y="45.0">ViewResolver</tspan></text></g><g id="shape6" transform="translate(675.00,483.50)"><path stroke="#424f88" stroke-width="3" fill="#ffffff" fill-rule="nonzero" d="M118.0,60.0L118.0,.0L.0,.0L.0,60.0L118.0,60.0z"/><text style="fill:#424f88;font-family:微软雅黑;font-size:10.00pt" xml:space="preserve"><tspan x="7.0" y="26.0">处理器（控制器）</tspan><tspan x="28.5" y="45.0">Controller</tspan></text></g><g id="shape7" transform="translate(684.00,366.85)"><path stroke="#424f88" stroke-width="3" fill="#ffffff" fill-rule="nonzero" d="M100.0,60.0L100.0,.0L.0,.0L.0,60.0L100.0,60.0z"/><text style="fill:#424f88;font-family:微软雅黑;font-size:10.00pt" xml:space="preserve"><tspan x="11.0" y="26.0">处理器适配器</tspan><tspan x="4.0" y="45.0">HandleAdapter</tspan></text></g><g id="shape8" transform="translate(302.00,241.66)"><path stroke="#424f88" stroke-width="1" fill="none" d="M.0,.0L127.0,-0.0"/><path stroke="#424f88" stroke-linecap="round" stroke-width="1" fill="#424f88" d="M127.0,-3.0L133.0,-0.0L127.0,3.0L127.0,-3.0"/></g><g id="shape9" transform="translate(435.00,262.48)"><path stroke="#424f88" stroke-width="1" fill="none" d="M.0,.0L-127.0,.0"/><path stroke="#424f88" stroke-linecap="round" stroke-width="1" fill="#424f88" d="M-127.0,3.0L-133.0,.0L-127.0,-3.0L-127.0,3.0"/></g><g id="shape10" transform="translate(318.50,212.00)"><text style="fill:#454545;font-family:微软雅黑;font-size:10.00pt" xml:space="preserve"><tspan x="8.0" y="20.5">1 request请求</tspan></text></g><g id="shape11" transform="translate(309.50,265.05)"><text style="fill:#454545;font-family:微软雅黑;font-size:10.00pt" xml:space="preserve"><tspan x="8.5" y="17.5">11 response响应</tspan></text></g><g id="shape12" transform="translate(553.00,240.88)"><path stroke="#424f88" stroke-width="1" fill="none" d="M.0,.0L154.0,-0.0"/><path stroke="#424f88" stroke-linecap="round" stroke-width="1" fill="#424f88" d="M154.0,-3.0L160.0,-0.0L154.0,3.0L154.0,-3.0"/></g><g id="shape13" transform="translate(713.00,263.26)"><path stroke="#424f88" stroke-width="1" fill="none" d="M.0,.0L-154.0,.0"/><path stroke="#424f88" stroke-linecap="round" stroke-width="1" fill="#424f88" d="M-154.0,3.0L-160.0,.0L-154.0,-3.0L-154.0,3.0"/></g><g id="shape14" transform="translate(569.50,216.03)"><text style="fill:#454545;font-family:微软雅黑;font-size:10.00pt" xml:space="preserve"><tspan x="5.5" y="16.5">2 请求查找Handle</tspan></text></g><g id="shape15" transform="translate(573.00,266.55)"><text style="fill:#454545;font-family:微软雅黑;font-size:10.00pt" xml:space="preserve"><tspan x="8.5" y="16.8">3 返回一个执行链</tspan></text></g><g id="shape16" transform="translate(479.70,483.50)"><path stroke="#424f88" stroke-width="1" fill="none" d="M.0,.0L-0.1,-194.5"/><path stroke="#424f88" stroke-linecap="round" stroke-width="1" fill="#424f88" d="M-3.1,-194.5L-0.1,-200.5L2.9,-194.5L-3.1,-194.5"/></g><g id="shape17" transform="translate(502.02,283.00)"><path stroke="#424f88" stroke-width="1" fill="none" d="M.0,.0L-0.0,194.5"/><path stroke="#424f88" stroke-linecap="round" stroke-width="1" fill="#424f88" d="M3.0,194.5L-0.0,200.5L-3.0,194.5L3.0,194.5"/></g><g id="shape18" transform="translate(412.50,396.85)"><text style="fill:#454545;font-family:微软雅黑;font-size:10.00pt" xml:space="preserve"><tspan x="6.8" y="20.5">9 返回view</tspan></text></g><g id="shape19" transform="translate(501.26,391.53)"><text style="fill:#454545;font-family:微软雅黑;font-size:10.00pt" xml:space="preserve"><tspan x="14.4" y="16.3">8 请求视图解析器</tspan><tspan x="6.4" y="35.3">解析ModelAndView</tspan></text></g><g id="shape20" transform="translate(726.09,483.50)"><path stroke="#424f88" stroke-width="1" fill="none" d="M.0,.0L.0,-50.7"/><path stroke="#424f88" stroke-linecap="round" stroke-width="1" fill="#424f88" d="M-3.0,-50.6L.0,-56.6L3.0,-50.6L-3.0,-50.6"/></g><g id="shape21" transform="translate(746.10,426.85)"><path stroke="#424f88" stroke-width="1" fill="none" d="M.0,.0L-0.1,50.7"/><path stroke="#424f88" stroke-linecap="round" stroke-width="1" fill="#424f88" d="M2.9,50.6L-0.1,56.6L-3.1,50.6L2.9,50.6"/></g><g id="shape22" transform="translate(587.03,446.45)"><text style="fill:#454545;font-family:微软雅黑;font-size:10.00pt" xml:space="preserve"><tspan x="7.8" y="16.8">6 返回ModelAndView</tspan></text></g><g id="shape23" transform="translate(751.17,439.00)"><text style="fill:#454545;font-family:微软雅黑;font-size:10.00pt" xml:space="preserve"><tspan x="4.3" y="20.5">5 执行处理器</tspan></text></g><g id="shape24" transform="translate(447.63,283.00)"><path stroke="#424f88" stroke-width="1" fill="none" d="M.0,.0L-168.8,196.0"/><path stroke="#424f88" stroke-linecap="round" stroke-width="1" fill="#424f88" d="M-166.5,197.9L-172.7,200.5L-171.1,194.0L-166.5,197.9"/></g><g id="shape25" transform="translate(294.90,483.50)"><path stroke="#424f88" stroke-width="1" fill="none" d="M.0,.0L172.8,-196.0"/><path stroke="#424f88" stroke-linecap="round" stroke-width="1" fill="#424f88" d="M170.6,-198.0L176.8,-200.5L175.1,-194.0L170.6,-198.0"/></g><g id="shape26" transform="translate(272.66,361.85)"><text style="fill:#454545;font-family:微软雅黑;font-size:10.00pt" xml:space="preserve"><tspan x="7.2" y="20.5">10 调用执行</tspan></text></g><g id="shape27" transform="translate(540.49,283.00)"><path stroke="#424f88" stroke-width="1" fill="none" d="M.0,.0L188.0,81.5"/><path stroke="#424f88" stroke-linecap="round" stroke-width="1" fill="#424f88" d="M189.2,78.7L193.5,83.9L186.8,84.2L189.2,78.7"/></g><g id="shape28" transform="translate(708.46,366.85)"><path stroke="#424f88" stroke-width="1" fill="none" d="M.0,.0L-190.5,-81.5"/><path stroke="#424f88" stroke-linecap="round" stroke-width="1" fill="#424f88" d="M-191.7,-78.7L-196.0,-83.9L-189.3,-84.2L-191.7,-78.7"/></g><g id="shape29" transform="translate(646.00,317.68)"><text style="fill:#454545;font-family:微软雅黑;font-size:10.00pt" xml:space="preserve"><tspan x="26.0" y="15.0">4 请求处理器</tspan><tspan x="8.0" y="34.0">适配器执行Handler</tspan></text></g><g id="shape30" transform="translate(510.00,325.40)"><text style="fill:#454545;font-family:微软雅黑;font-size:10.00pt" xml:space="preserve"><tspan x="7.8" y="16.8">7 返回ModelAndView</tspan></text></g></g></svg>