<svg height="662" width="399" xmlns:xlink="http://www.w3.org/1999/xlink" xmlns="http://www.w3.org/2000/svg" viewBox="0 0 399 662"><defs/><g transform="translate(-229.50,-293.50)"><g transform="translate(378.00,295.00)" id="shape1"><path stroke-width="3" fill="#ffffff" d="M100.0,37.0L100.0,.0L.0,.0L.0,37.0L100.0,37.0z" fill-rule="nonzero" stroke="#424f88"/><text style="fill:#424f88;font-family:微软雅黑;font-size:10.00pt" xml:space="preserve"><tspan y="24.0" x="16.5">Source File</tspan></text></g><g transform="translate(428.00,332.00)" id="shape2"><path stroke-width="1" fill="none" d="M.0,.0L.0,28.0L2.0,28.0" stroke="#424f88"/><path stroke-width="1" stroke-linecap="round" fill="#424f88" d="M5.0,27.0L2.0,33.0L-1.0,27.0L5.0,27.0" stroke="#424f88"/></g><g transform="translate(379.00,365.00)" id="shape3"><path stroke-width="3" fill="#ffffff" d="M100.0,37.0L100.0,.0L.0,.0L.0,37.0L100.0,37.0z" fill-rule="nonzero" stroke="#424f88"/><text style="fill:#424f88;font-family:微软雅黑;font-size:10.00pt" xml:space="preserve"><tspan y="24.0" x="33.5">Parse</tspan></text></g><g transform="translate(429.00,402.00)" id="shape4"><path stroke-width="1" fill="none" d="M.0,.0L.0,27.0" stroke="#424f88"/><path stroke-width="1" stroke-linecap="round" fill="#424f88" d="M3.0,27.0L.0,33.0L-3.0,27.0L3.0,27.0" stroke="#424f88"/></g><g transform="translate(378.00,435.00)" id="shape5"><path stroke-width="3" fill="#ffffff" d="M100.0,37.0L100.0,.0L.0,.0L.0,37.0L100.0,37.0z" fill-rule="nonzero" stroke="#424f88"/><text style="fill:#424f88;font-family:微软雅黑;font-size:10.00pt" xml:space="preserve"><tspan y="24.0" x="38.0">AST</tspan></text></g><g transform="translate(428.00,472.00)" id="shape6"><path stroke-width="1" fill="none" d="M.0,.0L.0,32.0" stroke="#424f88"/><path stroke-width="1" stroke-linecap="round" fill="#424f88" d="M3.0,32.0L.0,38.0L-3.0,32.0L3.0,32.0" stroke="#424f88"/></g><path stroke-width="3" fill="#ffffff" transform="translate(231.00,511.00)" id="shape7" d="M396.0,237.6L396.0,.0L.0,.0L.0,237.6L396.0,237.6z" fill-rule="nonzero" stroke="#424f88"/><g transform="translate(339.13,511.00)" id="shape8"><text style="fill:#454545;font-family:微软雅黑;font-size:10.00pt" xml:space="preserve"><tspan y="24.3" x="19.4">Annotation Processing</tspan></text></g><g transform="translate(327.00,557.45)" id="shape9"><path stroke-width="3" fill="#ffffff" d="M204.0,37.5L204.0,.0L.0,.0L.0,37.5L204.0,37.5z" fill-rule="nonzero" stroke="#424f88"/><text style="fill:#424f88;font-family:微软雅黑;font-size:10.00pt" xml:space="preserve"><tspan y="24.3" x="8.5">Lombok Annotation Processor</tspan></text></g><g transform="translate(327.00,624.23)" id="shape10"><path stroke-width="3" fill="#ffffff" d="M204.0,37.5L204.0,.0L.0,.0L.0,37.5L204.0,37.5z" fill-rule="nonzero" stroke="#424f88"/><text style="fill:#424f88;font-family:微软雅黑;font-size:10.00pt" xml:space="preserve"><tspan y="24.5" x="90.0">AST</tspan></text></g><g transform="translate(428.00,596.00)" id="shape11"><path stroke-width="1" fill="none" d="M.0,.0L.0,22.0" stroke="#424f88"/><path stroke-width="1" stroke-linecap="round" fill="#424f88" d="M3.0,22.0L.0,28.0L-3.0,22.0L3.0,22.0" stroke="#424f88"/></g><g transform="translate(429.00,661.77)" id="shape12"><path stroke-width="1" fill="none" d="M.0,.0L.0,23.0" stroke="#424f88"/><path stroke-width="1" stroke-linecap="round" fill="#424f88" d="M3.0,23.0L.0,29.0L-3.0,23.0L3.0,23.0" stroke="#424f88"/></g><g transform="translate(326.00,691.00)" id="shape13"><path stroke-width="3" fill="#ffffff" d="M204.0,37.5L204.0,.0L.0,.0L.0,37.5L204.0,37.5z" fill-rule="nonzero" stroke="#424f88"/><text style="fill:#424f88;font-family:微软雅黑;font-size:10.00pt" xml:space="preserve"><tspan y="24.5" x="14.5">Lombok Annotation Handler</tspan></text></g><g transform="translate(429.00,748.60)" id="shape14"><path stroke-width="1" fill="none" d="M.0,.0L.0,28.0" stroke="#424f88"/><path stroke-width="1" stroke-linecap="round" fill="#424f88" d="M3.0,28.0L.0,34.0L-3.0,28.0L3.0,28.0" stroke="#424f88"/></g><g transform="translate(381.00,783.90)" id="shape15"><path stroke-width="3" fill="#ffffff" d="M94.0,38.2L94.0,.0L.0,.0L.0,38.2L94.0,38.2z" fill-rule="nonzero" stroke="#424f88"/><text style="fill:#424f88;font-family:微软雅黑;font-size:10.00pt" xml:space="preserve"><tspan y="24.6" x="5.5">Modified AST</tspan></text></g><g transform="translate(428.00,822.10)" id="shape16"><path stroke-width="1" fill="none" d="M.0,.0L.0,20.0" stroke="#424f88"/><path stroke-width="1" stroke-linecap="round" fill="#424f88" d="M3.0,20.0L.0,26.0L-3.0,20.0L3.0,20.0" stroke="#424f88"/></g><g transform="translate(353.50,849.90)" id="shape17"><path stroke-width="3" fill="#ffffff" d="M149.0,38.2L149.0,.0L.0,.0L.0,38.2L149.0,38.2z" fill-rule="nonzero" stroke="#424f88"/><text style="fill:#424f88;font-family:微软雅黑;font-size:10.00pt" xml:space="preserve"><tspan y="24.6" x="7.5">Analyze and Generate</tspan></text></g><g transform="translate(428.00,888.10)" id="shape18"><path stroke-width="1" fill="none" d="M.0,.0L.0,20.0" stroke="#424f88"/><path stroke-width="1" stroke-linecap="round" fill="#424f88" d="M3.0,20.0L.0,26.0L-3.0,20.0L3.0,20.0" stroke="#424f88"/></g><g transform="translate(381.00,915.90)" id="shape19"><path stroke-width="3" fill="#ffffff" d="M94.0,38.2L94.0,.0L.0,.0L.0,38.2L94.0,38.2z" fill-rule="nonzero" stroke="#424f88"/><text style="fill:#424f88;font-family:微软雅黑;font-size:10.00pt" xml:space="preserve"><tspan y="24.6" x="15.5">Byte Code</tspan></text></g></g></svg>