<svg xmlns:xlink="http://www.w3.org/1999/xlink" viewBox="0 0 367 215" xmlns="http://www.w3.org/2000/svg" width="367" height="215"><defs/><g transform="translate(-362.50,-262.50)"><path id="shape1" fill-rule="nonzero" d="M364.0,211.8L364.0,.0L.0,.0L.0,211.8L364.0,211.8z" stroke="#424f88" fill="#ffffff" transform="translate(364.00,264.00)" stroke-width="3"/><g id="shape2" transform="translate(473.00,264.00)"><text xml:space="preserve" style="fill:#454545;font-family:微软雅黑;font-size:10.00pt"><tspan x="10.0" y="24.5">Spring Boot核心组件</tspan></text></g><g id="shape3" transform="translate(371.75,302.00)"><path fill-rule="nonzero" d="M347.5,38.0L347.5,.0L.0,.0L.0,38.0L347.5,38.0z" stroke="#424f88" fill="#ffffff" stroke-width="3"/><text xml:space="preserve" style="fill:#424f88;font-family:微软雅黑;font-size:10.00pt"><tspan x="104.8" y="24.5">基础组件：Spring Boot</tspan></text></g><g id="shape4" transform="translate(371.75,354.00)"><path fill-rule="nonzero" d="M176.3,38.0L176.3,.0L.0,.0L.0,38.0L176.3,38.0z" stroke="#424f88" fill="#ffffff" stroke-width="3"/><text xml:space="preserve" style="fill:#424f88;font-family:微软雅黑;font-size:10.00pt"><tspan x="12.1" y="24.5">自动配置：autoconfigure</tspan></text></g><g id="shape5" transform="translate(557.00,354.00)"><path fill-rule="nonzero" d="M162.3,38.0L162.3,.0L.0,.0L.0,38.0L162.3,38.0z" stroke="#424f88" fill="#ffffff" stroke-width="3"/><text xml:space="preserve" style="fill:#424f88;font-family:微软雅黑;font-size:10.00pt"><tspan x="32.1" y="24.5">驱动器：starters</tspan></text></g><g id="shape6" transform="translate(371.75,405.00)"><path fill-rule="nonzero" d="M100.0,60.0L100.0,.0L.0,.0L.0,60.0L100.0,60.0z" stroke="#424f88" fill="#ffffff" stroke-width="3"/><text xml:space="preserve" style="fill:#424f88;font-family:微软雅黑;font-size:10.00pt"><tspan x="8.0" y="26.0">健康检查/监控</tspan><tspan x="4.5" y="45.0">统计：actuator</tspan></text></g><g id="shape7" transform="translate(495.50,405.00)"><path fill-rule="nonzero" d="M100.0,60.0L100.0,.0L.0,.0L.0,60.0L100.0,60.0z" stroke="#424f88" fill="#ffffff" stroke-width="3"/><text xml:space="preserve" style="fill:#424f88;font-family:微软雅黑;font-size:10.00pt"><tspan x="11.0" y="26.0">开发者工具：</tspan><tspan x="35.0" y="45.0">tools</tspan></text></g><g id="shape8" transform="translate(619.25,405.00)"><path fill-rule="nonzero" d="M100.0,60.0L100.0,.0L.0,.0L.0,60.0L100.0,60.0z" stroke="#424f88" fill="#ffffff" stroke-width="3"/><text xml:space="preserve" style="fill:#424f88;font-family:微软雅黑;font-size:10.00pt"><tspan x="11.0" y="26.0">命令行交互环</tspan><tspan x="30.5" y="45.0">境：cli</tspan></text></g></g></svg>