<svg viewBox="0 0 1391 591" height="591" xmlns="http://www.w3.org/2000/svg" width="1391" xmlns:xlink="http://www.w3.org/1999/xlink"><defs/><g transform="translate(-85.00,-55.50)"><path d="M477.0,194.0L477.0,.0L.0,.0L.0,194.0L477.0,194.0z" id="shape1" stroke-width="3" stroke="#424f88" fill-rule="nonzero" transform="translate(217.37,451.00)" fill="#ffffff"/><g id="shape2" transform="translate(316.12,57.00)"><path d="M279.5,27.0L279.5,.0L.0,.0L.0,27.0L279.5,27.0z" stroke-width="3" stroke="#424f88" fill-rule="nonzero" fill="#ffffff"/><text style="fill:#424f88;font-family:微软雅黑;font-size:10.00pt" xml:space="preserve"><tspan x="107.3" y="19.0">SqlSession</tspan></text></g><g id="shape3" transform="translate(316.12,128.50)"><path d="M279.5,27.0L279.5,.0L.0,.0L.0,27.0L279.5,27.0z" stroke-width="3" stroke="#424f88" fill-rule="nonzero" fill="#ffffff"/><text style="fill:#424f88;font-family:微软雅黑;font-size:10.00pt" xml:space="preserve"><tspan x="112.8" y="19.0">Executor</tspan></text></g><g id="shape4" transform="translate(316.12,200.00)"><path d="M279.5,27.0L279.5,.0L.0,.0L.0,27.0L279.5,27.0z" stroke-width="3" stroke="#424f88" fill-rule="nonzero" fill="#ffffff"/><text style="fill:#424f88;font-family:微软雅黑;font-size:10.00pt" xml:space="preserve"><tspan x="83.8" y="19.0">StatementHandler</tspan></text></g><g id="shape5" transform="translate(316.12,271.50)"><path d="M132.0,27.0L132.0,.0L.0,.0L.0,27.0L132.0,27.0z" stroke-width="3" stroke="#424f88" fill-rule="nonzero" fill="#ffffff"/><text style="fill:#424f88;font-family:微软雅黑;font-size:10.00pt" xml:space="preserve"><tspan x="14.0" y="19.0">ParmaterHandler</tspan></text></g><g id="shape6" transform="translate(463.62,271.50)"><path d="M132.0,27.0L132.0,.0L.0,.0L.0,27.0L132.0,27.0z" stroke-width="3" stroke="#424f88" fill-rule="nonzero" fill="#ffffff"/><text style="fill:#424f88;font-family:微软雅黑;font-size:10.00pt" xml:space="preserve"><tspan x="13.5" y="19.0">ResultSetHandler</tspan></text></g><g id="shape7" transform="translate(362.93,345.50)"><path d="M181.9,27.0L181.9,.0L.0,.0L.0,27.0L181.9,27.0z" stroke-width="3" stroke="#424f88" fill-rule="nonzero" fill="#ffffff"/><text style="fill:#424f88;font-family:微软雅黑;font-size:10.00pt" xml:space="preserve"><tspan x="38.9" y="19.0">TypeHandler&lt;T></tspan></text></g><g id="shape8" transform="translate(420.43,491.00)"><path d="M70.9,27.0L70.9,.0L.0,.0L.0,27.0L70.9,27.0z" stroke-width="3" stroke="#424f88" fill-rule="nonzero" fill="#ffffff"/><text style="fill:#424f88;font-family:微软雅黑;font-size:10.00pt" xml:space="preserve"><tspan x="6.9" y="19.0">ResultSet</tspan></text></g><path d="M453.0,73.0L453.0,.0L.0,.0L.0,73.0L453.0,73.0z" id="shape9" stroke-width="3" stroke="#424f88" fill-rule="nonzero" transform="translate(227.37,562.00)" fill="#ffffff"/><g id="shape10" transform="translate(236.37,597.00)"><path d="M132.0,27.0L132.0,.0L.0,.0L.0,27.0L132.0,27.0z" stroke-width="3" stroke="#424f88" fill-rule="nonzero" fill="#ffffff"/><text style="fill:#424f88;font-family:微软雅黑;font-size:10.00pt" xml:space="preserve"><tspan x="6.5" y="19.0">PreparedStatement</tspan></text></g><g id="shape11" transform="translate(387.87,597.00)"><path d="M132.0,27.0L132.0,.0L.0,.0L.0,27.0L132.0,27.0z" stroke-width="3" stroke="#424f88" fill-rule="nonzero" fill="#ffffff"/><text style="fill:#424f88;font-family:微软雅黑;font-size:10.00pt" xml:space="preserve"><tspan x="13.5" y="19.0">SimpleStatement</tspan></text></g><g id="shape12" transform="translate(539.37,597.00)"><path d="M132.0,27.0L132.0,.0L.0,.0L.0,27.0L132.0,27.0z" stroke-width="3" stroke="#424f88" fill-rule="nonzero" fill="#ffffff"/><text style="fill:#424f88;font-family:微软雅黑;font-size:10.00pt" xml:space="preserve"><tspan x="10.5" y="19.0">CallableStatement</tspan></text></g><g id="shape13" transform="translate(399.87,451.00)"><text style="fill:#454545;font-family:微软雅黑;font-size:10.00pt" xml:space="preserve"><tspan x="44.0" y="20.5">JDBC</tspan></text></g><g id="shape14" transform="translate(393.87,562.00)"><text style="fill:#454545;font-family:微软雅黑;font-size:10.00pt" xml:space="preserve"><tspan x="28.0" y="20.5">Statement</tspan></text></g><g id="shape15" transform="translate(457.49,562.00)"><path d="M.0,.0L-0.3,-38.0" stroke-width="1" stroke="#ff0000" fill="none"/><path d="M-3.3,-38.0L-0.4,-44.0L2.7,-38.0L-3.3,-38.0" stroke-width="1" stroke="#ff0000" stroke-linecap="round" fill="#ff0000"/><rect x="-31.7" height="19.0" width="65.0" y="-32.9" fill="#ffffff"/><text style="fill:#2e3862;font-family:微软雅黑;font-size:10.00pt" xml:space="preserve"><tspan x="-31.7" y="-17.9">返同结果集</tspan></text></g><g id="shape16" transform="translate(402.76,84.00)"><path d="M.0,.0L.1,38.5" stroke-width="1" stroke="#00b050" fill="none"/><path d="M3.1,38.5L.1,44.5L-2.9,38.5L3.1,38.5" stroke-width="1" stroke="#00b050" stroke-linecap="round" fill="#00b050"/></g><g id="shape17" transform="translate(514.00,128.50)"><path d="M.0,.0L.1,-38.5" stroke-width="1" stroke="#ff0000" fill="none"/><path d="M-2.9,-38.5L.1,-44.5L3.1,-38.5L-2.9,-38.5" stroke-width="1" stroke="#ff0000" stroke-linecap="round" fill="#ff0000"/></g><g id="shape18" transform="translate(404.44,155.50)"><path d="" stroke-width="1" stroke="#424f88" fill="none"/></g><g id="shape19" transform="translate(402.76,155.50)"><path d="M.0,.0L.1,38.5" stroke-width="1" stroke="#00b050" fill="none"/><path d="M3.1,38.5L.1,44.5L-2.9,38.5L3.1,38.5" stroke-width="1" stroke="#00b050" stroke-linecap="round" fill="#00b050"/></g><g id="shape20" transform="translate(515.68,200.00)"><path d="M.0,.0L-0.0,-38.5" stroke-width="1" stroke="#ff0000" fill="none"/><path d="M-3.0,-38.5L-0.0,-44.5L3.0,-38.5L-3.0,-38.5" stroke-width="1" stroke="#ff0000" stroke-linecap="round" fill="#ff0000"/></g><g id="shape21" transform="translate(667.85,57.00)"><path d="M.0,.0L378.5,.0L378.5,27.0L.0,27.0L.0,.0z" fill-rule="nonzero" fill="#ffcc53"/><text style="fill:#454545;font-family:微软雅黑;font-size:10.00pt" xml:space="preserve"><tspan x="5.3" y="19.0">职责：MyBatis的顶层APl，做为会话访问，完成塔删改查功能。</tspan></text></g><g id="shape22" transform="translate(595.62,70.50)"><path d="M.0,.0L66.0,.0" stroke-width="1" stroke="#424f88" fill="none"/><path d="M66.0,-3.0L72.0,.0L66.0,3.0L66.0,-3.0" stroke-width="1" stroke="#424f88" stroke-linecap="round" fill="#424f88"/></g><g id="shape23" transform="translate(667.85,128.00)"><path d="M.0,.0L442.5,.0L442.5,27.5L.0,27.5L.0,.0z" fill-rule="nonzero" fill="#ffcc53"/><text style="fill:#454545;font-family:微软雅黑;font-size:10.00pt" xml:space="preserve"><tspan x="6.3" y="19.3">职责：MyBatis的核心执行器，负责sql动态语句的生成和查询缓存的维护。</tspan></text></g><g id="shape24" transform="translate(595.62,142.00)"><path d="M.0,.0L66.0,.0" stroke-width="1" stroke="#424f88" fill="none"/><path d="M66.0,-3.0L72.0,.0L66.0,3.0L66.0,-3.0" stroke-width="1" stroke="#424f88" stroke-linecap="round" fill="#424f88"/></g><g id="shape25" transform="translate(667.85,192.42)"><path d="M.0,.0L385.1,.0L385.1,42.2L.0,42.2L.0,.0z" fill-rule="nonzero" fill="#ffcc53"/><text style="fill:#454545;font-family:微软雅黑;font-size:10.00pt" xml:space="preserve"><tspan x="9.6" y="17.1">职责：负责处理JDBC的statement交互，包括对Statement设置</tspan><tspan x="41.6" y="36.1">参教，以及将JDBC返回的resultSet结果集传换成List</tspan></text></g><g id="shape26" transform="translate(595.62,213.50)"><path d="M.0,.0L66.0,.0" stroke-width="1" stroke="#424f88" fill="none"/><path d="M66.0,-3.0L72.0,.0L66.0,3.0L66.0,-3.0" stroke-width="1" stroke="#424f88" stroke-linecap="round" fill="#424f88"/></g><g id="shape27" transform="translate(667.85,271.50)"><path d="M.0,.0L229.9,.0L229.9,27.0L.0,27.0L.0,.0z" fill-rule="nonzero" fill="#ffcc53"/><text style="fill:#454545;font-family:微软雅黑;font-size:10.00pt" xml:space="preserve"><tspan x="4.5" y="19.0">职责：负责将ResultSet集合转换为List</tspan></text></g><g id="shape28" transform="translate(595.62,285.00)"><path d="M.0,.0L66.0,.0" stroke-width="1" stroke="#424f88" fill="none"/><path d="M66.0,-3.0L72.0,.0L66.0,3.0L66.0,-3.0" stroke-width="1" stroke="#424f88" stroke-linecap="round" fill="#424f88"/></g><g id="shape29" transform="translate(85.00,255.25)"><path d="M.0,.0L170.0,.0L170.0,59.5L.0,59.5L.0,.0z" fill-rule="nonzero" fill="#ffcc53"/><text style="fill:#454545;font-family:微软雅黑;font-size:10.00pt" xml:space="preserve"><tspan x="12.0" y="25.8">职责:负责根据传递的参数</tspan><tspan x="7.5" y="44.8">值，对Statement设置参数</tspan></text></g><g id="shape30" transform="translate(316.00,285.00)"><path d="M.0,.0L-55.0,.0" stroke-width="1" stroke="#424f88" fill="none"/><path d="M-55.0,3.0L-61.0,.0L-55.0,-3.0L-55.0,3.0" stroke-width="1" stroke="#424f88" stroke-linecap="round" fill="#424f88"/></g><g id="shape31" transform="translate(605.00,326.00)"><path d="M.0,.0L324.5,.0L324.5,66.0L.0,66.0L.0,.0z" fill-rule="nonzero" fill="#ffcc53"/><text style="fill:#454545;font-family:微软雅黑;font-size:10.00pt" xml:space="preserve"><tspan x="4.3" y="19.0">职责：负责JavaTypc与JdbeType之间的转传换</tspan><tspan x="4.3" y="38.0">1、负责对Statement设置特定的参数</tspan><tspan x="4.3" y="57.0">2、Statement返回的结果集ResultSet，取出特定的列</tspan></text></g><g id="shape32" transform="translate(544.80,359.00)"><path d="M.0,.0L2.5,.0C2.5,-3.3,5.1,-6.0,8.5,-6.0C11.8,-6.0,14.5,-3.3,14.5,.0L54.0,.0" stroke-width="1" stroke="#424f88" fill="none"/><path d="M54.0,-3.0L60.0,.0L54.0,3.0L54.0,-3.0" stroke-width="1" stroke="#424f88" stroke-linecap="round" fill="#424f88"/></g><g id="shape33" transform="translate(322.82,227.00)"><path d="M.0,.0L.0,329.0" stroke-width="1" stroke="#00b050" stroke-dasharray="2.5,2.5" fill="none"/><path d="M3.0,329.0L.0,335.0L-3.0,329.0L3.0,329.0" stroke-width="1" stroke="#00b050" stroke-linecap="round" fill="#00b050"/></g><g id="shape34" transform="translate(349.25,298.50)"><path d="M.0,.0L.0,257.5" stroke-width="1" stroke="#00b050" stroke-dasharray="2.5,2.5" fill="none"/><path d="M3.0,257.5L.0,263.5L-3.0,257.5L3.0,257.5" stroke-width="1" stroke="#00b050" stroke-linecap="round" fill="#00b050"/></g><path d="M.0,.0L.0,.0" id="shape35" stroke-width="1" stroke="#424f88" transform="translate(385.26,372.50)" fill="none"/><g id="shape36" transform="translate(379.66,372.50)"><path d="M.0,.0L-0.0,183.5" stroke-width="1" stroke="#00b050" stroke-dasharray="2.5,2.5" fill="none"/><path d="M3.0,183.5L-0.0,189.5L-3.0,183.5L3.0,183.5" stroke-width="1" stroke="#00b050" stroke-linecap="round" fill="#00b050"/></g><g id="shape37" transform="translate(382.00,298.00)"><path d="M.0,.0L.0,36.0" stroke-width="1" stroke="#00b050" stroke-dasharray="2.5,2.5" fill="none"/><path d="M3.0,36.0L.0,42.0L-3.0,36.0L3.0,36.0" stroke-width="1" stroke="#00b050" stroke-linecap="round" fill="#00b050"/></g><g id="shape38" transform="translate(492.46,451.00)"><path d="M.0,.0L.0,-72.5" stroke-width="1" stroke="#ff0000" stroke-dasharray="2.5,2.5" fill="none"/><path d="M-3.0,-72.5L.0,-78.5L3.0,-72.5L-3.0,-72.5" stroke-width="1" stroke="#ff0000" stroke-linecap="round" fill="#ff0000"/></g><g id="shape39" transform="translate(493.26,345.50)"><path d="M.0,.0L.0,-41.0" stroke-width="1" stroke="#ff0000" stroke-dasharray="2.5,2.5" fill="none"/><path d="M-3.0,-41.0L.0,-47.0L3.0,-41.0L-3.0,-41.0" stroke-width="1" stroke="#ff0000" stroke-linecap="round" fill="#ff0000"/></g><g id="shape40" transform="translate(493.00,271.00)"><path d="M.0,.0L.0,-38.0" stroke-width="1" stroke="#ff0000" stroke-dasharray="2.5,2.5" fill="none"/><path d="M-3.0,-38.0L.0,-44.0L3.0,-38.0L-3.0,-38.0" stroke-width="1" stroke="#ff0000" stroke-linecap="round" fill="#ff0000"/></g><g id="shape41" transform="translate(553.26,451.00)"><path d="M.0,.0L.0,-146.5" stroke-width="1" stroke="#ff0000" stroke-dasharray="2.5,2.5" fill="none"/><path d="M-3.0,-146.5L.0,-152.5L3.0,-146.5L-3.0,-146.5" stroke-width="1" stroke="#ff0000" stroke-linecap="round" fill="#ff0000"/></g><g id="shape42" transform="translate(1374.00,57.00)"><path d="M100.0,588.0L100.0,.0L.0,.0L.0,588.0L100.0,588.0z" stroke-width="3" stroke="#424f88" fill-rule="nonzero" fill="#00b050"/><text style="fill:#424f88;font-family:微软雅黑;font-size:10.00pt" xml:space="preserve"><tspan x="7.5" y="299.5">Configuration</tspan></text></g><path d="M171.0,132.8L171.0,.0L.0,.0L.0,132.8L171.0,132.8z" id="shape43" stroke-width="3" stroke="#424f88" fill-rule="nonzero" transform="translate(1161.50,271.50)" fill="#00b050"/><g id="shape44" transform="translate(1180.83,353.85)"><text style="fill:#454545;font-family:微软雅黑;font-size:10.00pt" xml:space="preserve"><tspan x="8.7" y="24.6">MappedStatement</tspan></text></g><g id="shape45" transform="translate(1197.00,290.50)"><path d="M100.0,27.0L100.0,.0L.0,.0L.0,27.0L100.0,27.0z" stroke-width="3" stroke="#424f88" fill-rule="nonzero" fill="#a49ed7"/><text style="fill:#424f88;font-family:微软雅黑;font-size:10.00pt" xml:space="preserve"><tspan x="19.0" y="19.0">SqlSource</tspan></text></g><g id="shape46" transform="translate(1197.00,324.40)"><path d="M100.0,27.0L100.0,.0L.0,.0L.0,27.0L100.0,27.0z" stroke-width="3" stroke="#424f88" fill-rule="nonzero" fill="#a49ed7"/><text style="fill:#424f88;font-family:微软雅黑;font-size:10.00pt" xml:space="preserve"><tspan x="17.5" y="19.0">ResultMap</tspan></text></g><g id="shape47" transform="translate(1039.00,317.40)"><path d="M100.0,41.0L100.0,.0L.0,.0L.0,41.0L100.0,41.0z" stroke-width="3" stroke="#424f88" fill-rule="nonzero" fill="#00b050"/><text style="fill:#424f88;font-family:微软雅黑;font-size:10.00pt" xml:space="preserve"><tspan x="20.5" y="26.0">BoundSql</tspan></text></g><g id="shape48" transform="translate(1168.09,534.50)"><path d="M.0,.0L145.1,.0L145.1,65.0L.0,65.0L.0,.0z" fill-rule="nonzero" fill="#ffcc53"/><text style="fill:#454545;font-family:微软雅黑;font-size:10.00pt" xml:space="preserve"><tspan x="5.0" y="19.0">MyBais所有的配置编息</tspan><tspan x="4.0" y="38.0">都维持在Configuration</tspan><tspan x="46.5" y="57.0">对象之中</tspan></text></g><g id="shape49" transform="translate(1374.00,567.00)"><path d="M.0,.0L-55.0,.0" stroke-width="1" stroke="#424f88" fill="none"/><path d="M-55.0,3.0L-61.0,.0L-55.0,-3.0L-55.0,3.0" stroke-width="1" stroke="#424f88" stroke-linecap="round" fill="#424f88"/></g><g id="shape50" transform="translate(1122.96,142.43)"><path d="M.0,.0L248.1,.0L248.1,92.1L.0,92.1L.0,.0z" fill-rule="nonzero" fill="#ffcc53"/><text style="fill:#454545;font-family:微软雅黑;font-size:10.00pt" xml:space="preserve"><tspan x="7.0" y="23.1">负责根据用户传递的parameterObject，</tspan><tspan x="20.0" y="42.1">动态地生成SQL语句，将信息封装到</tspan><tspan x="6.0" y="61.1">BoundSqI对象中，并返回BoundSql表示</tspan><tspan x="7.0" y="80.1">动态生成的SQL语句以及相应的参数信息</tspan></text></g><g id="shape51" transform="translate(921.82,414.93)"><path d="M.0,.0L224.7,.0L224.7,78.1L.0,78.1L.0,.0z" fill-rule="nonzero" fill="#ffcc53"/><text style="fill:#454545;font-family:微软雅黑;font-size:10.00pt" xml:space="preserve"><tspan x="79.9" y="25.6">维护了一条</tspan><tspan x="9.9" y="44.6">&lt;select | update | delete | insert></tspan><tspan x="79.9" y="63.6">节点的封装</tspan></text></g><g id="shape52" transform="translate(1247.00,405.00)"><path d="M.0,.0L.0,48.0L-94.0,48.0" stroke-width="1" stroke="#424f88" fill="none"/><path d="M-94.0,51.0L-100.0,48.0L-94.0,45.0L-94.0,51.0" stroke-width="1" stroke="#424f88" stroke-linecap="round" fill="#424f88"/></g><g id="shape53" transform="translate(1247.00,290.50)"><path d="M.0,.0L.0,-50.0" stroke-width="1" stroke="#424f88" fill="none"/><path d="M-3.0,-50.0L.0,-56.0L3.0,-50.0L-3.0,-50.0" stroke-width="1" stroke="#424f88" stroke-linecap="round" fill="#424f88"/></g></g></svg>