<svg xmlns:ev="http://www.w3.org/2001/xml-events" width="831" xmlns:xlink="http://www.w3.org/1999/xlink" height="1087" viewBox="0 0 831 1087" xmlns="http://www.w3.org/2000/svg"><defs/><g transform="translate(5.5,5.5)" id="page3"><rect fill="#ffffff" width="821" height="1077" x="0" y="0"/><g transform="translate(249.63,349.19)" id="group1"><g id="shape2"><path fill="#b2d4eb" stroke-width="2.666670083999634" stroke="#595959" d="M322.0,396.4L322.0,.0L.0,.0L.0,396.4L322.0,396.4z" fill-rule="nonzero"/><text style="fill:#595959;font-family:微软雅黑;font-size:22.00pt;font-weight:bold" xml:space="preserve"><tspan x="8.0" y="35.0">JVM</tspan></text></g><g transform="translate(67.02,258.28)" id="shape3"><path fill="#fddfbb" stroke-width="2.666670083999634" stroke="#595959" d="M177.2,97.9C183.9,97.9,189.2,92.5,189.2,85.9L189.2,12.0C189.2,5.4,183.9,.0,177.2,.0L12.0,.0C5.4,.0,.0,5.4,.0,12.0L.0,85.9C.0,92.5,5.4,97.9,12.0,97.9L177.2,97.9z" fill-rule="nonzero"/><text style="fill:#595959;font-family:微软雅黑;font-size:20.00pt;font-weight:bold" xml:space="preserve"><tspan x="40.6" y="60.0">执行引擎</tspan></text></g><g transform="translate(66.38,40.28)" id="shape4"><path fill="#fddfbb" stroke-width="2.666670083999634" stroke="#595959" d="M177.2,97.9C183.9,97.9,189.2,92.5,189.2,85.9L189.2,12.0C189.2,5.4,183.9,.0,177.2,.0L12.0,.0C5.4,.0,.0,5.4,.0,12.0L.0,85.9C.0,92.5,5.4,97.9,12.0,97.9L177.2,97.9z" fill-rule="nonzero"/><text style="fill:#595959;font-family:微软雅黑;font-size:20.00pt;font-weight:bold" xml:space="preserve"><tspan x="40.6" y="59.9">类加载器</tspan></text></g><path fill="#a34950" transform="matrix(1.00,0.00,0.00,-1.00,148.0,245.7)" id="shape5" stroke-width="2.666670083999634" stroke="#595959" d="M6.5,95.0L6.5,13.2L.0,13.2L13.0,.0L26.0,13.2L19.5,13.2L19.5,95.0L6.5,95.0z" fill-rule="nonzero"/></g><g transform="translate(271.57,863.01)" id="shape6"><path fill="#5c5869" stroke-width="2.666670083999634" stroke="#595959" d="M284.0,131.0L284.0,.0L.0,.0L.0,131.0L284.0,131.0z" fill-rule="nonzero"/><text style="fill:#ffffff;font-family:微软雅黑;font-size:22.00pt;font-weight:bold" xml:space="preserve"><tspan x="84.0" y="77.0">操作系统</tspan></text></g><g transform="translate(590.95,370.17)" id="shape7"><path fill="#dcf6d3" stroke-width="2.666670083999634" stroke="#595959" d="M124.0,143.7C134.9,143.7,143.7,134.9,143.7,124.0L143.7,19.7C143.7,8.8,134.9,.0,124.0,.0L19.7,.0C8.8,.0,.0,8.8,.0,19.7L.0,124.0C.0,134.9,8.8,143.7,19.7,143.7L124.0,143.7z" fill-rule="nonzero"/><text style="fill:#595959;font-family:微软雅黑;font-size:20.00pt;font-weight:bold" xml:space="preserve"><tspan x="8.3" y="64.8">JAVA API</tspan><tspan x="8.8" y="100.8">class 文件</tspan></text></g><path fill="#a34950" transform="matrix(0.00,-1.00,1.00,0.00,512.6,455.0)" id="shape8" stroke-width="2.666670083999634" stroke="#595959" d="M6.5,66.0L6.5,9.1L.0,9.1L13.0,.0L26.0,9.1L19.5,9.1L19.5,66.0L6.5,66.0z" fill-rule="nonzero"/><g transform="translate(44.57,41.51)" id="shape9"><path fill="none" stroke-width="2.666670083999634" stroke="#595959" d="M737.0,217.0L737.0,.0L.0,.0L.0,217.0L737.0,217.0z" stroke-dasharray="11,5"/><text style="fill:#303030;font-family:微软雅黑;font-size:24.00pt" xml:space="preserve"><tspan x="8.0" y="37.0">编译</tspan></text></g><g transform="translate(86.63,94.01)" id="group10"><g transform="translate(506.00,0.00)" id="shape11"><path fill="#dcf6d3" stroke-width="2.666670083999634" stroke="#595959" d="M122.3,142.0C133.2,142.0,142.0,133.2,142.0,122.3L142.0,19.7C142.0,8.8,133.2,.0,122.3,.0L19.7,.0C8.8,.0,.0,8.8,.0,19.7L.0,122.3C.0,133.2,8.8,142.0,19.7,142.0L122.3,142.0z" fill-rule="nonzero"/><text style="fill:#595959;font-family:微软雅黑;font-size:20.00pt;font-weight:bold" xml:space="preserve"><tspan x="39.0" y="64.0">class</tspan><tspan x="44.0" y="100.0">文件</tspan></text></g><g id="shape12"><path fill="#dcf6d3" stroke-width="2.666670083999634" stroke="#595959" d="M122.3,142.0C133.2,142.0,142.0,133.2,142.0,122.3L142.0,19.7C142.0,8.8,133.2,.0,122.3,.0L19.7,.0C8.8,.0,.0,8.8,.0,19.7L.0,122.3C.0,133.2,8.8,142.0,19.7,142.0L122.3,142.0z" fill-rule="nonzero"/><text style="fill:#595959;font-family:微软雅黑;font-size:20.00pt;font-weight:bold" xml:space="preserve"><tspan x="43.0" y="64.0">java</tspan><tspan x="44.0" y="100.0">文件</tspan></text></g><g transform="translate(156.70,22.88)" id="group13"><g transform="translate(75.30,0.00)" id="shape14"><path fill="#fddfbb" stroke-width="2.666670083999634" stroke="#595959" d="M177.9,96.2C184.5,96.2,189.9,90.9,189.9,84.2L189.9,12.0C189.9,5.4,184.5,.0,177.9,.0L12.0,.0C5.4,.0,.0,5.4,.0,12.0L.0,84.2C.0,90.9,5.4,96.2,12.0,96.2L177.9,96.2z" fill-rule="nonzero"/><text style="fill:#595959;font-family:微软雅黑;font-size:20.00pt;font-weight:bold" xml:space="preserve"><tspan x="19.9" y="59.1">Java 编译器</tspan></text></g><path fill="#a34950" transform="matrix(0.00,-1.00,-1.00,0.00,66.2,61.1)" id="shape15" stroke-width="2.666670083999634" stroke="#595959" d="M6.5,66.2L6.5,9.2L.0,9.2L13.0,.0L26.0,9.2L19.5,9.2L19.5,66.2L6.5,66.2z" fill-rule="nonzero"/><path fill="#a34950" transform="matrix(0.00,-1.00,-1.00,0.00,338.1,61.1)" id="shape16" stroke-width="2.666670083999634" stroke="#595959" d="M6.5,63.8L6.5,8.8L.0,8.8L13.0,.0L26.0,8.8L19.5,8.8L19.5,63.8L6.5,63.8z" fill-rule="nonzero"/></g></g><g transform="translate(44.57,297.01)" id="shape17"><path fill="none" stroke-width="2.666670083999634" stroke="#595959" d="M737.0,489.0L737.0,.0L.0,.0L.0,489.0L737.0,489.0z" stroke-dasharray="11,5"/><text style="fill:#303030;font-family:微软雅黑;font-size:24.00pt" xml:space="preserve"><tspan x="8.0" y="37.0">加载与执行</tspan></text></g><g transform="translate(42.13,820.01)" id="shape18"><path fill="none" stroke-width="2.666670083999634" stroke="#595959" d="M737.0,217.0L737.0,.0L.0,.0L.0,217.0L737.0,217.0z" stroke-dasharray="11,5"/><text style="fill:#303030;font-family:微软雅黑;font-size:24.00pt" xml:space="preserve"><tspan x="8.0" y="37.0">底层调用</tspan></text></g><path fill="#a34950" transform="matrix(0.87,-0.50,0.50,0.87,471.9,292.3)" id="shape19" stroke-width="2.666670083999634" stroke="#595959" d="M121.5,.0C121.3,.0,134.2,26.4,103.6,41.5C80.7,52.8,55.3,53.4,52.1,53.4L52.1,64.0L.0,42.7L52.1,21.8L52.1,33.3C55.2,33.3,70.7,33.9,93.2,24.9C116.7,15.4,121.3,.0,121.5,.0z" fill-rule="nonzero"/><path fill="#a34950" transform="matrix(0.00,1.00,1.00,0.00,394.6,756.3)" id="shape20" stroke-width="2.666670083999634" stroke="#595959" d="M.0,5.3L61.5,5.3L61.5,.0L96.0,19.0L61.5,38.0L61.5,32.7L.0,32.7L.0,5.3z" fill-rule="nonzero"/></g></svg>