<svg xmlns="http://www.w3.org/2000/svg" xmlns:xlink="http://www.w3.org/1999/xlink" width="659" height="430" viewBox="0 0 659 430"><defs/><g transform="translate(-157.50,-157.50)"><g id="shape1" transform="translate(159.00,159.00)"><path d="M.0,30.0C.0,13.4,13.4,.0,30.0,.0C46.6,.0,60.0,13.4,60.0,30.0C60.0,46.6,46.6,60.0,30.0,60.0C13.4,60.0,.0,46.6,.0,30.0z" fill-rule="nonzero" stroke="#424f88" fill="#ffcc53" stroke-width="3"/><text style="fill:#424f88;font-family:微软雅黑;font-size:10.00pt" xml:space="preserve"><tspan y="35.5" x="17.0">开始</tspan></text></g><g id="shape2" transform="translate(219.00,189.00)"><path d="M.0,.0L54.0,.0" stroke="#424f88" fill="none" stroke-width="1"/><path d="M54.0,-3.0L60.0,.0L54.0,3.0L54.0,-3.0" stroke-linecap="round" stroke="#424f88" fill="#424f88" stroke-width="1"/></g><g id="shape3" transform="translate(279.00,173.00)"><path d="M99.0,32.0L99.0,.0L.0,.0L.0,32.0L99.0,32.0z" fill-rule="nonzero" stroke="#424f88" fill="#ffcc53" stroke-width="3"/><text style="fill:#424f88;font-family:微软雅黑;font-size:10.00pt" xml:space="preserve"><tspan y="21.5" x="8.0">MapperProxy</tspan></text></g><g id="shape4" transform="translate(378.00,189.00)"><path d="M.0,.0L54.0,.0" stroke="#424f88" fill="none" stroke-width="1"/><path d="M54.0,-3.0L60.0,.0L54.0,3.0L54.0,-3.0" stroke-linecap="round" stroke="#424f88" fill="#424f88" stroke-width="1"/></g><g id="shape5" transform="translate(438.00,159.41)"><path d="M49.5,59.2L99.0,29.6L49.5,.0L.0,29.6L49.5,59.2z" fill-rule="nonzero" stroke="#424f88" fill="#92d050" stroke-width="3"/><text style="fill:#424f88;font-family:微软雅黑;font-size:10.00pt" xml:space="preserve"><tspan y="35.1" x="25.5">invoke()</tspan></text></g><g id="shape6" transform="translate(537.00,189.00)"><path d="M.0,.0L50.0,.0" stroke="#424f88" fill="none" stroke-width="1"/><path d="M50.0,-3.0L56.0,.0L50.0,3.0L50.0,-3.0" stroke-linecap="round" stroke="#424f88" fill="#424f88" stroke-width="1"/></g><g id="shape7" transform="translate(593.50,174.15)"><path d="M99.0,29.7L99.0,.0L.0,.0L.0,29.7L99.0,29.7z" fill-rule="nonzero" stroke="#424f88" fill="#ffcc53" stroke-width="3"/><text style="fill:#424f88;font-family:微软雅黑;font-size:10.00pt" xml:space="preserve"><tspan y="20.4" x="18.5">executor()</tspan></text></g><g id="shape8" transform="translate(692.50,189.00)"><path d="M.0,.0L51.0,.0" stroke="#424f88" fill="none" stroke-width="1"/><path d="M51.0,-3.0L57.0,.0L51.0,3.0L51.0,-3.0" stroke-linecap="round" stroke="#424f88" fill="#424f88" stroke-width="1"/></g><g id="shape9" transform="translate(749.00,175.00)"><path d="M50.5,29.7L50.5,.0L.0,.0L.0,29.7L50.5,29.7z" fill-rule="nonzero" stroke="#424f88" fill="#ffcc53" stroke-width="3"/><text style="fill:#424f88;font-family:微软雅黑;font-size:10.00pt" xml:space="preserve"><tspan y="20.4" x="12.3">路由</tspan></text></g><g id="shape10" transform="translate(774.25,204.70)"><path d="M.0,.0L.0,37.0" stroke="#424f88" fill="none" stroke-width="1"/><path d="M3.0,37.0L.0,43.0L-3.0,37.0L3.0,37.0" stroke-linecap="round" stroke="#424f88" fill="#424f88" stroke-width="1"/></g><g id="shape11" transform="translate(733.50,247.70)"><path d="M81.5,35.3L81.5,.0L.0,.0L.0,35.3L81.5,35.3z" fill-rule="nonzero" stroke="#424f88" fill="#ffcc53" stroke-width="3"/><text style="fill:#424f88;font-family:微软雅黑;font-size:10.00pt" xml:space="preserve"><tspan y="23.1" x="8.3">SqlSession</tspan></text></g><g id="shape12" transform="translate(733.50,265.35)"><path d="M.0,.0L-47.0,.0" stroke="#424f88" fill="none" stroke-width="1"/><path d="M-47.0,3.0L-53.0,.0L-47.0,-3.0L-47.0,3.0" stroke-linecap="round" stroke="#424f88" fill="#424f88" stroke-width="1"/></g><g id="shape13" transform="translate(591.50,217.00)"><path d="M43.8,97.7L87.5,48.9L43.8,.0L.0,48.9L43.8,97.7z" fill-rule="nonzero" stroke="#424f88" fill="#92d050" stroke-width="3"/><text style="fill:#424f88;font-family:微软雅黑;font-size:10.00pt" xml:space="preserve"><tspan y="35.4" x="22.3">select()</tspan><tspan y="54.4" x="37.3">or</tspan><tspan y="73.4" x="18.3">update() </tspan></text></g><g id="shape14" transform="translate(438.00,249.92)"><path d="M100.0,30.9L100.0,.0L.0,.0L.0,30.9L100.0,30.9z" fill-rule="nonzero" stroke="#424f88" fill="#ffcc53" stroke-width="3"/><text style="fill:#424f88;font-family:微软雅黑;font-size:10.00pt" xml:space="preserve"><tspan y="20.9" x="23.0">Executor</tspan></text></g><g id="shape15" transform="translate(591.50,265.86)"><path d="M.0,.0L-47.0,.0" stroke="#424f88" fill="none" stroke-width="1"/><path d="M-47.0,3.0L-53.0,.0L-47.0,-3.0L-47.0,3.0" stroke-linecap="round" stroke="#424f88" fill="#424f88" stroke-width="1"/></g><g id="shape16" transform="translate(309.50,217.27)"><path d="M43.8,97.2L87.5,48.6L43.8,.0L.0,48.6L43.8,97.2z" fill-rule="nonzero" stroke="#424f88" fill="#92d050" stroke-width="3"/><text style="fill:#424f88;font-family:微软雅黑;font-size:10.00pt" xml:space="preserve"><tspan y="35.1" x="22.3">query()</tspan><tspan y="54.1" x="37.3">or</tspan><tspan y="73.1" x="18.3">update() </tspan></text></g><g id="shape17" transform="translate(438.00,265.35)"><path d="M.0,.0L-36.0,.0" stroke="#424f88" fill="none" stroke-width="1"/><path d="M-36.0,3.0L-42.0,.0L-36.0,-3.0L-36.0,3.0" stroke-linecap="round" stroke="#424f88" fill="#424f88" stroke-width="1"/></g><g id="shape18" transform="translate(286.75,353.73)"><path d="M133.0,38.3L133.0,.0L.0,.0L.0,38.3L133.0,38.3z" fill-rule="nonzero" stroke="#424f88" fill="#ffcc53" stroke-width="3"/><text style="fill:#424f88;font-family:微软雅黑;font-size:10.00pt" xml:space="preserve"><tspan y="25.0" x="10.5">StatementHandler</tspan></text></g><g id="shape19" transform="translate(353.00,314.00)"><path d="M.0,.0L.0,33.0" stroke="#424f88" fill="none" stroke-width="1"/><path d="M3.0,33.0L.0,39.0L-3.0,33.0L3.0,33.0" stroke-linecap="round" stroke="#424f88" fill="#424f88" stroke-width="1"/></g><g id="shape20" transform="translate(472.00,324.27)"><path d="M43.8,97.2L87.5,48.6L43.8,.0L.0,48.6L43.8,97.2z" fill-rule="nonzero" stroke="#424f88" fill="#92d050" stroke-width="3"/><text style="fill:#424f88;font-family:微软雅黑;font-size:10.00pt" xml:space="preserve"><tspan y="35.1" x="22.3">query()</tspan><tspan y="54.1" x="37.3">or</tspan><tspan y="73.1" x="18.3">update() </tspan></text></g><g id="shape21" transform="translate(419.00,372.00)"><path d="M.0,.0L47.0,.0" stroke="#424f88" fill="none" stroke-width="1"/><path d="M47.0,-3.0L53.0,.0L47.0,3.0L47.0,-3.0" stroke-linecap="round" stroke="#424f88" fill="#424f88" stroke-width="1"/></g><g id="shape22" transform="translate(611.75,353.73)"><path d="M133.0,38.3L133.0,.0L.0,.0L.0,38.3L133.0,38.3z" fill-rule="nonzero" stroke="#424f88" fill="#ffcc53" stroke-width="3"/><text style="fill:#424f88;font-family:微软雅黑;font-size:10.00pt" xml:space="preserve"><tspan y="25.0" x="14.0">ResultSetHandler</tspan></text></g><g id="shape23" transform="translate(559.00,372.00)"><path d="M.0,.0L46.0,.0" stroke="#424f88" fill="none" stroke-width="1"/><path d="M46.0,-3.0L52.0,.0L46.0,3.0L46.0,-3.0" stroke-linecap="round" stroke="#424f88" fill="#424f88" stroke-width="1"/></g><g id="shape24" transform="translate(678.25,392.00)"><path d="M.0,.0L.0,42.0" stroke="#424f88" fill="none" stroke-width="1"/><path d="M3.0,42.0L.0,48.0L-3.0,42.0L3.0,42.0" stroke-linecap="round" stroke="#424f88" fill="#424f88" stroke-width="1"/></g><g id="shape25" transform="translate(593.50,441.90)"><path d="M84.4,60.2L168.8,30.1L84.4,.0L.0,30.1L84.4,60.2z" fill-rule="nonzero" stroke="#424f88" fill="#92d050" stroke-width="3"/><text style="fill:#424f88;font-family:微软雅黑;font-size:10.00pt" xml:space="preserve"><tspan y="16.6" x="58.4">返回结果</tspan><tspan y="35.6" x="32.4">handleResultSets</tspan><tspan y="54.6" x="80.4">()</tspan></text></g><g id="shape26" transform="translate(677.88,502.10)"><path d="M.0,.0L.0,34.0" stroke="#424f88" fill="none" stroke-width="1"/><path d="M3.0,34.0L.0,40.0L-3.0,34.0L3.0,34.0" stroke-linecap="round" stroke="#424f88" fill="#424f88" stroke-width="1"/></g><g id="shape27" transform="translate(641.50,543.10)"><path d="M71.5,42.9L71.5,.0L.0,.0L.0,42.9L71.5,42.9z" fill-rule="nonzero" stroke="#424f88" fill="#ffcc53" stroke-width="3"/><text style="fill:#424f88;font-family:微软雅黑;font-size:10.00pt" xml:space="preserve"><tspan y="27.0" x="22.8">结束</tspan></text></g><g id="shape28" transform="translate(218.50,441.90)"><path d="M74.1,49.5L148.3,24.8L74.1,.0L.0,24.8L74.1,49.5z" fill-rule="nonzero" stroke="#424f88" fill="#92d050" stroke-width="3"/><text style="fill:#424f88;font-family:微软雅黑;font-size:10.00pt" xml:space="preserve"><tspan y="30.3" x="30.6">parameterize()</tspan></text></g><g id="shape29" transform="translate(292.63,491.41)"><path d="M.0,.0L.0,21.0" stroke="#424f88" fill="none" stroke-width="1"/><path d="M3.0,21.0L.0,27.0L-3.0,21.0L3.0,21.0" stroke-linecap="round" stroke="#424f88" fill="#424f88" stroke-width="1"/></g><g id="shape30" transform="translate(218.50,520.00)"><path d="M148.3,34.6L148.3,.0L.0,.0L.0,34.6L148.3,34.6z" fill-rule="nonzero" stroke="#424f88" fill="#ffcc53" stroke-width="3"/><text style="fill:#424f88;font-family:微软雅黑;font-size:10.00pt" xml:space="preserve"><tspan y="22.8" x="18.6">ParameterHandler</tspan></text></g><g id="shape31" transform="translate(399.75,514.89)"><path d="M74.1,44.8L148.3,22.4L74.1,.0L.0,22.4L74.1,44.8z" fill-rule="nonzero" stroke="#424f88" fill="#92d050" stroke-width="3"/><text style="fill:#424f88;font-family:微软雅黑;font-size:10.00pt" xml:space="preserve"><tspan y="18.4" x="28.6">setParameters(</tspan><tspan y="37.4" x="72.1">)</tspan></text></g><g id="shape32" transform="translate(366.75,537.29)"><path d="M.0,.0L27.0,.0" stroke="#424f88" fill="none" stroke-width="1"/><path d="M27.0,-3.0L33.0,.0L27.0,3.0L27.0,-3.0" stroke-linecap="round" stroke="#424f88" fill="#424f88" stroke-width="1"/></g><g id="shape33" transform="translate(473.00,514.00)"><path d="M.0,.0L.0,-65.0L-71.0,-65.0L-71.0,-115.0" stroke="#424f88" fill="none" stroke-width="1"/><path d="M-74.0,-115.0L-71.0,-121.0L-68.0,-115.0L-74.0,-115.0" stroke-linecap="round" stroke="#424f88" fill="#424f88" stroke-width="1"/></g><g id="shape34" transform="translate(309.00,393.00)"><path d="M.0,.0L.0,38.0L-17.0,38.0L-17.0,42.0" stroke="#424f88" fill="none" stroke-width="1"/><path d="M-14.0,42.0L-17.0,48.0L-20.0,42.0L-14.0,42.0" stroke-linecap="round" stroke="#424f88" fill="#424f88" stroke-width="1"/></g></g></svg>