<svg height="731" width="882" xmlns:xlink="http://www.w3.org/1999/xlink" xmlns="http://www.w3.org/2000/svg" viewBox="0 0 882 731"><defs/><g transform="translate(-121.50,-92.50)"><path fill-rule="nonzero" fill="#ffffff" d="M879.0,728.0L879.0,.0L.0,.0L.0,728.0L879.0,728.0z" stroke-width="3" stroke="#34c2c2" transform="translate(123.00,94.00)" id="shape1"/><path fill-rule="nonzero" fill="#ffffff" d="M825.0,108.0L825.0,.0L.0,.0L.0,108.0L825.0,108.0z" stroke-width="3" stroke="#34c2c2" transform="translate(148.76,187.43)" id="shape2"/><g transform="translate(482.38,113.00)" id="shape3"><path fill-rule="nonzero" fill="#ffffff" d="M.0,.0L176.8,.0L176.8,51.6L.0,51.6L.0,.0z" stroke-width="3" stroke="#7b9fd9"/><text style="fill:#7b9fd9;font-family:微软雅黑;font-size:10.00pt" xml:space="preserve"><tspan y="31.3" x="44.4">MyBatis架构图</tspan></text></g><g transform="translate(148.76,187.43)" id="shape4"><path fill-rule="nonzero" fill="#ffffff" d="M31.0,108.0L31.0,.0L.0,.0L.0,108.0L31.0,108.0z" stroke-width="3" stroke="#34c2c2"/><text style="fill:#34c2c2;font-family:微软雅黑;font-size:10.00pt" xml:space="preserve"><tspan y="40.5" x="9.0">接</tspan><tspan y="59.5" x="9.0">口</tspan><tspan y="78.5" x="9.0">层</tspan></text></g><g transform="translate(198.76,248.71)" id="shape5"><path fill-rule="nonzero" fill="#ffffff" d="M100.0,38.0L100.0,.0L.0,.0L.0,38.0L100.0,38.0z" stroke-width="3" stroke="#34c2c2"/><text style="fill:#34c2c2;font-family:微软雅黑;font-size:10.00pt" xml:space="preserve"><tspan y="24.5" x="11.0">数据查询接口</tspan></text></g><g transform="translate(356.76,248.71)" id="shape6"><path fill-rule="nonzero" fill="#ffffff" d="M100.0,38.0L100.0,.0L.0,.0L.0,38.0L100.0,38.0z" stroke-width="3" stroke="#34c2c2"/><text style="fill:#34c2c2;font-family:微软雅黑;font-size:10.00pt" xml:space="preserve"><tspan y="24.5" x="11.0">数据增加接口</tspan></text></g><g transform="translate(520.76,248.71)" id="shape7"><path fill-rule="nonzero" fill="#ffffff" d="M100.0,38.0L100.0,.0L.0,.0L.0,38.0L100.0,38.0z" stroke-width="3" stroke="#34c2c2"/><text style="fill:#34c2c2;font-family:微软雅黑;font-size:10.00pt" xml:space="preserve"><tspan y="24.5" x="11.0">数据更新接口</tspan></text></g><g transform="translate(684.76,248.71)" id="shape8"><path fill-rule="nonzero" fill="#ffffff" d="M100.0,38.0L100.0,.0L.0,.0L.0,38.0L100.0,38.0z" stroke-width="3" stroke="#34c2c2"/><text style="fill:#34c2c2;font-family:微软雅黑;font-size:10.00pt" xml:space="preserve"><tspan y="24.5" x="11.0">数据删除接口</tspan></text></g><g transform="translate(847.76,248.71)" id="shape9"><path fill-rule="nonzero" fill="#ffffff" d="M100.0,38.0L100.0,.0L.0,.0L.0,38.0L100.0,38.0z" stroke-width="3" stroke="#34c2c2"/><text style="fill:#34c2c2;font-family:微软雅黑;font-size:10.00pt" xml:space="preserve"><tspan y="24.5" x="11.0">获取配置接口</tspan></text></g><path fill-rule="nonzero" fill="#ffffff" d="M825.0,293.0L825.0,.0L.0,.0L.0,293.0L825.0,293.0z" stroke-width="3" stroke="#34c2c2" transform="translate(148.76,331.00)" id="shape10"/><g transform="translate(148.76,331.00)" id="shape11"><path fill-rule="nonzero" fill="#ffffff" d="M31.0,293.0L31.0,.0L.0,.0L.0,293.0L31.0,293.0z" stroke-width="3" stroke="#34c2c2"/><text style="fill:#34c2c2;font-family:微软雅黑;font-size:10.00pt" xml:space="preserve"><tspan y="114.0" x="9.0">数</tspan><tspan y="133.0" x="9.0">据</tspan><tspan y="152.0" x="9.0">处</tspan><tspan y="171.0" x="9.0">理</tspan><tspan y="190.0" x="9.0">层</tspan></text></g><path fill-rule="nonzero" fill="#ffffff" d="M138.0,227.0L138.0,.0L.0,.0L.0,227.0L138.0,227.0z" stroke-width="3" stroke="#34c2c2" transform="translate(223.02,385.10)" id="shape12"/><g transform="translate(242.02,438.10)" id="shape13"><path fill-rule="nonzero" fill="#ffffff" d="M100.0,41.0L100.0,.0L.0,.0L.0,41.0L100.0,41.0z" stroke-width="3" stroke="#34c2c2"/><text style="fill:#34c2c2;font-family:微软雅黑;font-size:10.00pt" xml:space="preserve"><tspan y="26.0" x="11.0">参数映射配置</tspan></text></g><g transform="translate(242.02,397.10)" id="shape14"><path fill-rule="nonzero" fill="#ffffff" d="M.0,.0L100.0,.0L100.0,35.0L.0,35.0L.0,.0z" stroke-width="3" stroke="#ef8f8a"/><text style="fill:#454545;font-family:微软雅黑;font-size:10.00pt" xml:space="preserve"><tspan y="23.0" x="24.0">参数配置</tspan></text></g><g transform="translate(242.02,496.60)" id="shape15"><path fill-rule="nonzero" fill="#ffffff" d="M100.0,41.0L100.0,.0L.0,.0L.0,41.0L100.0,41.0z" stroke-width="3" stroke="#34c2c2"/><text style="fill:#34c2c2;font-family:微软雅黑;font-size:10.00pt" xml:space="preserve"><tspan y="26.0" x="11.0">参数映射解析</tspan></text></g><g transform="translate(242.02,555.10)" id="shape16"><path fill-rule="nonzero" fill="#ffffff" d="M100.0,41.0L100.0,.0L.0,.0L.0,41.0L100.0,41.0z" stroke-width="3" stroke="#34c2c2"/><text style="fill:#34c2c2;font-family:微软雅黑;font-size:10.00pt" xml:space="preserve"><tspan y="26.0" x="11.0">参数类型解析</tspan></text></g><g transform="translate(232.02,346.43)" id="shape17"><path fill-rule="nonzero" fill="#ffffff" d="M.0,.0L120.0,.0L120.0,35.0L.0,35.0L.0,.0z" stroke-width="3" stroke="#a49ed7"/><text style="fill:#454545;font-family:微软雅黑;font-size:10.00pt" xml:space="preserve"><tspan y="23.0" x="17.5">paramterType</tspan></text></g><path fill-rule="nonzero" fill="#ffffff" d="M138.0,227.0L138.0,.0L.0,.0L.0,227.0L138.0,227.0z" stroke-width="3" stroke="#34c2c2" transform="translate(412.89,385.10)" id="shape18"/><g transform="translate(431.89,438.10)" id="shape19"><path fill-rule="nonzero" fill="#ffffff" d="M100.0,41.0L100.0,.0L.0,.0L.0,41.0L100.0,41.0z" stroke-width="3" stroke="#34c2c2"/><text style="fill:#34c2c2;font-family:微软雅黑;font-size:10.00pt" xml:space="preserve"><tspan y="26.0" x="24.0">SQL获取</tspan></text></g><g transform="translate(431.89,397.10)" id="shape20"><path fill-rule="nonzero" fill="#ffffff" d="M.0,.0L100.0,.0L100.0,35.0L.0,35.0L.0,.0z" stroke-width="3" stroke="#ef8f8a"/><text style="fill:#454545;font-family:微软雅黑;font-size:10.00pt" xml:space="preserve"><tspan y="23.0" x="24.0">SQL解析</tspan></text></g><g transform="translate(431.89,496.60)" id="shape21"><path fill-rule="nonzero" fill="#ffffff" d="M100.0,41.0L100.0,.0L.0,.0L.0,41.0L100.0,41.0z" stroke-width="3" stroke="#34c2c2"/><text style="fill:#34c2c2;font-family:微软雅黑;font-size:10.00pt" xml:space="preserve"><tspan y="26.0" x="24.0">SQL解析</tspan></text></g><g transform="translate(431.89,555.10)" id="shape22"><path fill-rule="nonzero" fill="#ffffff" d="M100.0,41.0L100.0,.0L.0,.0L.0,41.0L100.0,41.0z" stroke-width="3" stroke="#34c2c2"/><text style="fill:#34c2c2;font-family:微软雅黑;font-size:10.00pt" xml:space="preserve"><tspan y="26.0" x="24.0">SQ动态L</tspan></text></g><g transform="translate(388.76,346.43)" id="shape23"><path fill-rule="nonzero" fill="#ffffff" d="M.0,.0L175.0,.0L175.0,35.0L.0,35.0L.0,.0z" stroke-width="3" stroke="#a49ed7"/><text style="fill:#454545;font-family:微软雅黑;font-size:10.00pt" xml:space="preserve"><tspan y="23.0" x="9.5">解析SQL语句并替代占位符</tspan></text></g><path fill-rule="nonzero" fill="#ffffff" d="M138.0,227.0L138.0,.0L.0,.0L.0,227.0L138.0,227.0z" stroke-width="3" stroke="#34c2c2" transform="translate(602.76,385.10)" id="shape24"/><g transform="translate(616.76,438.10)" id="shape25"><path fill-rule="nonzero" fill="#ffffff" d="M110.0,41.0L110.0,.0L.0,.0L.0,41.0L110.0,41.0z" stroke-width="3" stroke="#34c2c2"/><text style="fill:#34c2c2;font-family:微软雅黑;font-size:10.00pt" xml:space="preserve"><tspan y="26.0" x="7.5">SimpleExecutor</tspan></text></g><g transform="translate(621.76,397.10)" id="shape26"><path fill-rule="nonzero" fill="#ffffff" d="M.0,.0L100.0,.0L100.0,35.0L.0,35.0L.0,.0z" stroke-width="3" stroke="#ef8f8a"/><text style="fill:#454545;font-family:微软雅黑;font-size:10.00pt" xml:space="preserve"><tspan y="23.0" x="24.0">SQL执行</tspan></text></g><g transform="translate(621.76,496.60)" id="shape27"><path fill-rule="nonzero" fill="#ffffff" d="M100.0,41.0L100.0,.0L.0,.0L.0,41.0L100.0,41.0z" stroke-width="3" stroke="#34c2c2"/><text style="fill:#34c2c2;font-family:微软雅黑;font-size:10.00pt" xml:space="preserve"><tspan y="26.0" x="5.5">BatchExecutor</tspan></text></g><g transform="translate(621.76,555.10)" id="shape28"><path fill-rule="nonzero" fill="#ffffff" d="M100.0,41.0L100.0,.0L.0,.0L.0,41.0L100.0,41.0z" stroke-width="3" stroke="#34c2c2"/><text style="fill:#34c2c2;font-family:微软雅黑;font-size:10.00pt" xml:space="preserve"><tspan y="26.0" x="5.0">ReuseExecutor</tspan></text></g><g transform="translate(611.76,346.43)" id="shape29"><path fill-rule="nonzero" fill="#ffffff" d="M.0,.0L120.0,.0L120.0,35.0L.0,35.0L.0,.0z" stroke-width="3" stroke="#a49ed7"/><text style="fill:#454545;font-family:微软雅黑;font-size:10.00pt" xml:space="preserve"><tspan y="23.0" x="5.0">底层底层调用JDBC</tspan></text></g><path fill-rule="nonzero" fill="#ffffff" d="M138.0,227.0L138.0,.0L.0,.0L.0,227.0L138.0,227.0z" stroke-width="3" stroke="#34c2c2" transform="translate(809.76,385.10)" id="shape30"/><g transform="translate(828.76,438.10)" id="shape31"><path fill-rule="nonzero" fill="#ffffff" d="M100.0,41.0L100.0,.0L.0,.0L.0,41.0L100.0,41.0z" stroke-width="3" stroke="#34c2c2"/><text style="fill:#34c2c2;font-family:微软雅黑;font-size:10.00pt" xml:space="preserve"><tspan y="26.0" x="11.0">结果映射配置</tspan></text></g><g transform="translate(828.76,397.10)" id="shape32"><path fill-rule="nonzero" fill="#ffffff" d="M.0,.0L100.0,.0L100.0,35.0L.0,35.0L.0,.0z" stroke-width="3" stroke="#ef8f8a"/><text style="fill:#454545;font-family:微软雅黑;font-size:10.00pt" xml:space="preserve"><tspan y="23.0" x="24.0">参数配置</tspan></text></g><g transform="translate(828.76,496.60)" id="shape33"><path fill-rule="nonzero" fill="#ffffff" d="M100.0,41.0L100.0,.0L.0,.0L.0,41.0L100.0,41.0z" stroke-width="3" stroke="#34c2c2"/><text style="fill:#34c2c2;font-family:微软雅黑;font-size:10.00pt" xml:space="preserve"><tspan y="26.0" x="11.0">结果类型转换</tspan></text></g><g transform="translate(828.76,555.10)" id="shape34"><path fill-rule="nonzero" fill="#ffffff" d="M100.0,41.0L100.0,.0L.0,.0L.0,41.0L100.0,41.0z" stroke-width="3" stroke="#34c2c2"/><text style="fill:#34c2c2;font-family:微软雅黑;font-size:10.00pt" xml:space="preserve"><tspan y="26.0" x="11.0">参数数据拷贝</tspan></text></g><g transform="translate(797.26,344.07)" id="shape35"><path fill-rule="nonzero" fill="#ffffff" d="M.0,.0L163.0,.0L163.0,37.4L.0,37.4L.0,.0z" stroke-width="3" stroke="#a49ed7"/><text style="fill:#454545;font-family:微软雅黑;font-size:10.00pt" xml:space="preserve"><tspan y="24.2" x="7.5">将ResultSet进行结果映射</tspan></text></g><g transform="translate(361.02,498.60)" id="shape36"><path fill="none" d="M.0,.0L43.0,.0" stroke-width="1" stroke="#424f88"/><path fill="#424f88" d="M43.0,-4.0L51.0,.0L43.0,4.0L43.0,-4.0" stroke-linecap="round" stroke-width="1" stroke="#424f88"/></g><g transform="translate(550.89,498.60)" id="shape37"><path fill="none" d="M.0,.0L44.0,.0" stroke-width="1" stroke="#424f88"/><path fill="#424f88" d="M44.0,-4.0L52.0,.0L44.0,4.0L44.0,-4.0" stroke-linecap="round" stroke-width="1" stroke="#424f88"/></g><path fill-rule="nonzero" fill="#ffffff" d="M825.0,134.0L825.0,.0L.0,.0L.0,134.0L825.0,134.0z" stroke-width="3" stroke="#34c2c2" transform="translate(148.76,661.00)" id="shape38"/><g transform="translate(148.76,661.00)" id="shape39"><path fill-rule="nonzero" fill="#ffffff" d="M31.0,134.0L31.0,.0L.0,.0L.0,134.0L31.0,134.0z" stroke-width="3" stroke="#34c2c2"/><text style="fill:#34c2c2;font-family:微软雅黑;font-size:10.00pt" xml:space="preserve"><tspan y="34.5" x="9.0">基</tspan><tspan y="53.5" x="9.0">础</tspan><tspan y="72.5" x="9.0">支</tspan><tspan y="91.5" x="9.0">持</tspan><tspan y="110.5" x="9.0">层</tspan></text></g><g transform="translate(256.76,681.00)" id="shape40"><path fill-rule="nonzero" fill="#ffffff" d="M100.0,44.1L100.0,.0L.0,.0L.0,44.1L100.0,44.1z" stroke-width="3" stroke="#34c2c2"/><text style="fill:#34c2c2;font-family:微软雅黑;font-size:10.00pt" xml:space="preserve"><tspan y="27.6" x="17.5">连接池管理</tspan></text></g><g transform="translate(388.76,681.00)" id="shape41"><path fill-rule="nonzero" fill="#ffffff" d="M100.0,44.1L100.0,.0L.0,.0L.0,44.1L100.0,44.1z" stroke-width="3" stroke="#34c2c2"/><text style="fill:#34c2c2;font-family:微软雅黑;font-size:10.00pt" xml:space="preserve"><tspan y="28.0" x="17.5">数据源模块</tspan></text></g><g transform="translate(520.76,681.00)" id="shape42"><path fill-rule="nonzero" fill="#ffffff" d="M100.0,44.1L100.0,.0L.0,.0L.0,44.1L100.0,44.1z" stroke-width="3" stroke="#34c2c2"/><text style="fill:#34c2c2;font-family:微软雅黑;font-size:10.00pt" xml:space="preserve"><tspan y="28.0" x="11.0">资源加载模块</tspan></text></g><g transform="translate(652.76,681.00)" id="shape43"><path fill-rule="nonzero" fill="#ffffff" d="M100.0,44.1L100.0,.0L.0,.0L.0,44.1L100.0,44.1z" stroke-width="3" stroke="#34c2c2"/><text style="fill:#34c2c2;font-family:微软雅黑;font-size:10.00pt" xml:space="preserve"><tspan y="27.6" x="24.0">缓存处理</tspan></text></g><g transform="translate(784.76,681.00)" id="shape44"><path fill-rule="nonzero" fill="#ffffff" d="M100.0,44.1L100.0,.0L.0,.0L.0,44.1L100.0,44.1z" stroke-width="3" stroke="#34c2c2"/><text style="fill:#34c2c2;font-family:微软雅黑;font-size:10.00pt" xml:space="preserve"><tspan y="27.6" x="24.0">事务管理</tspan></text></g><g transform="translate(740.00,498.00)" id="shape45"><path fill="none" d="M.0,.0L64.0,.0" stroke-width="1" stroke="#424f88"/><path fill="#424f88" d="M64.0,-5.0L69.0,.0L64.0,5.0L64.0,-5.0" stroke-linecap="round" stroke-width="1" stroke="#424f88"/></g><g transform="translate(198.76,201.71)" id="shape46"><path fill-rule="nonzero" fill="#d27d79" d="M749.0,38.0L749.0,.0L.0,.0L.0,38.0L749.0,38.0z" stroke-width="1" stroke="#d27d79"/><text style="fill:#ffffff;font-family:微软雅黑;font-size:10.00pt" xml:space="preserve"><tspan y="24.5" x="342.0">SqlSession</tspan></text></g><g transform="translate(256.76,738.00)" id="shape47"><path fill-rule="nonzero" fill="#ffffff" d="M100.0,44.1L100.0,.0L.0,.0L.0,44.1L100.0,44.1z" stroke-width="3" stroke="#34c2c2"/><text style="fill:#34c2c2;font-family:微软雅黑;font-size:10.00pt" xml:space="preserve"><tspan y="28.0" x="24.0">反射模块</tspan></text></g><g transform="translate(388.76,738.00)" id="shape48"><path fill-rule="nonzero" fill="#ffffff" d="M100.0,44.1L100.0,.0L.0,.0L.0,44.1L100.0,44.1z" stroke-width="3" stroke="#34c2c2"/><text style="fill:#34c2c2;font-family:微软雅黑;font-size:10.00pt" xml:space="preserve"><tspan y="28.0" x="11.0">类型转换模块</tspan></text></g><g transform="translate(520.76,738.00)" id="shape49"><path fill-rule="nonzero" fill="#ffffff" d="M100.0,44.1L100.0,.0L.0,.0L.0,44.1L100.0,44.1z" stroke-width="3" stroke="#34c2c2"/><text style="fill:#34c2c2;font-family:微软雅黑;font-size:10.00pt" xml:space="preserve"><tspan y="28.0" x="24.0">日志模块</tspan></text></g><g transform="translate(652.76,738.00)" id="shape50"><path fill-rule="nonzero" fill="#ffffff" d="M100.0,44.1L100.0,.0L.0,.0L.0,44.1L100.0,44.1z" stroke-width="3" stroke="#34c2c2"/><text style="fill:#34c2c2;font-family:微软雅黑;font-size:10.00pt" xml:space="preserve"><tspan y="28.0" x="17.5">解析器模块</tspan></text></g><g transform="translate(784.76,738.00)" id="shape51"><path fill-rule="nonzero" fill="#ffffff" d="M100.0,44.1L100.0,.0L.0,.0L.0,44.1L100.0,44.1z" stroke-width="3" stroke="#34c2c2"/><text style="fill:#34c2c2;font-family:微软雅黑;font-size:10.00pt" xml:space="preserve"><tspan y="28.0" x="12.0">Binding 模块</tspan></text></g></g></svg>