<svg width="497" xmlns="http://www.w3.org/2000/svg" height="584" xmlns:xlink="http://www.w3.org/1999/xlink" viewBox="0 0 497 584"><defs/><g transform="translate(-298.91,-157.99)"><path stroke-width="3.333329916000366" id="shape1" transform="translate(356.50,159.65)" fill="#f4f9f7" stroke="#35b58f" fill-rule="nonzero" d="M374.0,145.3L374.0,7.0C374.0,3.1,370.9,.0,367.0,.0L7.0,.0C3.1,.0,.0,3.1,.0,7.0L.0,145.3C.0,149.2,3.1,152.3,7.0,152.3L367.0,152.3C370.9,152.3,374.0,149.2,374.0,145.3z"/><g id="shape2" transform="translate(481.50,159.65)"><text style="fill:#454545;font-family:微软雅黑;font-size:10.00pt" xml:space="preserve"><tspan y="23.0" x="9.5">MyBatis配置文件</tspan></text></g><g id="shape3" transform="translate(470.00,206.65)"><path stroke-width="3.333329916000366" fill="#f4f9f7" stroke="#35b58f" fill-rule="nonzero" d="M143.0,35.0L143.0,.0L.0,.0L.0,35.0L143.0,35.0z"/><text style="fill:#303030;font-family:微软雅黑;font-size:10.00pt" xml:space="preserve"><tspan y="23.0" x="15.0">SqlMapConfig.xml</tspan></text></g><g id="shape4" transform="translate(368.50,259.65)"><path stroke-width="3.333329916000366" fill="#f4f9f7" stroke="#35b58f" fill-rule="nonzero" d="M100.0,35.0L100.0,.0L.0,.0L.0,35.0L100.0,35.0z"/><text style="fill:#303030;font-family:微软雅黑;font-size:10.00pt" xml:space="preserve"><tspan y="23.0" x="9.5">Mapper1.xml</tspan></text></g><g id="shape5" transform="translate(491.50,259.65)"><path stroke-width="3.333329916000366" fill="#f4f9f7" stroke="#35b58f" fill-rule="nonzero" d="M100.0,35.0L100.0,.0L.0,.0L.0,35.0L100.0,35.0z"/><text style="fill:#303030;font-family:微软雅黑;font-size:10.00pt" xml:space="preserve"><tspan y="23.0" x="9.5">Mapper2.xml</tspan></text></g><g id="shape6" transform="translate(614.50,257.65)"><path stroke-width="3.333329916000366" fill="#f4f9f7" stroke="#35b58f" fill-rule="nonzero" d="M100.0,37.0L100.0,.0L.0,.0L.0,37.0L100.0,37.0z"/><text style="fill:#303030;font-family:微软雅黑;font-size:10.00pt" xml:space="preserve"><tspan y="24.0" x="9.5">Mapper3.xml</tspan></text></g><g id="shape7" transform="translate(478.25,337.95)"><path stroke-width="3.333329916000366" fill="#f4f9f7" stroke="#35b58f" fill-rule="nonzero" d="M130.5,49.1L130.5,.0L.0,.0L.0,49.1L130.5,49.1z"/><text style="fill:#303030;font-family:微软雅黑;font-size:10.00pt" xml:space="preserve"><tspan y="30.1" x="9.8">SqlSessionFactory</tspan></text></g><g id="shape8" transform="translate(543.50,312.00)"><path stroke-width="2" fill="none" stroke="#454545" d="M.0,.0L.0,15.5"/><path stroke-width="1" fill="#454545" stroke="#454545" stroke-linecap="round" d="M4.2,15.5L.0,24.0L-4.2,15.5L4.2,15.5"/></g><g id="shape9" transform="translate(543.50,387.10)"><path stroke-width="2" fill="none" stroke="#454545" d="M.0,.0L.0,27.5"/><path stroke-width="1" fill="#454545" stroke="#454545" stroke-linecap="round" d="M4.2,27.5L.0,36.0L-4.2,27.5L4.2,27.5"/></g><g id="shape10" transform="translate(478.25,424.40)"><path stroke-width="3.333329916000366" fill="#f4f9f7" stroke="#35b58f" fill-rule="nonzero" d="M130.5,49.1L130.5,.0L.0,.0L.0,49.1L130.5,49.1z"/><text style="fill:#303030;font-family:微软雅黑;font-size:10.00pt" xml:space="preserve"><tspan y="30.5" x="32.8">SqlSession</tspan></text></g><g id="shape11" transform="translate(543.50,473.55)"><path stroke-width="2" fill="none" stroke="#454545" d="M.0,.0L.0,28.5"/><path stroke-width="1" fill="#454545" stroke="#454545" stroke-linecap="round" d="M4.2,28.5L.0,37.0L-4.2,28.5L4.2,28.5"/></g><g id="shape12" transform="translate(485.07,510.85)"><path stroke-width="3.333329916000366" fill="#f4f9f7" stroke="#35b58f" fill-rule="nonzero" d="M116.9,49.1L116.9,.0L.0,.0L.0,49.1L116.9,49.1z"/><text style="fill:#303030;font-family:微软雅黑;font-size:10.00pt" xml:space="preserve"><tspan y="30.1" x="31.4">Executor</tspan></text></g><g id="shape13" transform="translate(543.50,560.00)"><path stroke-width="2" fill="none" stroke="#454545" d="M.0,.0L.0,27.5"/><path stroke-width="1" fill="#454545" stroke="#454545" stroke-linecap="round" d="M4.2,27.5L.0,36.0L-4.2,27.5L4.2,27.5"/></g><g id="shape14" transform="translate(478.25,597.30)"><path stroke-width="3.333329916000366" fill="#f4f9f7" stroke="#35b58f" fill-rule="nonzero" d="M130.5,49.1L130.5,.0L.0,.0L.0,49.1L130.5,49.1z"/><text style="fill:#303030;font-family:微软雅黑;font-size:10.00pt" xml:space="preserve"><tspan y="30.5" x="7.8">MappedStatement</tspan></text></g><g id="shape15" transform="translate(493.50,680.00)"><path fill="#f4f9f7" fill-rule="nonzero" d="M.0,10.0L.0,50.0L.0,50.0C.0,55.5,22.4,60.0,50.0,60.0C77.6,60.0,100.0,55.5,100.0,50.0L100.0,10.0L100.0,10.0C100.0,4.5,77.6,.0,50.0,.0C22.4,.0,.0,4.5,.0,10.0z"/><path stroke-width="3.333329916000366" fill="none" stroke="#35b58f" d="M.0,10.0L.0,50.0L.0,50.0C.0,55.5,22.4,60.0,50.0,60.0C77.6,60.0,100.0,55.5,100.0,50.0L100.0,10.0L100.0,10.0C100.0,4.5,77.6,.0,50.0,.0C22.4,.0,.0,4.5,.0,10.0zM100.0,10.0C100.0,15.5,77.6,20.0,50.0,20.0C22.4,20.0,.0,15.5,.0,10.0"/><text style="fill:#303030;font-family:微软雅黑;font-size:10.00pt" xml:space="preserve"><tspan y="43.0" x="30.5">数据库</tspan></text></g><g id="shape16" transform="translate(543.50,646.45)"><path stroke-width="2" fill="none" stroke="#454545" d="M.0,.0L.0,25.5"/><path stroke-width="1" fill="#454545" stroke="#454545" stroke-linecap="round" d="M4.2,25.5L.0,34.0L-4.2,25.5L4.2,25.5"/></g><path stroke-width="3.333329916000366" id="shape17" transform="translate(300.57,527.87)" fill="#f4f9f7" stroke="#35b58f" fill-rule="nonzero" d="M116.9,188.0L116.9,.0L.0,.0L.0,188.0L116.9,188.0z"/><g id="shape18" transform="translate(312.63,537.87)"><text style="fill:#454545;font-family:微软雅黑;font-size:10.00pt" xml:space="preserve"><tspan y="23.0" x="20.4">输入映射</tspan></text></g><g id="shape19" transform="translate(309.00,570.87)"><path stroke-width="3.333329916000366" fill="#f4f9f7" stroke="#35b58f" fill-rule="nonzero" d="M100.0,35.0L100.0,.0L.0,.0L.0,35.0L100.0,35.0z"/><text style="fill:#303030;font-family:微软雅黑;font-size:10.00pt" xml:space="preserve"><tspan y="23.0" x="36.0">Map</tspan></text></g><g id="shape20" transform="translate(309.00,617.87)"><path stroke-width="3.333329916000366" fill="#f4f9f7" stroke="#35b58f" fill-rule="nonzero" d="M100.0,41.0L100.0,.0L.0,.0L.0,41.0L100.0,41.0z"/><text style="fill:#303030;font-family:微软雅黑;font-size:10.00pt" xml:space="preserve"><tspan y="26.0" x="11.0">基础数据类型</tspan></text></g><g id="shape21" transform="translate(309.00,670.87)"><path stroke-width="3.333329916000366" fill="#f4f9f7" stroke="#35b58f" fill-rule="nonzero" d="M100.0,32.0L100.0,.0L.0,.0L.0,32.0L100.0,32.0z"/><text style="fill:#303030;font-family:微软雅黑;font-size:10.00pt" xml:space="preserve"><tspan y="21.5" x="36.5">Pojo</tspan></text></g><g id="shape22" transform="translate(418.00,621.00)"><path stroke-width="2" fill="none" stroke="#454545" d="M.0,.0L51.5,.0"/><path stroke-width="1" fill="#454545" stroke="#454545" stroke-linecap="round" d="M51.5,-4.2L60.0,.0L51.5,4.2L51.5,-4.2"/></g><path stroke-width="3.333329916000366" id="shape23" transform="translate(677.15,500.85)" fill="#f4f9f7" stroke="#35b58f" fill-rule="nonzero" d="M116.9,239.1L116.9,.0L.0,.0L.0,239.1L116.9,239.1z"/><g id="shape24" transform="translate(689.20,510.85)"><text style="fill:#454545;font-family:微软雅黑;font-size:10.00pt" xml:space="preserve"><tspan y="23.0" x="20.4">输出映射</tspan></text></g><g id="shape25" transform="translate(685.57,543.85)"><path stroke-width="3.333329916000366" fill="#f4f9f7" stroke="#35b58f" fill-rule="nonzero" d="M100.0,35.0L100.0,.0L.0,.0L.0,35.0L100.0,35.0z"/><text style="fill:#303030;font-family:微软雅黑;font-size:10.00pt" xml:space="preserve"><tspan y="23.0" x="36.0">Map</tspan></text></g><g id="shape26" transform="translate(685.57,590.85)"><path stroke-width="3.333329916000366" fill="#f4f9f7" stroke="#35b58f" fill-rule="nonzero" d="M100.0,41.0L100.0,.0L.0,.0L.0,41.0L100.0,41.0z"/><text style="fill:#303030;font-family:微软雅黑;font-size:10.00pt" xml:space="preserve"><tspan y="26.0" x="11.0">基础数据类型</tspan></text></g><g id="shape27" transform="translate(685.57,643.85)"><path stroke-width="3.333329916000366" fill="#f4f9f7" stroke="#35b58f" fill-rule="nonzero" d="M100.0,32.0L100.0,.0L.0,.0L.0,32.0L100.0,32.0z"/><text style="fill:#303030;font-family:微软雅黑;font-size:10.00pt" xml:space="preserve"><tspan y="21.5" x="36.5">Pojo</tspan></text></g><g id="shape28" transform="translate(685.57,692.00)"><path stroke-width="3.333329916000366" fill="#f4f9f7" stroke="#35b58f" fill-rule="nonzero" d="M100.0,32.0L100.0,.0L.0,.0L.0,32.0L100.0,32.0z"/><text style="fill:#303030;font-family:微软雅黑;font-size:10.00pt" xml:space="preserve"><tspan y="21.5" x="39.5">List</tspan></text></g><g id="shape29" transform="translate(608.75,621.87)"><path stroke-width="2" fill="none" stroke="#454545" d="M.0,.0L60.5,.0"/><path stroke-width="1" fill="#454545" stroke="#454545" stroke-linecap="round" d="M60.5,-4.2L69.0,.0L60.5,4.2L60.5,-4.2"/></g></g></svg>